<?xml version="1.0" encoding="utf-8"?>
<svg id="master-artboard" xmlns="http://www.w3.org/2000/svg" viewBox="0 0 500 500" width="500px" height="500px"><rect id="ee-background" x="0" y="0" width="500" height="500" style="fill: white; fill-opacity: 0; pointer-events: none;"/><g transform="matrix(0.34530384632763944, 0, 0, 0.34530384632763944, 0.000004458737265622403, 0.00001525878903407829)"><g stroke-width="2.00" fill="none" stroke-linecap="butt">
<path stroke="#4e755b" vector-effect="non-scaling-stroke" d="&#10;  M 68.35 0.00&#10;  Q 56.63 24.19 50.28 52.26&#10;  Q 44.14 79.36 43.30 105.92&#10;  C 41.22 171.96 62.74 236.43 105.74 286.36&#10;  C 150.30 338.11 213.05 371.64 281.05 378.08&#10;  Q 301.76 380.05 321.72 378.50&#10;  Q 402.00 372.29 466.14 323.96&#10;  C 480.37 313.25 492.67 301.13 504.39 287.43&#10;  Q 551.43 232.44 563.05 160.47&#10;  C 565.09 147.84 565.88 134.82 565.88 122.20&#10;  Q 565.89 106.20 565.45 98.45&#10;  Q 563.51 64.40 552.14 31.91&#10;  Q 546.54 15.90 540.55 0.00"/>
<path stroke="#28452e" vector-effect="non-scaling-stroke" d="&#10;  M 805.78 0.00&#10;  Q 807.28 1.19 808.14 3.13&#10;  Q 808.23 3.34 808.39 3.39&#10;  Q 808.67 3.47 808.58 3.19&#10;  Q 807.87 1.11 808.43 0.00"/>
<path stroke="#28452e" vector-effect="non-scaling-stroke" d="&#10;  M 835.85 0.00&#10;  Q 838.39 0.57 840.87 0.00"/>
<path stroke="#28452e" vector-effect="non-scaling-stroke" d="&#10;  M 984.07 0.00&#10;  Q 984.49 3.70 984.31 7.42&#10;  Q 984.30 7.56 984.44 7.57&#10;  L 984.44 7.57&#10;  Q 984.58 7.58 984.59 7.45&#10;  Q 985.00 3.73 985.37 0.00"/>
<path stroke="#7e8e87" vector-effect="non-scaling-stroke" d="&#10;  M 1058.00 0.00&#10;  C 1049.58 22.91 1037.88 44.39 1023.03 63.75&#10;  Q 1018.02 70.27 1013.10 76.86&#10;  C 988.53 109.72 954.70 135.42 921.73 161.41&#10;  C 900.21 178.38 881.35 196.58 864.28 218.34&#10;  Q 853.48 232.09 845.48 250.52&#10;  Q 834.96 274.71 832.39 298.41&#10;  C 829.07 329.02 834.10 361.05 844.85 390.46&#10;  C 852.61 411.71 863.26 431.89 875.82 451.78&#10;  C 888.15 471.30 902.89 489.25 919.16 505.90&#10;  Q 959.40 547.10 1008.16 572.78&#10;  Q 1084.13 612.81 1170.87 610.10&#10;  Q 1226.04 608.37 1274.85 588.64"/>
<path stroke="#28452e" vector-effect="non-scaling-stroke" d="&#10;  M 1274.85 588.64&#10;  Q 1317.33 572.83 1354.93 547.84&#10;  C 1366.59 540.08 1378.82 530.59 1389.25 522.23&#10;  C 1404.26 510.23 1418.34 496.65 1431.46 482.10&#10;  Q 1439.24 473.47 1446.99 464.72&#10;  Q 1447.45 464.20 1448.00 465.11"/>
<path stroke="#4e755b" vector-effect="non-scaling-stroke" d="&#10;  M 1448.00 600.99&#10;  Q 1436.87 602.15 1422.25 604.73&#10;  Q 1302.08 625.89 1192.80 676.32&#10;  Q 1129.41 705.57 1068.62 747.84&#10;  Q 1060.45 753.52 1052.41 759.72&#10;  Q 1022.00 783.16 998.29 804.43&#10;  Q 940.20 856.51 895.87 919.05&#10;  C 878.54 943.50 863.60 969.56 848.97 995.23&#10;  C 848.35 996.33 847.20 996.68 846.01 996.54&#10;  Q 842.85 996.18 840.05 996.49&#10;  Q 838.47 996.66 840.05 996.90&#10;  L 846.43 997.89&#10;  A 0.70 0.70 0.0 0 1 846.94 998.92&#10;  C 824.93 1038.19 808.13 1079.95 795.29 1122.33&#10;  Q 775.58 1187.36 766.54 1254.79&#10;  Q 755.93 1333.98 762.06 1414.01&#10;  Q 762.23 1416.14 763.69 1430.98&#10;  Q 764.53 1439.48 765.00 1448.00"/>
<path stroke="#7e8e87" vector-effect="non-scaling-stroke" d="&#10;  M 188.52 1448.00&#10;  Q 189.35 1441.18 189.33 1434.25&#10;  Q 189.06 1320.27 189.08 1189.25&#10;  Q 189.09 1175.40 189.58 1160.68&#10;  Q 189.90 1151.15 191.33 1145.52&#10;  Q 197.76 1120.16 220.52 1103.37&#10;  C 234.05 1093.39 250.44 1090.16 267.03 1091.66&#10;  C 297.91 1094.46 323.99 1118.83 329.54 1149.32&#10;  Q 330.88 1156.68 330.82 1167.41&#10;  Q 330.65 1200.26 330.89 1225.56&#10;  Q 331.15 1253.60 348.50 1274.54&#10;  C 366.49 1296.25 395.10 1307.64 423.16 1302.95&#10;  C 460.47 1296.70 490.27 1265.83 491.66 1227.47&#10;  Q 492.62 1200.86 492.12 1159.51&#10;  A 0.75 0.74 -89.2 0 0 491.41 1158.77&#10;  L 488.08 1158.59&#10;  Q 487.40 1158.56 487.40 1159.24&#10;  Q 487.61 1187.78 487.49 1215.53&#10;  Q 487.45 1223.74 486.49 1232.42&#10;  C 483.74 1257.35 468.50 1277.52 447.12 1289.81&#10;  C 431.43 1298.83 411.65 1301.00 393.93 1297.20&#10;  C 370.30 1292.12 351.47 1276.07 341.43 1254.38&#10;  Q 336.17 1242.99 335.55 1232.10&#10;  Q 334.87 1220.06 335.15 1203.73&#10;  Q 335.41 1187.92 335.04 1165.10&#10;  Q 334.84 1152.75 333.53 1146.41&#10;  C 328.98 1124.43 314.30 1106.18 294.81 1095.21&#10;  C 284.80 1089.58 273.97 1087.15 262.37 1086.81&#10;  Q 235.42 1086.02 215.85 1100.67&#10;  C 201.35 1111.52 189.65 1129.02 186.29 1146.88&#10;  C 185.14 1152.97 185.24 1159.48 185.24 1165.75&#10;  Q 185.15 1306.88 185.16 1448.00"/>
<path stroke="#28452e" vector-effect="non-scaling-stroke" d="&#10;  M 0.00 1099.19&#10;  Q 90.74 1039.05 199.26 1024.68&#10;  Q 249.62 1018.01 300.51 1023.86&#10;  C 344.76 1028.95 387.92 1040.05 428.68 1058.45&#10;  Q 515.63 1097.72 579.76 1165.75&#10;  Q 648.64 1238.82 689.21 1332.88&#10;  C 695.29 1346.98 701.39 1362.75 705.05 1377.83&#10;  Q 705.35 1379.06 705.91 1380.17&#10;  A 1.05 1.05 0.0 0 0 707.65 1380.37&#10;  Q 708.75 1379.05 709.44 1377.46&#10;  Q 719.01 1355.38 725.88 1332.99&#10;  Q 731.41 1314.97 736.97 1291.63&#10;  Q 739.27 1281.96 741.00 1271.98&#10;  Q 753.76 1198.46 744.37 1123.63&#10;  Q 743.20 1114.32 741.38 1104.41&#10;  Q 737.95 1085.72 734.95 1072.50&#10;  Q 727.82 1041.10 715.29 1009.66&#10;  Q 715.10 1009.18 715.34 1008.73&#10;  Q 715.47 1008.49 715.49 1008.22&#10;  Q 715.51 1007.78 715.26 1007.33&#10;  Q 713.73 1004.46 710.81 997.51&#10;  Q 694.35 958.42 670.44 920.02&#10;  Q 653.84 893.35 643.64 879.97&#10;  Q 608.30 833.63 570.89 797.93&#10;  Q 505.94 735.96 424.71 694.36&#10;  Q 373.32 668.04 315.80 652.44&#10;  Q 313.29 651.76 309.94 652.96"/>
<path stroke="#7e8e87" vector-effect="non-scaling-stroke" d="&#10;  M 309.94 652.96&#10;  Q 282.29 634.16 249.94 645.60"/>
<path stroke="#28452e" vector-effect="non-scaling-stroke" d="&#10;  M 249.94 645.60&#10;  Q 246.38 643.53 240.99 643.35&#10;  Q 208.57 642.31 188.25 642.60&#10;  Q 135.64 643.34 84.25 654.53&#10;  Q 44.73 663.13 0.00 679.14"/>
<path stroke="#28452e" vector-effect="non-scaling-stroke" d="&#10;  M 537.34 444.63&#10;  C 510.06 472.16 498.60 507.32 501.76 546.20&#10;  C 504.74 582.89 522.57 616.08 551.54 638.96&#10;  Q 583.43 664.14 624.33 665.89&#10;  Q 673.70 667.99 712.88 636.58&#10;  C 743.35 612.17 760.26 573.56 759.22 534.33&#10;  Q 758.82 518.94 755.36 504.41&#10;  Q 751.58 488.55 742.63 472.63&#10;  Q 737.63 463.74 731.58 455.59&#10;  C 717.62 436.77 698.06 423.15 676.13 414.28&#10;  C 644.88 401.64 606.91 404.26 576.31 417.40&#10;  C 561.65 423.69 548.61 433.25 537.34 444.63"/>
<path stroke="#28452e" vector-effect="non-scaling-stroke" d="&#10;  M 724.00 1006.15&#10;  L 720.05 1006.78&#10;  A 0.11 0.10 82.5 0 0 719.96 1006.91&#10;  L 720.02 1007.19&#10;  Q 720.08 1007.49 720.37 1007.42&#10;  Q 722.26 1006.99 724.06 1006.60&#10;  Q 724.24 1006.56 724.21 1006.38&#10;  L 724.16 1006.13&#10;  Q 724.16 1006.12 724.00 1006.15"/>
<path stroke="#88b59d" vector-effect="non-scaling-stroke" d="&#10;  M 1061.64 0.00&#10;  Q 1059.66 7.73 1056.26 15.00&#10;  Q 1047.84 33.02 1037.72 49.96&#10;  C 1022.90 74.77 1003.56 97.39 982.21 116.70&#10;  Q 961.89 135.07 950.34 143.96&#10;  Q 929.49 160.00 911.08 175.68&#10;  C 893.56 190.60 879.18 205.47 865.78 224.44&#10;  Q 859.01 234.03 854.45 241.88&#10;  Q 841.39 264.34 837.40 290.99&#10;  C 835.18 305.83 834.48 322.15 836.10 337.05&#10;  Q 840.97 381.79 863.47 423.75&#10;  Q 880.48 455.49 900.05 479.30&#10;  Q 920.62 504.35 942.00 523.25&#10;  Q 992.04 567.49 1056.01 589.99&#10;  Q 1071.82 595.55 1092.84 599.45"/>
<path stroke="#7e8e87" vector-effect="non-scaling-stroke" d="&#10;  M 1092.84 599.45&#10;  C 1115.25 604.96 1138.25 606.72 1161.25 606.68&#10;  Q 1164.14 606.68 1166.92 606.54"/>
<path stroke="#88b59d" vector-effect="non-scaling-stroke" d="&#10;  M 1166.92 606.54&#10;  Q 1184.16 606.15 1201.25 604.76&#10;  Q 1211.09 603.96 1220.75 601.95&#10;  Q 1236.34 598.71 1251.71 594.55&#10;  Q 1263.21 591.44 1274.85 588.64"/>
<path stroke="#28452e" vector-effect="non-scaling-stroke" d="&#10;  M 1166.92 606.54&#10;  Q 1168.20 605.85 1169.96 606.13&#10;  Q 1170.21 606.17 1170.14 605.93&#10;  Q 1170.12 605.88 1170.09 605.83&#10;  Q 1169.89 605.54 1169.55 605.53&#10;  C 1163.59 605.38 1157.71 605.14 1151.70 605.28&#10;  Q 1146.47 605.41 1141.60 605.01&#10;  C 1139.94 604.88 1138.49 605.12 1136.78 604.74&#10;  Q 1135.18 604.39 1133.34 604.31&#10;  Q 1127.07 604.05 1118.60 603.09&#10;  Q 1106.39 601.70 1097.88 599.35&#10;  Q 1095.72 598.75 1092.84 599.45"/>
<path stroke="#88b59d" vector-effect="non-scaling-stroke" d="&#10;  M 1088.86 310.78&#10;  Q 1106.97 333.74 1133.34 346.36&#10;  C 1184.69 370.94 1244.75 354.96 1282.53 314.53&#10;  C 1287.05 309.70 1292.32 304.07 1295.37 298.63&#10;  Q 1305.25 281.03 1310.96 260.26&#10;  Q 1316.17 241.29 1313.55 218.00&#10;  Q 1310.52 190.99 1298.30 170.09"/>
<path stroke="#28452e" vector-effect="non-scaling-stroke" d="&#10;  M 1298.30 170.09&#10;  Q 1297.24 168.60 1296.42 166.80&#10;  Q 1295.54 164.89 1294.53 163.15&#10;  Q 1277.63 134.25 1248.14 116.76&#10;  C 1206.25 91.92 1153.16 93.03 1113.12 120.81&#10;  Q 1079.16 144.37 1064.93 183.21&#10;  Q 1051.43 220.05 1062.22 259.99&#10;  Q 1070.08 289.12 1088.86 310.78"/>
<path stroke="#7e8e87" vector-effect="non-scaling-stroke" d="&#10;  M 1298.30 170.09&#10;  Q 1308.43 194.08 1310.01 217.74&#10;  Q 1311.86 245.32 1301.20 273.07&#10;  C 1297.48 282.74 1290.95 291.07 1284.72 299.26&#10;  Q 1276.92 309.52 1273.05 313.93&#10;  C 1248.17 342.27 1205.64 355.36 1168.56 350.57&#10;  Q 1135.72 346.33 1108.14 327.62&#10;  Q 1100.51 322.44 1088.86 310.78"/>
<path stroke="#afe4c9" vector-effect="non-scaling-stroke" d="&#10;  M 1448.00 680.05&#10;  Q 1435.74 682.44 1428.99 684.46&#10;  Q 1389.56 696.27 1350.32 711.54&#10;  Q 1341.15 715.11 1331.86 719.21&#10;  Q 1321.91 723.59 1312.52 728.07&#10;  Q 1264.10 751.14 1226.57 775.14&#10;  Q 1205.80 788.43 1177.88 811.08&#10;  C 1168.64 818.58 1159.35 826.21 1150.90 834.42&#10;  C 1139.88 845.13 1129.38 855.38 1118.99 866.46&#10;  C 1101.64 884.98 1085.72 905.11 1070.79 925.72&#10;  Q 1054.96 947.57 1042.77 969.31&#10;  Q 1006.18 1034.49 989.34 1106.22&#10;  C 984.55 1126.61 981.66 1147.71 980.11 1168.56&#10;  Q 979.80 1172.87 979.79 1177.25&#10;  Q 979.77 1312.62 979.76 1448.00"/>
<path stroke="#88b59d" vector-effect="non-scaling-stroke" d="&#10;  M 309.94 652.96&#10;  Q 312.07 655.21 314.33 657.31&#10;  C 336.65 678.06 338.29 714.81 318.35 737.92&#10;  C 286.96 774.29 227.77 761.95 216.21 714.24&#10;  C 213.34 702.40 213.40 685.99 219.27 674.31&#10;  C 226.02 660.88 236.49 652.11 249.94 645.60"/>
<path stroke="#88b59d" vector-effect="non-scaling-stroke" d="&#10;  M 713.24 1008.83&#10;  L 713.18 1008.54&#10;  Q 713.15 1008.35 712.96 1008.39&#10;  Q 687.20 1013.42 666.04 1015.08&#10;  Q 655.57 1015.90 641.86 1015.26&#10;  Q 605.94 1013.58 577.82 992.79&#10;  C 562.56 981.52 549.05 967.74 536.63 953.00&#10;  C 525.49 939.78 513.87 926.70 502.58 914.13&#10;  Q 456.86 863.25 400.22 824.26&#10;  Q 400.10 824.17 400.01 824.29&#10;  L 399.78 824.61&#10;  Q 399.70 824.72 399.81 824.81&#10;  Q 413.04 834.71 425.58 844.25&#10;  Q 432.99 849.89 440.96 856.65&#10;  Q 448.70 863.22 455.90 869.45&#10;  C 469.47 881.20 483.14 894.61 495.58 908.34&#10;  Q 503.37 916.94 511.80 925.99&#10;  Q 518.53 933.20 524.91 940.98&#10;  C 536.25 954.79 548.07 968.12 561.25 980.49&#10;  C 572.43 990.99 585.45 1000.72 599.31 1006.84&#10;  Q 617.70 1014.96 638.21 1016.34&#10;  C 662.72 1017.99 688.20 1014.37 712.86 1009.40&#10;  Q 713.33 1009.30 713.24 1008.83"/>
<path stroke="#88b59d" vector-effect="non-scaling-stroke" d="&#10;  M 1448.00 682.16&#10;  Q 1393.88 697.14 1336.27 721.35&#10;  Q 1294.55 738.88 1256.25 760.77&#10;  Q 1201.21 792.23 1155.07 835.11&#10;  Q 1124.29 863.72 1097.99 895.36&#10;  Q 1031.89 974.89 1001.27 1072.94&#10;  Q 985.24 1124.26 982.88 1173.35&#10;  Q 982.48 1181.74 982.46 1193.51&#10;  Q 982.26 1320.75 982.34 1448.00"/>
<path stroke="#88b59d" vector-effect="non-scaling-stroke" d="&#10;  M 1448.00 1082.80&#10;  Q 1356.50 1082.69 1265.00 1082.82&#10;  C 1227.76 1082.87 1193.41 1093.13 1164.59 1116.30&#10;  Q 1139.95 1136.10 1124.81 1164.20&#10;  Q 1121.15 1171.01 1118.44 1179.68&#10;  Q 1112.51 1198.63 1111.33 1215.19&#10;  C 1110.78 1223.08 1110.19 1231.21 1110.22 1239.25&#10;  Q 1110.55 1343.63 1110.03 1448.00"/>
<path stroke="#88b59d" vector-effect="non-scaling-stroke" d="&#10;  M 1102.74 1448.00&#10;  Q 1103.28 1447.17 1102.71 1446.26&#10;  Q 1083.91 1416.76 1072.12 1390.54&#10;  Q 1060.28 1364.20 1051.66 1338.10&#10;  Q 1032.78 1280.99 1031.68 1217.10&#10;  C 1031.17 1187.35 1033.57 1157.75 1039.45 1128.99&#10;  C 1046.87 1092.69 1058.70 1056.19 1076.19 1023.59&#10;  Q 1109.31 961.90 1159.96 916.39&#10;  Q 1215.06 866.88 1288.29 848.81&#10;  Q 1312.25 842.90 1339.29 842.28&#10;  Q 1382.37 841.31 1422.03 852.01&#10;  Q 1433.27 855.05 1447.39 860.76&#10;  Q 1447.55 860.83 1447.63 860.67&#10;  L 1447.74 860.40&#10;  A 0.43 0.43 0.0 0 0 1447.54 859.84&#10;  Q 1431.65 851.99 1413.56 847.91&#10;  Q 1383.15 841.05 1350.82 840.59&#10;  Q 1303.95 839.93 1258.42 855.71&#10;  Q 1212.85 871.50 1175.18 901.21&#10;  Q 1161.15 912.28 1154.64 918.38&#10;  Q 1095.41 973.85 1062.55 1047.68&#10;  Q 1058.47 1056.84 1055.14 1066.32&#10;  Q 1046.54 1090.77 1040.40 1115.57&#10;  Q 1033.54 1143.24 1031.11 1172.54&#10;  Q 1025.98 1234.32 1038.09 1293.79&#10;  Q 1039.99 1303.12 1042.73 1313.45&#10;  Q 1061.85 1385.51 1101.88 1448.00"/>
<path stroke="#88b59d" vector-effect="non-scaling-stroke" d="&#10;  M 1448.00 1088.67&#10;  Q 1362.66 1088.31 1277.33 1088.75&#10;  C 1268.23 1088.80 1259.01 1089.11 1249.84 1089.92&#10;  Q 1197.85 1094.52 1158.91 1130.53&#10;  Q 1151.80 1137.11 1145.98 1145.21&#10;  Q 1132.91 1163.44 1125.75 1180.51&#10;  C 1117.32 1200.58 1116.38 1222.44 1116.37 1244.25&#10;  Q 1116.35 1295.75 1116.11 1347.25&#10;  Q 1115.89 1393.51 1116.23 1440.00&#10;  Q 1116.26 1444.00 1116.16 1448.00"/>
</g><path fill="#7fcb9d" d="&#10;  M 68.35 0.00&#10;  L 540.55 0.00&#10;  Q 546.54 15.90 552.14 31.91&#10;  Q 563.51 64.40 565.45 98.45&#10;  Q 565.89 106.20 565.88 122.20&#10;  C 565.88 134.82 565.09 147.84 563.05 160.47&#10;  Q 551.43 232.44 504.39 287.43&#10;  C 492.67 301.13 480.37 313.25 466.14 323.96&#10;  Q 402.00 372.29 321.72 378.50&#10;  Q 301.76 380.05 281.05 378.08&#10;  C 213.05 371.64 150.30 338.11 105.74 286.36&#10;  C 62.74 236.43 41.22 171.96 43.30 105.92&#10;  Q 44.14 79.36 50.28 52.26&#10;  Q 56.63 24.19 68.35 0.00&#10;  Z"/><path fill="#326c44" d="&#10;  M 805.78 0.00&#10;  L 808.43 0.00&#10;  Q 807.87 1.11 808.58 3.19&#10;  Q 808.67 3.47 808.39 3.39&#10;  Q 808.23 3.34 808.14 3.13&#10;  Q 807.28 1.19 805.78 0.00&#10;  Z"/><path fill="#326c44" d="&#10;  M 835.85 0.00&#10;  L 840.87 0.00&#10;  Q 838.39 0.57 835.85 0.00&#10;  Z"/><path fill="#326c44" d="&#10;  M 984.07 0.00&#10;  L 985.37 0.00&#10;  Q 985.00 3.73 984.59 7.45&#10;  Q 984.58 7.58 984.44 7.57&#10;  L 984.44 7.57&#10;  Q 984.30 7.56 984.31 7.42&#10;  Q 984.49 3.70 984.07 0.00&#10;  Z"/><path fill="#defdf5" d="&#10;  M 1058.00 0.00&#10;  L 1061.64 0.00&#10;  Q 1059.66 7.73 1056.26 15.00&#10;  Q 1047.84 33.02 1037.72 49.96&#10;  C 1022.90 74.77 1003.56 97.39 982.21 116.70&#10;  Q 961.89 135.07 950.34 143.96&#10;  Q 929.49 160.00 911.08 175.68&#10;  C 893.56 190.60 879.18 205.47 865.78 224.44&#10;  Q 859.01 234.03 854.45 241.88&#10;  Q 841.39 264.34 837.40 290.99&#10;  C 835.18 305.83 834.48 322.15 836.10 337.05&#10;  Q 840.97 381.79 863.47 423.75&#10;  Q 880.48 455.49 900.05 479.30&#10;  Q 920.62 504.35 942.00 523.25&#10;  Q 992.04 567.49 1056.01 589.99&#10;  Q 1071.82 595.55 1092.84 599.45&#10;  C 1115.25 604.96 1138.25 606.72 1161.25 606.68&#10;  Q 1164.14 606.68 1166.92 606.54&#10;  Q 1184.16 606.15 1201.25 604.76&#10;  Q 1211.09 603.96 1220.75 601.95&#10;  Q 1236.34 598.71 1251.71 594.55&#10;  Q 1263.21 591.44 1274.85 588.64&#10;  Q 1226.04 608.37 1170.87 610.10&#10;  Q 1084.13 612.81 1008.16 572.78&#10;  Q 959.40 547.10 919.16 505.90&#10;  C 902.89 489.25 888.15 471.30 875.82 451.78&#10;  C 863.26 431.89 852.61 411.71 844.85 390.46&#10;  C 834.10 361.05 829.07 329.02 832.39 298.41&#10;  Q 834.96 274.71 845.48 250.52&#10;  Q 853.48 232.09 864.28 218.34&#10;  C 881.35 196.58 900.21 178.38 921.73 161.41&#10;  C 954.70 135.42 988.53 109.72 1013.10 76.86&#10;  Q 1018.02 70.27 1023.03 63.75&#10;  C 1037.88 44.39 1049.58 22.91 1058.00 0.00&#10;  Z"/><path fill="#326c44" d="&#10;  M 1061.64 0.00&#10;  L 1448.00 0.00&#10;  L 1448.00 465.11&#10;  Q 1447.45 464.20 1446.99 464.72&#10;  Q 1439.24 473.47 1431.46 482.10&#10;  C 1418.34 496.65 1404.26 510.23 1389.25 522.23&#10;  C 1378.82 530.59 1366.59 540.08 1354.93 547.84&#10;  Q 1317.33 572.83 1274.85 588.64&#10;  Q 1263.21 591.44 1251.71 594.55&#10;  Q 1236.34 598.71 1220.75 601.95&#10;  Q 1211.09 603.96 1201.25 604.76&#10;  Q 1184.16 606.15 1166.92 606.54&#10;  Q 1168.20 605.85 1169.96 606.13&#10;  Q 1170.21 606.17 1170.14 605.93&#10;  Q 1170.12 605.88 1170.09 605.83&#10;  Q 1169.89 605.54 1169.55 605.53&#10;  C 1163.59 605.38 1157.71 605.14 1151.70 605.28&#10;  Q 1146.47 605.41 1141.60 605.01&#10;  C 1139.94 604.88 1138.49 605.12 1136.78 604.74&#10;  Q 1135.18 604.39 1133.34 604.31&#10;  Q 1127.07 604.05 1118.60 603.09&#10;  Q 1106.39 601.70 1097.88 599.35&#10;  Q 1095.72 598.75 1092.84 599.45&#10;  Q 1071.82 595.55 1056.01 589.99&#10;  Q 992.04 567.49 942.00 523.25&#10;  Q 920.62 504.35 900.05 479.30&#10;  Q 880.48 455.49 863.47 423.75&#10;  Q 840.97 381.79 836.10 337.05&#10;  C 834.48 322.15 835.18 305.83 837.40 290.99&#10;  Q 841.39 264.34 854.45 241.88&#10;  Q 859.01 234.03 865.78 224.44&#10;  C 879.18 205.47 893.56 190.60 911.08 175.68&#10;  Q 929.49 160.00 950.34 143.96&#10;  Q 961.89 135.07 982.21 116.70&#10;  C 1003.56 97.39 1022.90 74.77 1037.72 49.96&#10;  Q 1047.84 33.02 1056.26 15.00&#10;  Q 1059.66 7.73 1061.64 0.00&#10;  Z&#10;  M 1088.86 310.78&#10;  Q 1106.97 333.74 1133.34 346.36&#10;  C 1184.69 370.94 1244.75 354.96 1282.53 314.53&#10;  C 1287.05 309.70 1292.32 304.07 1295.37 298.63&#10;  Q 1305.25 281.03 1310.96 260.26&#10;  Q 1316.17 241.29 1313.55 218.00&#10;  Q 1310.52 190.99 1298.30 170.09&#10;  Q 1297.24 168.60 1296.42 166.80&#10;  Q 1295.54 164.89 1294.53 163.15&#10;  Q 1277.63 134.25 1248.14 116.76&#10;  C 1206.25 91.92 1153.16 93.03 1113.12 120.81&#10;  Q 1079.16 144.37 1064.93 183.21&#10;  Q 1051.43 220.05 1062.22 259.99&#10;  Q 1070.08 289.12 1088.86 310.78&#10;  Z"/><path fill="#1d1e18" d="&#10;  M 1298.30 170.09&#10;  Q 1308.43 194.08 1310.01 217.74&#10;  Q 1311.86 245.32 1301.20 273.07&#10;  C 1297.48 282.74 1290.95 291.07 1284.72 299.26&#10;  Q 1276.92 309.52 1273.05 313.93&#10;  C 1248.17 342.27 1205.64 355.36 1168.56 350.57&#10;  Q 1135.72 346.33 1108.14 327.62&#10;  Q 1100.51 322.44 1088.86 310.78&#10;  Q 1070.08 289.12 1062.22 259.99&#10;  Q 1051.43 220.05 1064.93 183.21&#10;  Q 1079.16 144.37 1113.12 120.81&#10;  C 1153.16 93.03 1206.25 91.92 1248.14 116.76&#10;  Q 1277.63 134.25 1294.53 163.15&#10;  Q 1295.54 164.89 1296.42 166.80&#10;  Q 1297.24 168.60 1298.30 170.09&#10;  Z"/><path fill="#defdf5" d="&#10;  M 1298.30 170.09&#10;  Q 1310.52 190.99 1313.55 218.00&#10;  Q 1316.17 241.29 1310.96 260.26&#10;  Q 1305.25 281.03 1295.37 298.63&#10;  C 1292.32 304.07 1287.05 309.70 1282.53 314.53&#10;  C 1244.75 354.96 1184.69 370.94 1133.34 346.36&#10;  Q 1106.97 333.74 1088.86 310.78&#10;  Q 1100.51 322.44 1108.14 327.62&#10;  Q 1135.72 346.33 1168.56 350.57&#10;  C 1205.64 355.36 1248.17 342.27 1273.05 313.93&#10;  Q 1276.92 309.52 1284.72 299.26&#10;  C 1290.95 291.07 1297.48 282.74 1301.20 273.07&#10;  Q 1311.86 245.32 1310.01 217.74&#10;  Q 1308.43 194.08 1298.30 170.09&#10;  Z"/><path fill="#326c44" d="&#10;  M 501.76 546.20&#10;  C 498.60 507.32 510.06 472.16 537.34 444.63&#10;  C 548.61 433.25 561.65 423.69 576.31 417.40&#10;  C 606.91 404.26 644.88 401.64 676.13 414.28&#10;  C 698.06 423.15 717.62 436.77 731.58 455.59&#10;  Q 737.63 463.74 742.63 472.63&#10;  Q 751.58 488.55 755.36 504.41&#10;  Q 758.82 518.94 759.22 534.33&#10;  C 760.26 573.56 743.35 612.17 712.88 636.58&#10;  Q 673.70 667.99 624.33 665.89&#10;  Q 583.43 664.14 551.54 638.96&#10;  C 522.57 616.08 504.74 582.89 501.76 546.20&#10;  Z"/><path fill="#1d1e18" d="&#10;  M 1166.92 606.54&#10;  Q 1164.14 606.68 1161.25 606.68&#10;  C 1138.25 606.72 1115.25 604.96 1092.84 599.45&#10;  Q 1095.72 598.75 1097.88 599.35&#10;  Q 1106.39 601.70 1118.60 603.09&#10;  Q 1127.07 604.05 1133.34 604.31&#10;  Q 1135.18 604.39 1136.78 604.74&#10;  C 1138.49 605.12 1139.94 604.88 1141.60 605.01&#10;  Q 1146.47 605.41 1151.70 605.28&#10;  C 1157.71 605.14 1163.59 605.38 1169.55 605.53&#10;  Q 1169.89 605.54 1170.09 605.83&#10;  Q 1170.12 605.88 1170.14 605.93&#10;  Q 1170.21 606.17 1169.96 606.13&#10;  Q 1168.20 605.85 1166.92 606.54&#10;  Z"/><path fill="#defdf5" d="&#10;  M 309.94 652.96&#10;  Q 312.07 655.21 314.33 657.31&#10;  C 336.65 678.06 338.29 714.81 318.35 737.92&#10;  C 286.96 774.29 227.77 761.95 216.21 714.24&#10;  C 213.34 702.40 213.40 685.99 219.27 674.31&#10;  C 226.02 660.88 236.49 652.11 249.94 645.60&#10;  Q 282.29 634.16 309.94 652.96&#10;  Z"/><path fill="#326c44" d="M 249.94 645.6 C 236.49 652.11 226.02 660.88 219.27 674.31 C 213.4 685.99 213.34 702.4 216.21 714.24 C 227.77 761.95 286.96 774.29 318.35 737.92 C 338.29 714.81 336.65 678.06 314.33 657.31 C 312.8233333333333 655.91 311.36 654.46 309.94 652.96 C 312.17333333333335 652.16 314.12666666666667 651.9866666666667 315.8 652.44 C 354.14666666666665 662.84 390.45 676.8133333333333 424.71 694.36 C 478.86333333333334 722.0933333333334 527.59 756.6166666666667 570.89 797.93 C 595.8299999999999 821.73 620.0799999999999 849.0766666666667 643.64 879.97 C 650.44 888.89 659.3733333333333 902.24 670.44 920.02 C 686.38 945.62 699.8366666666667 971.4499999999999 710.81 997.51 C 712.7566666666667 1002.1433333333333 730.1966666666667 1051.5666666666666 734.95 1072.5 C 736.95 1081.3133333333333 739.0933333333334 1091.95 741.38 1104.41 C 742.5933333333334 1111.0166666666667 743.59 1117.4233333333334 744.37 1123.63 C 750.63 1173.5166666666667 749.5066666666667 1222.9666666666667 741 1271.98 C 739.8466666666667 1278.6333333333334 738.5033333333333 1285.1833333333334 736.97 1291.63 C 733.2633333333333 1307.19 729.5666666666666 1320.9766666666667 725.88 1332.99 C 721.3 1347.9166666666667 715.82 1362.74 709.44 1377.46 C 708.98 1378.52 708.3833333333333 1379.49 707.65 1380.37 C 707.1658911904827 1380.9460742309875 706.250779702637 1380.8408890022433 705.91 1380.17 C 705.5366666666666 1379.43 705.25 1378.6499999999999 705.05 1377.83 C 701.39 1362.75 695.29 1346.98 689.21 1332.88 C 662.1633333333333 1270.1733333333334 625.68 1214.4633333333334 579.76 1165.75 C 537.0066666666667 1120.3966666666668 486.64666666666665 1084.63 428.68 1058.45 C 387.92 1040.05 344.76 1028.95 300.51 1023.86 C 266.5833333333333 1019.96 232.83333333333334 1020.2333333333333 199.26 1024.68 C 126.91333333333333 1034.26 60.49333333333333 1059.0966666666666 0 1099.19 L 0 679.14 C 29.819999999999997 668.4666666666667 57.903333333333336 660.2633333333333 84.25 654.53 C 118.50999999999999 647.07 153.17666666666665 643.0933333333334 188.25 642.6 C 201.79666666666665 642.4066666666666 219.37666666666667 642.6566666666666 240.99 643.35 C 244.58333333333334 643.47 247.56666666666666 644.22 249.94 645.6 Z"/><path fill="#defdf5" d="&#10;  M 1448.00 680.05&#10;  L 1448.00 682.16&#10;  Q 1393.88 697.14 1336.27 721.35&#10;  Q 1294.55 738.88 1256.25 760.77&#10;  Q 1201.21 792.23 1155.07 835.11&#10;  Q 1124.29 863.72 1097.99 895.36&#10;  Q 1031.89 974.89 1001.27 1072.94&#10;  Q 985.24 1124.26 982.88 1173.35&#10;  Q 982.48 1181.74 982.46 1193.51&#10;  Q 982.26 1320.75 982.34 1448.00&#10;  L 979.76 1448.00&#10;  Q 979.77 1312.62 979.79 1177.25&#10;  Q 979.80 1172.87 980.11 1168.56&#10;  C 981.66 1147.71 984.55 1126.61 989.34 1106.22&#10;  Q 1006.18 1034.49 1042.77 969.31&#10;  Q 1054.96 947.57 1070.79 925.72&#10;  C 1085.72 905.11 1101.64 884.98 1118.99 866.46&#10;  C 1129.38 855.38 1139.88 845.13 1150.90 834.42&#10;  C 1159.35 826.21 1168.64 818.58 1177.88 811.08&#10;  Q 1205.80 788.43 1226.57 775.14&#10;  Q 1264.10 751.14 1312.52 728.07&#10;  Q 1321.91 723.59 1331.86 719.21&#10;  Q 1341.15 715.11 1350.32 711.54&#10;  Q 1389.56 696.27 1428.99 684.46&#10;  Q 1435.74 682.44 1448.00 680.05&#10;  Z"/><path fill="#326c44" d="&#10;  M 1448.00 682.16&#10;  L 1448.00 1082.80&#10;  Q 1356.50 1082.69 1265.00 1082.82&#10;  C 1227.76 1082.87 1193.41 1093.13 1164.59 1116.30&#10;  Q 1139.95 1136.10 1124.81 1164.20&#10;  Q 1121.15 1171.01 1118.44 1179.68&#10;  Q 1112.51 1198.63 1111.33 1215.19&#10;  C 1110.78 1223.08 1110.19 1231.21 1110.22 1239.25&#10;  Q 1110.55 1343.63 1110.03 1448.00&#10;  L 1102.74 1448.00&#10;  Q 1103.28 1447.17 1102.71 1446.26&#10;  Q 1083.91 1416.76 1072.12 1390.54&#10;  Q 1060.28 1364.20 1051.66 1338.10&#10;  Q 1032.78 1280.99 1031.68 1217.10&#10;  C 1031.17 1187.35 1033.57 1157.75 1039.45 1128.99&#10;  C 1046.87 1092.69 1058.70 1056.19 1076.19 1023.59&#10;  Q 1109.31 961.90 1159.96 916.39&#10;  Q 1215.06 866.88 1288.29 848.81&#10;  Q 1312.25 842.90 1339.29 842.28&#10;  Q 1382.37 841.31 1422.03 852.01&#10;  Q 1433.27 855.05 1447.39 860.76&#10;  Q 1447.55 860.83 1447.63 860.67&#10;  L 1447.74 860.40&#10;  A 0.43 0.43 0.0 0 0 1447.54 859.84&#10;  Q 1431.65 851.99 1413.56 847.91&#10;  Q 1383.15 841.05 1350.82 840.59&#10;  Q 1303.95 839.93 1258.42 855.71&#10;  Q 1212.85 871.50 1175.18 901.21&#10;  Q 1161.15 912.28 1154.64 918.38&#10;  Q 1095.41 973.85 1062.55 1047.68&#10;  Q 1058.47 1056.84 1055.14 1066.32&#10;  Q 1046.54 1090.77 1040.40 1115.57&#10;  Q 1033.54 1143.24 1031.11 1172.54&#10;  Q 1025.98 1234.32 1038.09 1293.79&#10;  Q 1039.99 1303.12 1042.73 1313.45&#10;  Q 1061.85 1385.51 1101.88 1448.00&#10;  L 982.34 1448.00&#10;  Q 982.26 1320.75 982.46 1193.51&#10;  Q 982.48 1181.74 982.88 1173.35&#10;  Q 985.24 1124.26 1001.27 1072.94&#10;  Q 1031.89 974.89 1097.99 895.36&#10;  Q 1124.29 863.72 1155.07 835.11&#10;  Q 1201.21 792.23 1256.25 760.77&#10;  Q 1294.55 738.88 1336.27 721.35&#10;  Q 1393.88 697.14 1448.00 682.16&#10;  Z"/><path fill="#defdf5" d="&#10;  M 1102.74 1448.00&#10;  Q 1102.31 1448.00 1101.88 1448.00&#10;  Q 1061.85 1385.51 1042.73 1313.45&#10;  Q 1039.99 1303.12 1038.09 1293.79&#10;  Q 1025.98 1234.32 1031.11 1172.54&#10;  Q 1033.54 1143.24 1040.40 1115.57&#10;  Q 1046.54 1090.77 1055.14 1066.32&#10;  Q 1058.47 1056.84 1062.55 1047.68&#10;  Q 1095.41 973.85 1154.64 918.38&#10;  Q 1161.15 912.28 1175.18 901.21&#10;  Q 1212.85 871.50 1258.42 855.71&#10;  Q 1303.95 839.93 1350.82 840.59&#10;  Q 1383.15 841.05 1413.56 847.91&#10;  Q 1431.65 851.99 1447.54 859.84&#10;  A 0.43 0.43 0.0 0 1 1447.74 860.40&#10;  L 1447.63 860.67&#10;  Q 1447.55 860.83 1447.39 860.76&#10;  Q 1433.27 855.05 1422.03 852.01&#10;  Q 1382.37 841.31 1339.29 842.28&#10;  Q 1312.25 842.90 1288.29 848.81&#10;  Q 1215.06 866.88 1159.96 916.39&#10;  Q 1109.31 961.90 1076.19 1023.59&#10;  C 1058.70 1056.19 1046.87 1092.69 1039.45 1128.99&#10;  C 1033.57 1157.75 1031.17 1187.35 1031.68 1217.10&#10;  Q 1032.78 1280.99 1051.66 1338.10&#10;  Q 1060.28 1364.20 1072.12 1390.54&#10;  Q 1083.91 1416.76 1102.71 1446.26&#10;  Q 1103.28 1447.17 1102.74 1448.00&#10;  Z"/><path fill="#326c44" d="&#10;  M 724.00 1006.15&#10;  Q 724.16 1006.12 724.16 1006.13&#10;  L 724.21 1006.38&#10;  Q 724.24 1006.56 724.06 1006.60&#10;  Q 722.26 1006.99 720.37 1007.42&#10;  Q 720.08 1007.49 720.02 1007.19&#10;  L 719.96 1006.91&#10;  A 0.11 0.10 82.5 0 1 720.05 1006.78&#10;  L 724.00 1006.15&#10;  Z"/><path fill="#defdf5" d="&#10;  M 1448.00 1082.80&#10;  L 1448.00 1088.67&#10;  Q 1362.66 1088.31 1277.33 1088.75&#10;  C 1268.23 1088.80 1259.01 1089.11 1249.84 1089.92&#10;  Q 1197.85 1094.52 1158.91 1130.53&#10;  Q 1151.80 1137.11 1145.98 1145.21&#10;  Q 1132.91 1163.44 1125.75 1180.51&#10;  C 1117.32 1200.58 1116.38 1222.44 1116.37 1244.25&#10;  Q 1116.35 1295.75 1116.11 1347.25&#10;  Q 1115.89 1393.51 1116.23 1440.00&#10;  Q 1116.26 1444.00 1116.16 1448.00&#10;  L 1110.03 1448.00&#10;  Q 1110.55 1343.63 1110.22 1239.25&#10;  C 1110.19 1231.21 1110.78 1223.08 1111.33 1215.19&#10;  Q 1112.51 1198.63 1118.44 1179.68&#10;  Q 1121.15 1171.01 1124.81 1164.20&#10;  Q 1139.95 1136.10 1164.59 1116.30&#10;  C 1193.41 1093.13 1227.76 1082.87 1265.00 1082.82&#10;  Q 1356.50 1082.69 1448.00 1082.80&#10;  Z"/><path fill="#defdf5" d="&#10;  M 188.52 1448.00&#10;  L 185.16 1448.00&#10;  Q 185.15 1306.88 185.24 1165.75&#10;  C 185.24 1159.48 185.14 1152.97 186.29 1146.88&#10;  C 189.65 1129.02 201.35 1111.52 215.85 1100.67&#10;  Q 235.42 1086.02 262.37 1086.81&#10;  C 273.97 1087.15 284.80 1089.58 294.81 1095.21&#10;  C 314.30 1106.18 328.98 1124.43 333.53 1146.41&#10;  Q 334.84 1152.75 335.04 1165.10&#10;  Q 335.41 1187.92 335.15 1203.73&#10;  Q 334.87 1220.06 335.55 1232.10&#10;  Q 336.17 1242.99 341.43 1254.38&#10;  C 351.47 1276.07 370.30 1292.12 393.93 1297.20&#10;  C 411.65 1301.00 431.43 1298.83 447.12 1289.81&#10;  C 468.50 1277.52 483.74 1257.35 486.49 1232.42&#10;  Q 487.45 1223.74 487.49 1215.53&#10;  Q 487.61 1187.78 487.40 1159.24&#10;  Q 487.40 1158.56 488.08 1158.59&#10;  L 491.41 1158.77&#10;  A 0.75 0.74 -89.2 0 1 492.12 1159.51&#10;  Q 492.62 1200.86 491.66 1227.47&#10;  C 490.27 1265.83 460.47 1296.70 423.16 1302.95&#10;  C 395.10 1307.64 366.49 1296.25 348.50 1274.54&#10;  Q 331.15 1253.60 330.89 1225.56&#10;  Q 330.65 1200.26 330.82 1167.41&#10;  Q 330.88 1156.68 329.54 1149.32&#10;  C 323.99 1118.83 297.91 1094.46 267.03 1091.66&#10;  C 250.44 1090.16 234.05 1093.39 220.52 1103.37&#10;  Q 197.76 1120.16 191.33 1145.52&#10;  Q 189.90 1151.15 189.58 1160.68&#10;  Q 189.09 1175.40 189.08 1189.25&#10;  Q 189.06 1320.27 189.33 1434.25&#10;  Q 189.35 1441.18 188.52 1448.00&#10;  Z"/><path fill="#326c44" d="&#10;  M 1448.00 1088.67&#10;  L 1448.00 1448.00&#10;  L 1116.16 1448.00&#10;  Q 1116.26 1444.00 1116.23 1440.00&#10;  Q 1115.89 1393.51 1116.11 1347.25&#10;  Q 1116.35 1295.75 1116.37 1244.25&#10;  C 1116.38 1222.44 1117.32 1200.58 1125.75 1180.51&#10;  Q 1132.91 1163.44 1145.98 1145.21&#10;  Q 1151.80 1137.11 1158.91 1130.53&#10;  Q 1197.85 1094.52 1249.84 1089.92&#10;  C 1259.01 1089.11 1268.23 1088.80 1277.33 1088.75&#10;  Q 1362.66 1088.31 1448.00 1088.67&#10;  Z"/><path style="fill: rgb(29, 30, 24); fill-opacity: 1; stroke: rgb(0, 0, 0); stroke-opacity: 1; stroke-width: 0; paint-order: fill;" d="M 723.16552734375 1006.3385620117188 L 723.16552734375 1006.3385620117188"/><path fill="#7fcb9d" d="M 1448 600.99 L 1448 680.05 C 1439.8266666666666 681.6433333333333 1433.49 683.1133333333333 1428.99 684.46 C 1402.7033333333334 692.3333333333334 1376.48 701.36 1350.32 711.54 C 1344.2066666666667 713.92 1338.0533333333333 716.4766666666667 1331.86 719.21 C 1325.2266666666667 722.13 1318.78 725.0833333333334 1312.52 728.07 C 1280.24 743.45 1251.59 759.14 1226.57 775.14 C 1212.7233333333334 784 1196.4933333333333 795.98 1177.88 811.08 C 1168.64 818.58 1159.35 826.21 1150.9 834.42 C 1139.88 845.13 1129.38 855.38 1118.99 866.46 C 1101.64 884.98 1085.72 905.11 1070.79 925.72 C 1060.2366666666667 940.2866666666667 1050.8966666666668 954.8166666666667 1042.77 969.31 C 1018.3766666666667 1012.7633333333333 1000.5666666666666 1058.4 989.34 1106.22 C 984.55 1126.61 981.66 1147.71 980.11 1168.56 C 979.9033333333333 1171.4333333333332 979.7966666666666 1174.33 979.79 1177.25 C 979.7766666666666 1267.4966666666667 979.7666666666667 1357.7466666666667 979.76 1448 L 765 1448 C 764.6866666666666 1442.32 764.25 1436.6466666666668 763.69 1430.98 C 762.7166666666667 1421.0866666666668 762.1733333333333 1415.43 762.06 1414.01 C 757.9733333333332 1360.6566666666668 759.4666666666666 1307.5833333333333 766.54 1254.79 C 772.5666666666667 1209.8366666666666 782.15 1165.6833333333332 795.29 1122.33 C 808.13 1079.95 848.35 996.33 848.97 995.23 C 863.6 969.56 878.54 943.5 895.87 919.05 C 925.4233333333334 877.3566666666667 959.5633333333334 839.15 998.29 804.43 C 1014.0966666666667 790.25 1032.1366666666668 775.3466666666667 1052.41 759.72 C 1057.77 755.5866666666667 1063.1733333333334 751.6266666666667 1068.62 747.84 C 1109.1466666666668 719.6600000000001 1150.54 695.82 1192.8 676.32 C 1265.6533333333332 642.7 1342.1366666666665 618.8366666666667 1422.25 604.73 C 1431.9966666666667 603.01 1440.58 601.7633333333333 1448 600.99 Z"/><path fill="#1d1e18" d="M 0 0 L 68.35 0 C 60.53666666666667 16.12666666666667 54.513333333333335 33.54666666666667 50.28 52.26 C 46.18666666666667 70.32666666666667 43.86 88.21333333333334 43.3 105.92 C 41.22 171.96 62.74 236.43 105.74 286.36 C 150.3 338.11 213.05 371.64 281.05 378.08 C 294.8566666666667 379.3933333333333 308.41333333333336 379.53333333333336 321.72 378.5 C 375.24 374.36 423.38 356.18 466.14 323.96 C 480.37 313.25 492.67 301.13 504.39 287.43 C 535.75 250.77 555.3033333333333 208.45 563.05 160.47 C 565.09 147.84 565.88 134.82 565.88 122.2 C 565.8866666666667 111.53333333333333 565.7433333333333 103.61666666666667 565.45 98.45 C 564.1566666666666 75.75 559.72 53.57000000000001 552.14 31.91 C 548.4066666666666 21.236666666666668 544.5433333333333 10.6 540.55 0 L 1058 0 C 1049.58 22.91 1037.88 44.39 1023.03 63.75 C 1019.6899999999999 68.09666666666666 1016.38 72.46666666666667 1013.1 76.86 C 988.53 109.72 954.7 135.42 921.73 161.41 C 900.21 178.38 881.35 196.58 864.28 218.34 C 857.08 227.50666666666666 850.8133333333334 238.23333333333335 845.48 250.52 C 838.4666666666667 266.64666666666665 834.1033333333334 282.61 832.39 298.41 C 829.07 329.02 834.1 361.05 844.85 390.46 C 852.61 411.71 863.26 431.89 875.82 451.78 C 888.15 471.3 902.89 489.25 919.16 505.9 C 945.9866666666667 533.3666666666667 975.6533333333333 555.66 1008.16 572.78 C 1058.8066666666668 599.4666666666666 1113.0433333333333 611.9066666666666 1170.87 610.1 C 1207.6499999999999 608.9466666666667 1242.31 601.7933333333333 1274.85 588.64 C 1303.1699999999998 578.1 1329.8633333333332 564.5 1354.93 547.84 C 1366.59 540.08 1378.82 530.59 1389.25 522.23 C 1404.26 510.23 1418.34 496.65 1431.46 482.1 C 1436.6466666666668 476.3466666666667 1441.8233333333333 470.55333333333334 1446.99 464.72 C 1447.2966666666666 464.37333333333333 1447.6333333333334 464.50333333333333 1448 465.11 L 1448 600.99 C 1440.58 601.7633333333333 1431.9966666666667 603.01 1422.25 604.73 C 1342.1366666666665 618.8366666666667 1265.6533333333332 642.7 1192.8 676.32 C 1150.54 695.82 1109.1466666666668 719.6600000000001 1068.62 747.84 C 1063.1733333333334 751.6266666666667 1057.77 755.5866666666667 1052.41 759.72 C 1032.1366666666668 775.3466666666667 1014.0966666666667 790.25 998.29 804.43 C 959.5633333333334 839.15 925.4233333333334 877.3566666666667 895.87 919.05 C 878.54 943.5 808.13 1079.95 795.29 1122.33 C 782.15 1165.6833333333332 772.5666666666667 1209.8366666666666 766.54 1254.79 C 759.4666666666666 1307.5833333333333 757.9733333333332 1360.6566666666668 762.06 1414.01 C 762.1733333333333 1415.43 762.7166666666667 1421.0866666666668 763.69 1430.98 C 764.25 1436.6466666666668 764.6866666666666 1442.32 765 1448 L 188.52 1448 C 189.07333333333332 1443.4533333333334 189.34333333333333 1438.8700000000001 189.33 1434.25 C 189.15 1358.2633333333333 189.06666666666666 1276.5966666666666 189.08 1189.25 C 189.08666666666667 1180.0166666666667 189.25333333333333 1170.4933333333333 189.58 1160.68 C 189.79333333333335 1154.3266666666668 190.37666666666667 1149.2733333333333 191.33 1145.52 C 195.61666666666667 1128.6133333333335 205.34666666666666 1114.5633333333333 220.52 1103.37 C 234.05 1093.39 250.44 1090.16 267.03 1091.66 C 297.91 1094.46 323.99 1118.83 329.54 1149.32 C 330.43333333333334 1154.2266666666667 330.86 1160.2566666666667 330.82 1167.41 C 330.70666666666665 1189.31 330.72999999999996 1208.6933333333334 330.89 1225.56 C 331.06333333333333 1244.2533333333333 336.93333333333334 1260.58 348.5 1274.54 C 366.49 1296.25 395.1 1307.64 423.16 1302.95 C 460.47 1296.7 490.27 1265.83 491.66 1227.47 C 492.3 1209.73 492.4533333333333 1187.0766666666666 492.12 1159.51 C 492.1152174582493 1159.111151784083 491.80324076610157 1158.7859929738256 491.4100000000001 1158.77 L 488.08 1158.59 C 487.62666666666667 1158.57 487.4 1158.7866666666666 487.4 1159.24 C 487.54 1178.2666666666667 487.57 1197.03 487.49 1215.53 C 487.4633333333333 1221.0033333333333 487.13 1226.6333333333334 486.49 1232.42 C 483.74 1257.35 468.5 1277.52 447.12 1289.81 C 431.43 1298.83 411.65 1301 393.93 1297.2 C 370.3 1292.12 351.47 1276.07 341.43 1254.38 C 337.92333333333335 1246.7866666666666 335.96333333333337 1239.36 335.55 1232.1 C 335.0966666666667 1224.0733333333333 334.9633333333333 1214.6166666666666 335.15 1203.73 C 335.3233333333333 1193.19 335.2866666666667 1180.3133333333333 335.04 1165.1 C 334.90666666666664 1156.8666666666666 334.4033333333333 1150.6366666666668 333.53 1146.41 C 328.98 1124.43 314.3 1106.18 294.81 1095.21 C 284.8 1089.58 273.97 1087.15 262.37 1086.81 C 244.40333333333334 1086.2833333333333 228.89666666666665 1090.9033333333334 215.85 1100.67 C 201.35 1111.52 189.65 1129.02 186.29 1146.88 C 185.14 1152.97 185.24 1159.48 185.24 1165.75 C 185.18 1259.8366666666668 185.15333333333334 1353.92 185.16 1448 L 0 1448 L 0 1099.19 C 60.49333333333333 1059.0966666666666 126.91333333333333 1034.26 199.26 1024.68 C 232.83333333333334 1020.2333333333333 266.5833333333333 1019.96 300.51 1023.86 C 344.76 1028.95 387.92 1040.05 428.68 1058.45 C 486.64666666666665 1084.63 537.0066666666667 1120.3966666666668 579.76 1165.75 C 625.68 1214.4633333333334 662.1633333333333 1270.1733333333334 689.21 1332.88 C 695.29 1346.98 701.39 1362.75 705.05 1377.83 C 705.25 1378.6499999999999 705.5366666666666 1379.43 705.91 1380.17 C 706.250779702637 1380.8408890022433 707.1658911904827 1380.9460742309875 707.65 1380.37 C 708.3833333333333 1379.49 708.98 1378.52 709.44 1377.46 C 715.82 1362.74 721.3 1347.9166666666667 725.88 1332.99 C 729.5666666666666 1320.9766666666667 733.2633333333333 1307.19 736.97 1291.63 C 738.5033333333333 1285.1833333333334 739.8466666666667 1278.6333333333334 741 1271.98 C 749.5066666666667 1222.9666666666667 750.63 1173.5166666666667 744.37 1123.63 C 743.59 1117.4233333333334 742.5933333333334 1111.0166666666667 741.38 1104.41 C 739.0933333333334 1091.95 736.95 1081.3133333333333 734.95 1072.5 C 730.1966666666667 1051.5666666666666 712.7566666666667 1002.1433333333333 710.81 997.51 C 699.8366666666667 971.4499999999999 686.38 945.62 670.44 920.02 C 659.3733333333333 902.24 650.44 888.89 643.64 879.97 C 620.0799999999999 849.0766666666667 595.8299999999999 821.73 570.89 797.93 C 527.59 756.6166666666667 478.86333333333334 722.0933333333334 424.71 694.36 C 390.45 676.8133333333333 354.14666666666665 662.84 315.8 652.44 C 314.12666666666667 651.9866666666667 312.17333333333335 652.16 309.94 652.96 C 291.50666666666666 640.4266666666666 271.50666666666666 637.9733333333334 249.94 645.6 C 247.56666666666666 644.22 244.58333333333334 643.47 240.99 643.35 C 219.37666666666667 642.6566666666666 201.79666666666665 642.4066666666666 188.25 642.6 C 153.17666666666665 643.0933333333334 118.50999999999999 647.07 84.25 654.53 C 57.903333333333336 660.2633333333333 29.819999999999997 668.4666666666667 0 679.14 L 0 0 Z M 537.34 444.63 C 510.06 472.16 498.6 507.32 501.76 546.2 C 504.74 582.89 522.57 616.08 551.54 638.96 C 572.8 655.7466666666667 597.0633333333333 664.7233333333334 624.33 665.89 C 657.2433333333333 667.29 686.76 657.52 712.88 636.58 C 743.35 612.17 760.26 573.56 759.22 534.33 C 758.9533333333334 524.07 757.6666666666667 514.0966666666667 755.36 504.41 C 752.84 493.8366666666667 748.5966666666667 483.24333333333334 742.63 472.63 C 739.2966666666666 466.7033333333333 735.6133333333333 461.0233333333333 731.58 455.59 C 717.62 436.77 698.06 423.15 676.13 414.28 C 644.88 401.64 606.91 404.26 576.31 417.4 C 561.65 423.69 548.61 433.25 537.34 444.63 Z"/><path style="fill: rgb(29, 30, 24); fill-opacity: 1; stroke: rgb(0, 0, 0); stroke-opacity: 1; stroke-width: 0; paint-order: fill;" d="M 597.455322265625 1004.7776489257812 L 597.93798828125 1006.2256469726562"/></g><g transform="matrix(0.4882811903953552, 0, 0, 0.4882811903953552, 0.000015631319911335595, 0.00003051757813210543)"><g stroke-width="2.00" fill="none" stroke-linecap="butt">
<path stroke="#2b4a3a" vector-effect="non-scaling-stroke" d="&#10;  M 47.37 0.00&#10;  L 47.80 0.19&#10;  A 0.49 0.49 0.0 0 1 48.05 0.86&#10;  C 40.04 16.58 35.70 33.01 32.91 50.38&#10;  C 23.17 110.99 42.41 172.47 86.53 215.01&#10;  Q 112.56 240.11 144.64 253.59&#10;  Q 205.68 279.26 270.48 259.48&#10;  Q 302.51 249.71 330.99 227.97&#10;  Q 338.98 221.87 346.08 214.64&#10;  Q 359.59 200.87 368.52 187.85&#10;  Q 393.39 151.56 398.97 107.47&#10;  C 400.31 96.81 400.25 85.02 400.02 74.36&#10;  Q 399.43 47.62 389.55 20.03&#10;  Q 385.98 10.04 382.25 0.00"/>
<path stroke="#18382f" vector-effect="non-scaling-stroke" d="&#10;  M 569.52 0.00&#10;  Q 572.03 2.97 573.86 6.39&#10;  Q 573.95 6.56 574.13 6.49&#10;  L 574.13 6.48&#10;  Q 574.31 6.40 574.23 6.23&#10;  C 573.28 4.00 571.90 2.55 571.78 0.00"/>
<path stroke="#18382f" vector-effect="non-scaling-stroke" d="&#10;  M 592.32 0.00&#10;  Q 585.74 5.94 577.96 9.50&#10;  Q 577.44 9.74 576.87 9.63&#10;  Q 576.32 9.52 576.24 10.11&#10;  Q 576.17 10.66 575.71 10.98&#10;  L 561.48 20.52"/>
<path stroke="#2b4a3a" vector-effect="non-scaling-stroke" d="&#10;  M 561.48 20.52&#10;  L 543.84 31.87"/>
<path stroke="#18382f" vector-effect="non-scaling-stroke" d="&#10;  M 543.84 31.87&#10;  Q 534.94 37.65 530.76 40.77&#10;  Q 523.95 45.87 517.03 50.81&#10;  Q 514.48 52.63 504.85 60.67&#10;  Q 504.61 60.86 504.88 61.02&#10;  L 505.14 61.18&#10;  Q 505.16 61.19 505.18 61.17&#10;  C 509.05 58.09 512.74 54.84 516.74 51.89&#10;  Q 530.25 41.93 544.07 32.34"/>
<path stroke="#2b4a3a" vector-effect="non-scaling-stroke" d="&#10;  M 544.07 32.34&#10;  L 561.95 20.75"/>
<path stroke="#18382f" vector-effect="non-scaling-stroke" d="&#10;  M 561.95 20.75&#10;  L 576.59 11.05&#10;  A 0.43 0.42 63.7 0 1 577.23 11.27&#10;  Q 577.30 11.48 577.52 11.57&#10;  Q 578.08 11.77 577.74 11.29&#10;  Q 577.41 10.82 577.90 10.56&#10;  Q 585.21 6.77 592.36 1.27&#10;  C 593.44 0.44 594.61 0.31 595.88 0.00"/>
<path stroke="#18382f" vector-effect="non-scaling-stroke" d="&#10;  M 695.80 0.00&#10;  Q 695.85 8.01 694.93 12.24&#10;  Q 693.77 17.57 689.95 27.24&#10;  Q 689.94 27.29 689.98 27.30&#10;  L 690.22 27.40&#10;  A 0.31 0.30 -68.7 0 0 690.62 27.22&#10;  Q 691.09 25.96 691.76 24.71&#10;  Q 692.41 23.51 692.87 22.10&#10;  Q 696.40 11.32 697.10 0.00"/>
<path stroke="#828b7d" vector-effect="non-scaling-stroke" d="&#10;  M 748.28 0.00&#10;  Q 741.87 17.62 731.77 33.48&#10;  C 727.66 39.95 722.77 46.04 718.19 52.28&#10;  C 700.35 76.57 677.38 94.09 653.61 112.86&#10;  C 635.90 126.84 619.59 142.30 606.85 160.59&#10;  Q 604.52 163.92 602.64 167.59&#10;  C 598.62 175.38 594.55 184.73 592.28 193.10&#10;  C 588.21 208.09 587.03 223.68 588.91 239.27&#10;  Q 590.06 248.79 591.75 256.64&#10;  Q 593.81 266.18 599.32 280.64&#10;  C 602.55 289.13 606.97 297.50 611.33 305.53&#10;  C 625.66 331.96 645.59 355.38 669.06 375.21&#10;  C 706.55 406.90 752.86 427.16 801.82 430.75&#10;  C 825.74 432.51 850.71 431.17 874.00 425.08&#10;  C 884.56 422.32 894.56 419.35 904.37 415.17"/>
<path stroke="#18382f" vector-effect="non-scaling-stroke" d="&#10;  M 904.37 415.17&#10;  Q 931.82 404.73 956.54 388.57&#10;  Q 963.16 384.23 970.68 378.50&#10;  Q 981.22 370.45 984.37 367.83&#10;  C 993.83 359.93 1003.86 350.57 1012.47 340.78&#10;  Q 1017.29 335.30 1022.07 329.88&#10;  Q 1022.62 329.26 1023.13 328.57&#10;  Q 1023.50 328.08 1023.79 328.62&#10;  L 1024.00 329.00"/>
<path stroke="#2b4a3a" vector-effect="non-scaling-stroke" d="&#10;  M 1024.00 425.05&#10;  Q 1020.50 425.29 1017.01 425.83&#10;  Q 952.42 435.89 891.30 458.51&#10;  Q 844.43 475.86 804.72 498.12&#10;  Q 784.71 509.34 761.55 524.84&#10;  Q 752.76 530.72 745.01 536.72&#10;  Q 725.57 551.78 710.70 564.74&#10;  Q 681.74 589.97 656.17 620.57&#10;  Q 633.14 648.12 615.85 677.34&#10;  Q 608.06 690.51 600.11 704.26&#10;  Q 599.86 704.69 599.37 704.72&#10;  Q 598.34 704.78 597.32 704.73&#10;  Q 580.10 703.84 563.10 705.25&#10;  C 561.39 705.39 559.69 705.15 558.08 705.35&#10;  Q 551.24 706.18 544.27 706.71&#10;  Q 537.17 707.26 530.31 708.48&#10;  Q 522.45 709.89 513.75 711.14&#10;  Q 513.16 711.22 513.26 711.52"/>
<path stroke="#828b7d" vector-effect="non-scaling-stroke" d="&#10;  M 513.26 711.52&#10;  Q 511.06 711.85 508.86 712.13&#10;  Q 508.78 712.14 508.86 712.18&#10;  Q 508.90 712.20 508.94 712.23&#10;  Q 509.02 712.29 509.12 712.28&#10;  Q 511.26 712.21 513.26 711.52"/>
<path stroke="#2b4a3a" vector-effect="non-scaling-stroke" d="&#10;  M 513.26 711.52&#10;  Q 515.69 711.52 518.04 711.05&#10;  Q 520.66 710.52 522.51 710.39&#10;  Q 524.75 710.24 526.99 709.79&#10;  Q 535.10 708.13 543.74 707.43&#10;  Q 549.76 706.94 555.44 706.29&#10;  Q 560.39 705.71 566.06 705.34&#10;  Q 571.44 704.98 576.70 704.72&#10;  Q 586.90 704.22 598.66 705.67&#10;  Q 599.36 705.75 599.01 706.37&#10;  Q 592.06 718.83 587.36 728.77&#10;  Q 570.50 764.40 559.08 805.27&#10;  Q 551.48 832.49 547.43 854.57&#10;  Q 542.12 883.59 540.14 903.50&#10;  C 536.56 939.66 536.25 976.87 540.19 1013.32&#10;  Q 540.77 1018.66 541.06 1024.00"/>
<path stroke="#828b7d" vector-effect="non-scaling-stroke" d="&#10;  M 133.31 1024.00&#10;  Q 133.78 1018.44 133.76 1012.75&#10;  Q 133.49 930.71 133.60 840.69&#10;  Q 133.61 833.26 133.77 824.72&#10;  Q 133.96 814.34 135.28 809.37&#10;  C 138.97 795.48 148.68 783.55 161.11 776.89&#10;  Q 169.98 772.13 181.83 771.76&#10;  Q 202.57 771.10 217.35 784.71&#10;  Q 233.88 799.93 233.90 822.24&#10;  Q 233.93 846.09 234.05 867.29&#10;  C 234.19 892.26 251.74 913.59 275.64 920.10&#10;  C 297.95 926.18 320.95 917.95 335.57 899.96&#10;  Q 347.23 885.62 347.69 866.81&#10;  Q 348.25 844.02 347.88 820.19&#10;  Q 347.87 819.59 347.28 819.56&#10;  L 345.27 819.47&#10;  Q 344.71 819.44 344.72 820.00&#10;  Q 344.96 839.38 344.78 859.25&#10;  C 344.73 864.71 344.41 870.49 343.45 875.79&#10;  C 340.86 890.13 332.25 901.50 320.32 909.80&#10;  C 306.72 919.26 288.96 921.06 273.18 916.13&#10;  C 253.59 910.01 238.05 890.42 237.04 870.19&#10;  Q 236.77 864.74 236.84 859.96&#10;  Q 237.18 837.66 236.67 818.94&#10;  C 236.16 800.24 224.43 783.55 208.02 774.47&#10;  Q 199.38 769.69 188.73 768.87&#10;  Q 156.73 766.40 138.95 793.62&#10;  Q 132.78 803.06 131.37 813.77&#10;  Q 130.99 816.73 130.98 833.75&#10;  Q 130.95 928.88 130.95 1024.00"/>
<path stroke="#18382f" vector-effect="non-scaling-stroke" d="&#10;  M 0.00 777.31&#10;  Q 64.71 734.53 142.07 724.50&#10;  C 182.56 719.24 224.57 723.12 264.03 734.23&#10;  Q 274.33 737.13 283.39 740.51&#10;  Q 347.84 764.57 398.72 812.97&#10;  Q 405.18 819.12 412.62 827.21&#10;  Q 449.11 866.91 474.01 914.48&#10;  Q 487.50 940.25 495.99 965.21&#10;  C 497.25 968.94 498.08 972.65 499.32 976.41&#10;  A 0.43 0.42 -26.8 0 0 499.97 976.62&#10;  Q 500.38 976.33 500.62 975.87&#10;  Q 502.82 971.64 504.60 967.25&#10;  Q 508.90 956.64 512.95 944.16&#10;  Q 515.22 937.16 519.60 919.97&#10;  Q 522.43 908.86 523.93 900.34&#10;  Q 533.63 845.05 525.72 789.32&#10;  C 524.86 783.32 523.47 777.23 522.42 771.17&#10;  C 519.18 752.59 513.51 734.16 506.56 715.89&#10;  Q 506.22 715.01 505.57 714.33&#10;  Q 505.18 713.92 505.61 713.54&#10;  Q 505.95 713.25 506.38 713.16&#10;  Q 506.81 713.07 507.19 712.81&#10;  Q 507.94 712.30 507.05 712.48&#10;  Q 506.63 712.57 506.21 712.58&#10;  Q 505.71 712.60 505.49 712.15&#10;  C 504.01 709.15 502.97 706.12 501.64 703.07&#10;  Q 490.43 677.28 475.62 652.88&#10;  C 471.36 645.86 466.62 639.04 462.05 632.10&#10;  Q 456.77 624.11 451.32 617.20&#10;  Q 439.49 602.21 426.41 587.66&#10;  Q 378.38 534.25 313.83 498.20&#10;  Q 270.97 474.26 223.25 461.46&#10;  Q 221.87 461.09 218.70 461.58"/>
<path stroke="#828b7d" vector-effect="non-scaling-stroke" d="&#10;  M 218.70 461.58&#10;  Q 199.50 448.66 176.73 456.61"/>
<path stroke="#18382f" vector-effect="non-scaling-stroke" d="&#10;  M 176.73 456.61&#10;  Q 175.61 455.53 172.75 455.33&#10;  Q 134.92 452.81 102.00 456.10&#10;  Q 75.93 458.70 50.50 464.93&#10;  Q 24.99 471.19 0.00 480.36"/>
<path stroke="#18382f" vector-effect="non-scaling-stroke" d="&#10;  M 672.94 48.24&#10;  Q 674.64 47.69 675.11 46.65&#10;  Q 675.36 46.08 674.83 46.41&#10;  Q 673.68 47.11 672.94 48.24"/>
<path stroke="#18382f" vector-effect="non-scaling-stroke" d="&#10;  M 672.94 48.24&#10;  C 665.60 52.33 658.48 56.61 650.01 57.31&#10;  C 646.26 57.62 642.62 58.37 638.90 58.00&#10;  Q 615.16 55.67 599.76 39.23&#10;  Q 589.32 28.08 578.83 12.07&#10;  A 0.07 0.07 0.0 0 0 578.73 12.05&#10;  L 578.50 12.20&#10;  Q 578.21 12.39 578.41 12.68&#10;  Q 588.93 28.43 599.60 39.81&#10;  Q 607.15 47.88 617.30 53.06&#10;  Q 622.84 55.89 630.40 57.57&#10;  C 644.81 60.78 660.47 57.33 672.53 48.99&#10;  Q 673.09 48.60 672.94 48.24"/>
<path stroke="#18382f" vector-effect="non-scaling-stroke" d="&#10;  M 687.2598 32.7764&#10;  A 2.57 0.34 118.6 0 0 688.7885 30.6828&#10;  A 2.57 0.34 118.6 0 0 689.7202 28.2636&#10;  A 2.57 0.34 118.6 0 0 688.1915 30.3572&#10;  A 2.57 0.34 118.6 0 0 687.2598 32.7764"/>
<path stroke="#18382f" vector-effect="non-scaling-stroke" d="&#10;  M 494.9562 71.1622&#10;  A 2.00 0.26 132.6 0 0 496.5014 69.8660&#10;  A 2.00 0.26 132.6 0 0 497.6638 68.2178&#10;  A 2.00 0.26 132.6 0 0 496.1186 69.5140&#10;  A 2.00 0.26 132.6 0 0 494.9562 71.1622"/>
<path stroke="#18382f" vector-effect="non-scaling-stroke" d="&#10;  M 487.3799 79.7328&#10;  A 4.39 0.31 129.8 0 0 490.4282 76.5584&#10;  A 4.39 0.31 129.8 0 0 493.0001 72.9872&#10;  A 4.39 0.31 129.8 0 0 489.9518 76.1616&#10;  A 4.39 0.31 129.8 0 0 487.3799 79.7328"/>
<path stroke="#2b4a3a" vector-effect="non-scaling-stroke" d="&#10;  M 462.17 134.18&#10;  Q 461.39 139.08 461.53 143.25&#10;  Q 462.05 158.83 467.74 173.79"/>
<path stroke="#18382f" vector-effect="non-scaling-stroke" d="&#10;  M 467.74 173.79&#10;  Q 472.06 184.86 479.10 194.44&#10;  C 486.59 204.63 495.66 214.18 505.99 221.51&#10;  C 510.82 224.93 515.44 228.25 520.62 231.17&#10;  Q 534.17 238.78 546.80 246.39&#10;  C 552.23 249.66 557.42 253.62 562.99 256.99&#10;  Q 563.34 257.20 563.48 256.89"/>
<path stroke="#2b4a3a" vector-effect="non-scaling-stroke" d="&#10;  M 563.48 256.89&#10;  L 570.49 262.01"/>
<path stroke="#2b4a3a" vector-effect="non-scaling-stroke" d="&#10;  M 570.49 262.01&#10;  Q 574.00 264.99 576.47 266.69&#10;  Q 577.76 267.58 576.66 266.46&#10;  Q 574.36 264.11 570.49 262.01"/>
<path stroke="#2b4a3a" vector-effect="non-scaling-stroke" d="&#10;  M 570.49 262.01&#10;  Q 567.60 258.80 563.48 256.89"/>
<path stroke="#18382f" vector-effect="non-scaling-stroke" d="&#10;  M 563.48 256.89&#10;  Q 559.38 253.98 555.23 251.06&#10;  Q 551.12 248.16 546.74 245.59&#10;  Q 534.34 238.30 522.93 231.62&#10;  Q 521.54 230.81 520.18 230.01&#10;  Q 509.01 223.48 498.05 214.48&#10;  Q 489.02 207.07 479.00 193.26&#10;  Q 472.32 184.06 468.15 173.50"/>
<path stroke="#2b4a3a" vector-effect="non-scaling-stroke" d="&#10;  M 468.15 173.50&#10;  Q 461.12 155.07 462.53 135.46"/>
<path stroke="#18382f" vector-effect="non-scaling-stroke" d="&#10;  M 462.53 135.46&#10;  Q 465.35 109.80 480.41 88.97&#10;  Q 480.52 88.81 480.36 88.69&#10;  L 480.12 88.52&#10;  Q 480.11 88.51 480.11 88.52&#10;  Q 469.74 102.94 464.84 120.04&#10;  Q 462.84 127.02 462.17 134.18"/>
<path stroke="#3a664f" vector-effect="non-scaling-stroke" d="&#10;  M 462.53 135.46&#10;  Q 462.85 134.14 462.17 134.18"/>
<path stroke="#3a664f" vector-effect="non-scaling-stroke" d="&#10;  M 468.15 173.50&#10;  Q 468.09 173.75 467.74 173.79"/>
<path stroke="#2b4a3a" vector-effect="non-scaling-stroke" d="&#10;  M 584.48 273.04&#10;  L 587.12 275.44&#10;  Q 587.86 276.12 587.36 275.25&#10;  Q 586.48 273.69 584.48 273.04"/>
<path stroke="#2b4a3a" vector-effect="non-scaling-stroke" d="&#10;  M 584.48 273.04&#10;  Q 582.20 270.67 579.67 268.93&#10;  Q 578.00 267.78 579.41 269.24&#10;  Q 581.34 271.21 584.48 273.04"/>
<path stroke="#18382f" vector-effect="non-scaling-stroke" d="&#10;  M 592.75 280.50&#10;  Q 595.35 283.62 596.68 284.50&#10;  Q 600.96 287.33 597.54 283.50&#10;  Q 596.14 281.92 592.75 280.50"/>
<path stroke="#2b4a3a" vector-effect="non-scaling-stroke" d="&#10;  M 592.75 280.50&#10;  Q 590.77 277.95 588.51 276.27&#10;  Q 587.73 275.69 588.37 276.42&#10;  Q 590.63 278.98 592.75 280.50"/>
<path stroke="#18382f" vector-effect="non-scaling-stroke" d="&#10;  M 536.93 375.56&#10;  Q 536.14 359.64 531.11 346.45&#10;  Q 527.23 336.27 519.76 325.29&#10;  C 509.51 310.23 495.26 299.74 478.20 292.85&#10;  Q 467.06 288.35 453.81 287.32&#10;  C 432.40 285.66 408.22 291.36 390.68 304.86&#10;  Q 353.08 333.80 354.39 380.88&#10;  C 355.20 409.97 368.66 435.94 391.80 453.37&#10;  Q 415.84 471.47 447.58 471.16&#10;  C 479.74 470.84 511.14 452.06 526.08 423.88&#10;  Q 538.21 401.01 536.93 375.56"/>
<path stroke="#3a664f" vector-effect="non-scaling-stroke" d="&#10;  M 561.95 20.75&#10;  Q 561.75 20.76 561.48 20.52"/>
<path stroke="#91a792" vector-effect="non-scaling-stroke" d="&#10;  M 750.93 0.00&#10;  Q 748.97 6.73 745.84 13.07&#10;  C 739.59 25.75 732.62 38.56 724.11 49.89&#10;  Q 710.41 68.15 696.27 81.02&#10;  Q 681.58 94.40 668.76 104.28&#10;  Q 653.12 116.34 639.14 128.64&#10;  Q 624.30 141.70 614.09 156.21&#10;  C 610.69 161.06 607.16 165.88 604.32 170.86&#10;  Q 593.14 190.40 591.29 212.64&#10;  Q 590.04 227.61 591.24 238.28&#10;  Q 594.13 264.17 605.17 288.61&#10;  Q 613.70 307.50 628.14 328.15&#10;  Q 633.68 336.07 640.65 344.02&#10;  Q 649.99 354.68 658.11 362.60&#10;  C 678.22 382.24 702.30 398.50 728.57 409.95&#10;  Q 737.71 413.94 744.74 416.48&#10;  Q 755.03 420.19 769.45 423.18"/>
<path stroke="#828b7d" vector-effect="non-scaling-stroke" d="&#10;  M 769.45 423.18&#10;  Q 783.00 426.51 795.01 427.74&#10;  Q 817.18 430.02 840.59 428.25"/>
<path stroke="#91a792" vector-effect="non-scaling-stroke" d="&#10;  M 840.59 428.25&#10;  Q 853.39 427.65 861.50 426.08&#10;  Q 879.58 422.59 904.37 415.17"/>
<path stroke="#18382f" vector-effect="non-scaling-stroke" d="&#10;  M 840.59 428.25&#10;  Q 826.52 427.93 812.75 427.83&#10;  Q 799.92 427.74 784.43 425.39&#10;  Q 784.34 425.38 777.42 423.94&#10;  Q 773.43 423.11 769.45 423.18"/>
<path stroke="#91a792" vector-effect="non-scaling-stroke" d="&#10;  M 769.08 218.49&#10;  Q 774.17 225.17 781.07 231.20&#10;  Q 805.51 252.55 837.00 253.06&#10;  C 863.06 253.49 887.68 242.23 905.86 223.58&#10;  Q 908.87 220.49 912.36 216.30&#10;  Q 915.73 212.25 917.71 208.12&#10;  Q 921.31 200.64 923.57 194.89&#10;  Q 931.71 174.23 928.55 151.50&#10;  Q 925.90 132.40 916.99 117.95"/>
<path stroke="#18382f" vector-effect="non-scaling-stroke" d="&#10;  M 916.99 117.95&#10;  Q 902.26 91.44 874.81 78.38&#10;  C 848.46 65.84 815.80 67.50 791.43 82.73&#10;  Q 770.20 96.00 759.11 116.51&#10;  Q 740.35 151.21 752.95 189.49&#10;  Q 758.17 205.32 769.08 218.49"/>
<path stroke="#828b7d" vector-effect="non-scaling-stroke" d="&#10;  M 916.99 117.95&#10;  Q 931.54 147.98 924.44 180.00&#10;  Q 922.97 186.62 919.65 194.76&#10;  C 917.97 198.88 915.08 203.04 912.41 206.67&#10;  Q 907.57 213.23 901.93 220.20&#10;  Q 894.45 229.45 883.95 235.71&#10;  C 853.35 253.96 816.56 252.44 786.50 233.73&#10;  Q 778.36 228.66 769.08 218.49"/>
<path stroke="#3a664f" vector-effect="non-scaling-stroke" d="&#10;  M 544.07 32.34&#10;  Q 543.95 32.11 543.84 31.87"/>
<path stroke="#a4b99d" vector-effect="non-scaling-stroke" d="&#10;  M 1024.00 481.00&#10;  Q 1013.23 483.29 1002.78 486.55&#10;  Q 982.08 493.01 963.29 500.25&#10;  Q 922.47 515.99 884.35 538.11&#10;  C 874.64 543.74 864.78 550.20 855.67 556.63&#10;  Q 824.13 578.89 797.33 606.92&#10;  Q 782.03 622.91 770.64 637.41&#10;  C 758.92 652.31 747.54 668.28 738.39 684.36&#10;  Q 722.66 712.04 711.65 742.59&#10;  C 702.85 767.01 696.89 791.18 694.25 815.90&#10;  Q 693.01 827.42 693.01 831.75&#10;  Q 692.87 927.88 692.94 1024.00"/>
<path stroke="#91a792" vector-effect="non-scaling-stroke" d="&#10;  M 218.70 461.58&#10;  Q 224.80 467.02 226.72 469.79&#10;  Q 236.65 484.07 234.58 500.55&#10;  C 232.07 520.52 214.49 536.31 194.40 536.76&#10;  C 169.88 537.31 151.69 518.75 151.62 494.43&#10;  Q 151.58 484.96 153.84 479.56&#10;  Q 160.31 464.06 176.73 456.61"/>
<path stroke="#91a792" vector-effect="non-scaling-stroke" d="&#10;  M 377.37 672.58&#10;  Q 385.83 682.62 395.15 691.64&#10;  Q 399.45 695.80 404.24 699.59&#10;  Q 408.92 703.30 413.56 706.33&#10;  Q 431.61 718.07 455.06 718.90&#10;  Q 468.20 719.36 480.78 717.68&#10;  Q 492.36 716.13 504.37 713.72&#10;  Q 504.59 713.68 504.54 713.46&#10;  L 504.54 713.45&#10;  Q 504.50 713.21 504.26 713.26&#10;  Q 489.37 716.09 474.32 717.71&#10;  C 468.22 718.37 462.30 718.19 456.02 718.16&#10;  Q 448.32 718.13 438.61 716.03&#10;  Q 424.71 713.02 412.88 705.20&#10;  Q 404.82 699.88 399.09 694.56&#10;  Q 394.53 690.32 390.02 685.78&#10;  Q 384.81 680.53 380.35 675.26&#10;  Q 363.42 655.28 349.37 640.11&#10;  Q 333.60 623.09 313.29 606.12&#10;  Q 298.83 594.05 282.81 582.84&#10;  Q 282.63 582.72 282.51 582.89&#10;  L 282.50 582.90&#10;  Q 282.44 582.99 282.53 583.05&#10;  Q 293.63 591.40 304.67 599.69&#10;  C 306.99 601.43 309.04 603.49 311.33 605.34&#10;  Q 329.83 620.27 347.81 639.28&#10;  C 350.87 642.52 353.62 645.92 356.72 649.09&#10;  C 363.99 656.53 370.79 664.78 377.37 672.58"/>
<path stroke="#91a792" vector-effect="non-scaling-stroke" d="&#10;  M 1024.00 482.50&#10;  Q 972.20 496.90 923.55 519.80&#10;  C 891.01 535.13 860.32 553.65 833.55 576.03&#10;  Q 800.66 603.53 773.51 636.88&#10;  Q 767.97 643.68 762.41 651.34&#10;  Q 756.59 659.36 751.73 666.70&#10;  Q 720.63 713.67 705.10 769.27&#10;  Q 696.80 799.01 695.21 828.32&#10;  Q 694.84 835.26 694.83 843.00&#10;  Q 694.69 933.50 694.73 1024.00"/>
<path stroke="#91a792" vector-effect="non-scaling-stroke" d="&#10;  M 1024.00 608.25&#10;  Q 1016.84 604.60 1009.99 602.47&#10;  Q 998.36 598.85 985.58 596.96&#10;  Q 969.46 594.57 955.03 594.40&#10;  Q 933.07 594.15 911.19 599.05&#10;  Q 890.39 603.70 867.73 614.46&#10;  C 842.01 626.66 818.40 645.89 799.66 666.82&#10;  C 780.25 688.49 764.16 712.77 752.26 739.29&#10;  Q 748.14 748.47 744.92 758.05&#10;  Q 735.98 784.69 732.40 805.19&#10;  Q 726.02 841.68 729.29 880.49&#10;  Q 730.00 888.98 731.22 897.98&#10;  Q 733.16 912.24 737.05 927.25&#10;  Q 750.28 978.28 778.23 1022.36&#10;  C 778.60 1022.94 779.22 1023.40 779.50 1024.00"/>
<path stroke="#91a792" vector-effect="non-scaling-stroke" d="&#10;  M 1024.00 608.91&#10;  C 1018.04 606.68 1012.23 604.36 1006.07 602.69&#10;  Q 977.66 595.00 946.24 595.79&#10;  Q 927.95 596.26 910.69 600.48&#10;  Q 860.94 612.65 822.89 645.85&#10;  Q 796.74 668.67 777.20 697.39&#10;  Q 763.30 717.82 754.43 737.39&#10;  Q 743.54 761.43 736.11 793.61&#10;  Q 733.98 802.80 732.60 812.60&#10;  Q 725.74 861.17 734.34 909.21&#10;  Q 737.81 928.62 744.52 948.49&#10;  C 753.39 974.76 764.63 999.38 779.70 1022.51&#10;  Q 780.12 1023.16 779.93 1024.00"/>
<path stroke="#91a792" vector-effect="non-scaling-stroke" d="&#10;  M 1024.00 765.76&#10;  Q 965.25 765.76 906.50 765.74&#10;  Q 888.96 765.73 882.76 766.28&#10;  Q 840.10 770.08 811.65 800.72&#10;  C 807.81 804.87 804.26 809.64 800.97 814.33&#10;  C 797.04 819.94 793.22 827.09 791.17 833.76&#10;  Q 787.06 847.21 786.24 856.52&#10;  Q 785.23 867.88 785.24 875.00&#10;  Q 785.28 911.28 785.29 944.50&#10;  Q 785.31 984.25 785.04 1024.00"/>
<path stroke="#91a792" vector-effect="non-scaling-stroke" d="&#10;  M 1024.00 770.00&#10;  Q 964.63 769.77 905.25 770.01&#10;  Q 893.59 770.06 885.23 770.73&#10;  C 858.99 772.84 836.39 783.16 817.11 801.94&#10;  C 813.43 805.52 810.40 810.29 807.28 814.51&#10;  Q 804.82 817.82 799.30 828.26&#10;  Q 791.31 843.37 790.16 861.50&#10;  Q 789.61 870.28 789.59 875.63&#10;  Q 789.45 933.21 789.32 979.76&#10;  C 789.28 994.51 789.62 1009.25 789.50 1024.00"/>
</g><path fill="#4d785a" d="&#10;  M 47.37 0.00&#10;  L 382.25 0.00&#10;  Q 385.98 10.04 389.55 20.03&#10;  Q 399.43 47.62 400.02 74.36&#10;  C 400.25 85.02 400.31 96.81 398.97 107.47&#10;  Q 393.39 151.56 368.52 187.85&#10;  Q 359.59 200.87 346.08 214.64&#10;  Q 338.98 221.87 330.99 227.97&#10;  Q 302.51 249.71 270.48 259.48&#10;  Q 205.68 279.26 144.64 253.59&#10;  Q 112.56 240.11 86.53 215.01&#10;  C 42.41 172.47 23.17 110.99 32.91 50.38&#10;  C 35.70 33.01 40.04 16.58 48.05 0.86&#10;  A 0.49 0.49 0.0 0 0 47.80 0.19&#10;  L 47.37 0.00&#10;  Z"/><path fill="#275344" d="&#10;  M 569.52 0.00&#10;  L 571.78 0.00&#10;  C 571.90 2.55 573.28 4.00 574.23 6.23&#10;  Q 574.31 6.40 574.13 6.48&#10;  L 574.13 6.49&#10;  Q 573.95 6.56 573.86 6.39&#10;  Q 572.03 2.97 569.52 0.00&#10;  Z"/><path fill="#275344" d="&#10;  M 592.32 0.00&#10;  L 595.88 0.00&#10;  C 594.61 0.31 593.44 0.44 592.36 1.27&#10;  Q 585.21 6.77 577.90 10.56&#10;  Q 577.41 10.82 577.74 11.29&#10;  Q 578.08 11.77 577.52 11.57&#10;  Q 577.30 11.48 577.23 11.27&#10;  A 0.43 0.42 63.7 0 0 576.59 11.05&#10;  L 561.95 20.75&#10;  Q 561.75 20.76 561.48 20.52&#10;  L 575.71 10.98&#10;  Q 576.17 10.66 576.24 10.11&#10;  Q 576.32 9.52 576.87 9.63&#10;  Q 577.44 9.74 577.96 9.50&#10;  Q 585.74 5.94 592.32 0.00&#10;  Z"/><path fill="#275344" d="&#10;  M 695.80 0.00&#10;  L 697.10 0.00&#10;  Q 696.40 11.32 692.87 22.10&#10;  Q 692.41 23.51 691.76 24.71&#10;  Q 691.09 25.96 690.62 27.22&#10;  A 0.31 0.30 -68.7 0 1 690.22 27.40&#10;  L 689.98 27.30&#10;  Q 689.94 27.29 689.95 27.24&#10;  Q 693.77 17.57 694.93 12.24&#10;  Q 695.85 8.01 695.80 0.00&#10;  Z"/><path fill="#fafae0" d="&#10;  M 748.28 0.00&#10;  L 750.93 0.00&#10;  Q 748.97 6.73 745.84 13.07&#10;  C 739.59 25.75 732.62 38.56 724.11 49.89&#10;  Q 710.41 68.15 696.27 81.02&#10;  Q 681.58 94.40 668.76 104.28&#10;  Q 653.12 116.34 639.14 128.64&#10;  Q 624.30 141.70 614.09 156.21&#10;  C 610.69 161.06 607.16 165.88 604.32 170.86&#10;  Q 593.14 190.40 591.29 212.64&#10;  Q 590.04 227.61 591.24 238.28&#10;  Q 594.13 264.17 605.17 288.61&#10;  Q 613.70 307.50 628.14 328.15&#10;  Q 633.68 336.07 640.65 344.02&#10;  Q 649.99 354.68 658.11 362.60&#10;  C 678.22 382.24 702.30 398.50 728.57 409.95&#10;  Q 737.71 413.94 744.74 416.48&#10;  Q 755.03 420.19 769.45 423.18&#10;  Q 783.00 426.51 795.01 427.74&#10;  Q 817.18 430.02 840.59 428.25&#10;  Q 853.39 427.65 861.50 426.08&#10;  Q 879.58 422.59 904.37 415.17&#10;  C 894.56 419.35 884.56 422.32 874.00 425.08&#10;  C 850.71 431.17 825.74 432.51 801.82 430.75&#10;  C 752.86 427.16 706.55 406.90 669.06 375.21&#10;  C 645.59 355.38 625.66 331.96 611.33 305.53&#10;  C 606.97 297.50 602.55 289.13 599.32 280.64&#10;  Q 593.81 266.18 591.75 256.64&#10;  Q 590.06 248.79 588.91 239.27&#10;  C 587.03 223.68 588.21 208.09 592.28 193.10&#10;  C 594.55 184.73 598.62 175.38 602.64 167.59&#10;  Q 604.52 163.92 606.85 160.59&#10;  C 619.59 142.30 635.90 126.84 653.61 112.86&#10;  C 677.38 94.09 700.35 76.57 718.19 52.28&#10;  C 722.77 46.04 727.66 39.95 731.77 33.48&#10;  Q 741.87 17.62 748.28 0.00&#10;  Z"/><path fill="#275344" d="&#10;  M 750.93 0.00&#10;  L 1024.00 0.00&#10;  L 1024.00 329.00&#10;  L 1023.79 328.62&#10;  Q 1023.50 328.08 1023.13 328.57&#10;  Q 1022.62 329.26 1022.07 329.88&#10;  Q 1017.29 335.30 1012.47 340.78&#10;  C 1003.86 350.57 993.83 359.93 984.37 367.83&#10;  Q 981.22 370.45 970.68 378.50&#10;  Q 963.16 384.23 956.54 388.57&#10;  Q 931.82 404.73 904.37 415.17&#10;  Q 879.58 422.59 861.50 426.08&#10;  Q 853.39 427.65 840.59 428.25&#10;  Q 826.52 427.93 812.75 427.83&#10;  Q 799.92 427.74 784.43 425.39&#10;  Q 784.34 425.38 777.42 423.94&#10;  Q 773.43 423.11 769.45 423.18&#10;  Q 755.03 420.19 744.74 416.48&#10;  Q 737.71 413.94 728.57 409.95&#10;  C 702.30 398.50 678.22 382.24 658.11 362.60&#10;  Q 649.99 354.68 640.65 344.02&#10;  Q 633.68 336.07 628.14 328.15&#10;  Q 613.70 307.50 605.17 288.61&#10;  Q 594.13 264.17 591.24 238.28&#10;  Q 590.04 227.61 591.29 212.64&#10;  Q 593.14 190.40 604.32 170.86&#10;  C 607.16 165.88 610.69 161.06 614.09 156.21&#10;  Q 624.30 141.70 639.14 128.64&#10;  Q 653.12 116.34 668.76 104.28&#10;  Q 681.58 94.40 696.27 81.02&#10;  Q 710.41 68.15 724.11 49.89&#10;  C 732.62 38.56 739.59 25.75 745.84 13.07&#10;  Q 748.97 6.73 750.93 0.00&#10;  Z&#10;  M 769.08 218.49&#10;  Q 774.17 225.17 781.07 231.20&#10;  Q 805.51 252.55 837.00 253.06&#10;  C 863.06 253.49 887.68 242.23 905.86 223.58&#10;  Q 908.87 220.49 912.36 216.30&#10;  Q 915.73 212.25 917.71 208.12&#10;  Q 921.31 200.64 923.57 194.89&#10;  Q 931.71 174.23 928.55 151.50&#10;  Q 925.90 132.40 916.99 117.95&#10;  Q 902.26 91.44 874.81 78.38&#10;  C 848.46 65.84 815.80 67.50 791.43 82.73&#10;  Q 770.20 96.00 759.11 116.51&#10;  Q 740.35 151.21 752.95 189.49&#10;  Q 758.17 205.32 769.08 218.49&#10;  Z"/><path fill="#275344" d="&#10;  M 672.94 48.24&#10;  Q 673.09 48.60 672.53 48.99&#10;  C 660.47 57.33 644.81 60.78 630.40 57.57&#10;  Q 622.84 55.89 617.30 53.06&#10;  Q 607.15 47.88 599.60 39.81&#10;  Q 588.93 28.43 578.41 12.68&#10;  Q 578.21 12.39 578.50 12.20&#10;  L 578.73 12.05&#10;  A 0.07 0.07 0.0 0 1 578.83 12.07&#10;  Q 589.32 28.08 599.76 39.23&#10;  Q 615.16 55.67 638.90 58.00&#10;  C 642.62 58.37 646.26 57.62 650.01 57.31&#10;  C 658.48 56.61 665.60 52.33 672.94 48.24&#10;  Z"/><path fill="#4d785a" d="&#10;  M 561.48 20.52&#10;  Q 561.75 20.76 561.95 20.75&#10;  L 544.07 32.34&#10;  Q 543.95 32.11 543.84 31.87&#10;  L 561.48 20.52&#10;  Z"/><path d="M 2.57 0 A 2.57 0.34 0 0 1 0 0.34 A 2.57 0.34 0 0 1 -2.57 0 A 2.57 0.34 0 0 1 0 -0.34 A 2.57 0.34 0 0 1 2.57 0 Z" fill="#275344" transform="translate(688.49,30.52) rotate(118.6)"/><path fill="#275344" d="&#10;  M 543.84 31.87&#10;  Q 543.95 32.11 544.07 32.34&#10;  Q 530.25 41.93 516.74 51.89&#10;  C 512.74 54.84 509.05 58.09 505.18 61.17&#10;  Q 505.16 61.19 505.14 61.18&#10;  L 504.88 61.02&#10;  Q 504.61 60.86 504.85 60.67&#10;  Q 514.48 52.63 517.03 50.81&#10;  Q 523.95 45.87 530.76 40.77&#10;  Q 534.94 37.65 543.84 31.87&#10;  Z"/><path fill="#275344" d="&#10;  M 672.94 48.24&#10;  Q 673.68 47.11 674.83 46.41&#10;  Q 675.36 46.08 675.11 46.65&#10;  Q 674.64 47.69 672.94 48.24&#10;  Z"/><path d="M 2 0 A 2 0.26 0 0 1 0 0.26 A 2 0.26 0 0 1 -2 0 A 2 0.26 0 0 1 0 -0.26 A 2 0.26 0 0 1 2 0 Z" fill="#275344" transform="translate(496.31,69.69) rotate(132.6)"/><path fill="#091c1a" d="&#10;  M 916.99 117.95&#10;  Q 931.54 147.98 924.44 180.00&#10;  Q 922.97 186.62 919.65 194.76&#10;  C 917.97 198.88 915.08 203.04 912.41 206.67&#10;  Q 907.57 213.23 901.93 220.20&#10;  Q 894.45 229.45 883.95 235.71&#10;  C 853.35 253.96 816.56 252.44 786.50 233.73&#10;  Q 778.36 228.66 769.08 218.49&#10;  Q 758.17 205.32 752.95 189.49&#10;  Q 740.35 151.21 759.11 116.51&#10;  Q 770.20 96.00 791.43 82.73&#10;  C 815.80 67.50 848.46 65.84 874.81 78.38&#10;  Q 902.26 91.44 916.99 117.95&#10;  Z"/><path d="M 4.39 0 A 4.39 0.31 0 0 1 0 0.31 A 4.39 0.31 0 0 1 -4.39 0 A 4.39 0.31 0 0 1 0 -0.31 A 4.39 0.31 0 0 1 4.39 0 Z" fill="#275344" transform="translate(490.19,76.36) rotate(129.8)"/><path fill="#275344" d="&#10;  M 462.53 135.46&#10;  Q 462.85 134.14 462.17 134.18&#10;  Q 462.84 127.02 464.84 120.04&#10;  Q 469.74 102.94 480.11 88.52&#10;  Q 480.11 88.51 480.12 88.52&#10;  L 480.36 88.69&#10;  Q 480.52 88.81 480.41 88.97&#10;  Q 465.35 109.80 462.53 135.46&#10;  Z"/><path fill="#fafae0" d="&#10;  M 916.99 117.95&#10;  Q 925.90 132.40 928.55 151.50&#10;  Q 931.71 174.23 923.57 194.89&#10;  Q 921.31 200.64 917.71 208.12&#10;  Q 915.73 212.25 912.36 216.30&#10;  Q 908.87 220.49 905.86 223.58&#10;  C 887.68 242.23 863.06 253.49 837.00 253.06&#10;  Q 805.51 252.55 781.07 231.20&#10;  Q 774.17 225.17 769.08 218.49&#10;  Q 778.36 228.66 786.50 233.73&#10;  C 816.56 252.44 853.35 253.96 883.95 235.71&#10;  Q 894.45 229.45 901.93 220.20&#10;  Q 907.57 213.23 912.41 206.67&#10;  C 915.08 203.04 917.97 198.88 919.65 194.76&#10;  Q 922.97 186.62 924.44 180.00&#10;  Q 931.54 147.98 916.99 117.95&#10;  Z"/><path fill="#4d785a" d="&#10;  M 462.17 134.18&#10;  Q 462.85 134.14 462.53 135.46&#10;  Q 461.12 155.07 468.15 173.50&#10;  Q 468.09 173.75 467.74 173.79&#10;  Q 462.05 158.83 461.53 143.25&#10;  Q 461.39 139.08 462.17 134.18&#10;  Z"/><path fill="#4d785a" d="&#10;  M 563.48 256.89&#10;  Q 567.60 258.80 570.49 262.01&#10;  L 563.48 256.89&#10;  Z"/><path fill="#4d785a" d="&#10;  M 570.49 262.01&#10;  Q 574.36 264.11 576.66 266.46&#10;  Q 577.76 267.58 576.47 266.69&#10;  Q 574.00 264.99 570.49 262.01&#10;  Z"/><path fill="#4d785a" d="&#10;  M 584.48 273.04&#10;  Q 586.48 273.69 587.36 275.25&#10;  Q 587.86 276.12 587.12 275.44&#10;  L 584.48 273.04&#10;  Z"/><path fill="#4d785a" d="&#10;  M 592.75 280.50&#10;  Q 590.63 278.98 588.37 276.42&#10;  Q 587.73 275.69 588.51 276.27&#10;  Q 590.77 277.95 592.75 280.50&#10;  Z"/><path fill="#275344" d="&#10;  M 592.75 280.50&#10;  Q 596.14 281.92 597.54 283.50&#10;  Q 600.96 287.33 596.68 284.50&#10;  Q 595.35 283.62 592.75 280.50&#10;  Z"/><path fill="#275344" d="&#10;  M 536.93 375.56&#10;  Q 538.21 401.01 526.08 423.88&#10;  C 511.14 452.06 479.74 470.84 447.58 471.16&#10;  Q 415.84 471.47 391.80 453.37&#10;  C 368.66 435.94 355.20 409.97 354.39 380.88&#10;  Q 353.08 333.80 390.68 304.86&#10;  C 408.22 291.36 432.40 285.66 453.81 287.32&#10;  Q 467.06 288.35 478.20 292.85&#10;  C 495.26 299.74 509.51 310.23 519.76 325.29&#10;  Q 527.23 336.27 531.11 346.45&#10;  Q 536.14 359.64 536.93 375.56&#10;  Z"/><path fill="#091c1a" d="&#10;  M 840.59 428.25&#10;  Q 817.18 430.02 795.01 427.74&#10;  Q 783.00 426.51 769.45 423.18&#10;  Q 773.43 423.11 777.42 423.94&#10;  Q 784.34 425.38 784.43 425.39&#10;  Q 799.92 427.74 812.75 427.83&#10;  Q 826.52 427.93 840.59 428.25&#10;  Z"/><path fill="#4d785a" d="M 1024 425.05 L 1024 481 C 1016.82 482.5266666666667 1009.7466666666667 484.37666666666667 1002.78 486.55 C 988.98 490.8566666666667 975.8166666666667 495.42333333333335 963.29 500.25 C 936.0766666666667 510.74333333333334 909.7633333333333 523.3633333333333 884.35 538.11 C 874.64 543.74 864.78 550.2 855.67 556.63 C 834.6433333333333 571.47 815.1966666666667 588.2333333333333 797.33 606.92 C 787.13 617.5799999999999 778.2333333333333 627.7433333333333 770.64 637.41 C 758.92 652.31 747.54 668.28 738.39 684.36 C 727.9033333333333 702.8133333333333 718.99 722.2233333333334 711.65 742.59 C 702.85 767.01 696.89 791.18 694.25 815.9 C 693.4233333333333 823.5799999999999 693.01 828.8633333333333 693.01 831.75 C 692.9166666666666 895.8366666666667 692.8933333333333 959.92 692.94 1024 L 541.06 1024 C 540.8666666666667 1020.4399999999999 540.5766666666667 1016.88 540.19 1013.32 C 536.25 976.87 536.56 939.66 540.14 903.5 C 541.46 890.2266666666667 543.89 873.9166666666667 547.43 854.57 C 550.13 839.85 554.0133333333333 823.4166666666666 559.08 805.27 C 566.6933333333334 778.0233333333333 576.12 752.5233333333333 587.36 728.77 C 590.4933333333333 722.1433333333333 594.3766666666667 714.6766666666667 599.01 706.37 C 599.2433333333333 705.9566666666667 610.6566666666666 686.12 615.85 677.34 C 627.3766666666667 657.86 640.8166666666666 638.9366666666667 656.17 620.57 C 673.2166666666667 600.1700000000001 691.3933333333333 581.5600000000001 710.7 564.74 C 720.6133333333333 556.1 732.0500000000001 546.76 745.01 536.72 C 750.1766666666666 532.72 755.6899999999999 528.76 761.55 524.84 C 776.99 514.5066666666667 791.38 505.59999999999997 804.72 498.12 C 831.1933333333333 483.28000000000003 860.0533333333333 470.07666666666665 891.3 458.51 C 932.0466666666666 443.43 973.9499999999999 432.53666666666663 1017.01 425.83 C 1019.3366666666667 425.47 1021.6666666666666 425.21000000000004 1024 425.05 Z"/><path fill="#fafae0" d="&#10;  M 218.70 461.58&#10;  Q 224.80 467.02 226.72 469.79&#10;  Q 236.65 484.07 234.58 500.55&#10;  C 232.07 520.52 214.49 536.31 194.40 536.76&#10;  C 169.88 537.31 151.69 518.75 151.62 494.43&#10;  Q 151.58 484.96 153.84 479.56&#10;  Q 160.31 464.06 176.73 456.61&#10;  Q 199.50 448.66 218.70 461.58&#10;  Z"/><path fill="#275344" d="M 176.73 456.61 C 165.78333333333333 461.57666666666665 158.15333333333334 469.2266666666667 153.84 479.56 C 152.33333333333334 483.15999999999997 151.59333333333333 488.1166666666667 151.62 494.43 C 151.69 518.75 169.88 537.31 194.4 536.76 C 214.49 536.31 232.07 520.52 234.58 500.55 C 235.96 489.56333333333333 233.34 479.31 226.72 469.79 C 225.44 467.9433333333333 222.76666666666668 465.20666666666665 218.7 461.58 C 220.81333333333333 461.25333333333333 222.33 461.2133333333333 223.25 461.46 C 255.06333333333336 469.99333333333334 285.25666666666666 482.24 313.83 498.2 C 356.86333333333334 522.2333333333333 394.39 552.0533333333333 426.41 587.66 C 435.13 597.36 443.43333333333334 607.2066666666667 451.32 617.2 C 454.9533333333333 621.8066666666667 458.53 626.7733333333333 462.05 632.1 C 466.62 639.04 471.36 645.86 475.62 652.88 C 485.49333333333334 669.1466666666666 494.1666666666667 685.8766666666667 501.64 703.07 C 502.97 706.12 504.01 709.15 505.49 712.15 C 505.63666666666666 712.45 506.33333333333337 715.3033333333333 506.56 715.89 C 513.51 734.16 519.18 752.59 522.42 771.17 C 523.47 777.23 524.86 783.32 525.72 789.32 C 530.9933333333333 826.4733333333334 530.3966666666666 863.48 523.93 900.34 C 522.93 906.02 521.4866666666667 912.5633333333334 519.6 919.97 C 516.6800000000001 931.43 514.4633333333334 939.4933333333333 512.95 944.16 C 510.25 952.48 507.46666666666664 960.1766666666666 504.6 967.25 C 503.41333333333336 970.1766666666666 502.08666666666664 973.05 500.62 975.87 C 500.46 976.1766666666667 500.24333333333334 976.4266666666667 499.97 976.62 C 499.7326596186044 976.784463206032 499.40597604320374 976.6789192813663 499.32 976.41 C 498.08 972.65 497.25 968.94 495.99 965.21 C 490.33 948.57 483.00333333333333 931.66 474.01 914.48 C 457.41 882.7666666666667 436.94666666666666 853.6766666666666 412.62 827.21 C 407.66 821.8166666666667 403.0266666666667 817.07 398.72 812.97 C 364.8 780.7033333333334 326.3566666666666 756.5500000000001 283.39 740.51 C 277.34999999999997 738.2566666666667 270.89666666666665 736.1633333333333 264.03 734.23 C 224.57 723.12 182.56 719.24 142.07 724.5 C 90.49666666666667 731.1866666666666 43.13999999999999 748.79 0 777.31 L 0 480.36 C 16.66 474.24666666666667 33.49333333333333 469.10333333333335 50.5 464.93 C 67.45333333333333 460.77666666666664 84.62 457.8333333333333 102 456.1 C 123.94666666666666 453.9066666666667 147.53 453.65 172.75 455.33 C 174.65666666666667 455.4633333333333 175.98333333333335 455.89 176.73 456.61 Z"/><path fill="#fafae0" d="&#10;  M 1024.00 481.00&#10;  L 1024.00 482.50&#10;  Q 972.20 496.90 923.55 519.80&#10;  C 891.01 535.13 860.32 553.65 833.55 576.03&#10;  Q 800.66 603.53 773.51 636.88&#10;  Q 767.97 643.68 762.41 651.34&#10;  Q 756.59 659.36 751.73 666.70&#10;  Q 720.63 713.67 705.10 769.27&#10;  Q 696.80 799.01 695.21 828.32&#10;  Q 694.84 835.26 694.83 843.00&#10;  Q 694.69 933.50 694.73 1024.00&#10;  L 692.94 1024.00&#10;  Q 692.87 927.88 693.01 831.75&#10;  Q 693.01 827.42 694.25 815.90&#10;  C 696.89 791.18 702.85 767.01 711.65 742.59&#10;  Q 722.66 712.04 738.39 684.36&#10;  C 747.54 668.28 758.92 652.31 770.64 637.41&#10;  Q 782.03 622.91 797.33 606.92&#10;  Q 824.13 578.89 855.67 556.63&#10;  C 864.78 550.20 874.64 543.74 884.35 538.11&#10;  Q 922.47 515.99 963.29 500.25&#10;  Q 982.08 493.01 1002.78 486.55&#10;  Q 1013.23 483.29 1024.00 481.00&#10;  Z"/><path fill="#275344" d="&#10;  M 1024.00 482.50&#10;  L 1024.00 608.25&#10;  Q 1016.84 604.60 1009.99 602.47&#10;  Q 998.36 598.85 985.58 596.96&#10;  Q 969.46 594.57 955.03 594.40&#10;  Q 933.07 594.15 911.19 599.05&#10;  Q 890.39 603.70 867.73 614.46&#10;  C 842.01 626.66 818.40 645.89 799.66 666.82&#10;  C 780.25 688.49 764.16 712.77 752.26 739.29&#10;  Q 748.14 748.47 744.92 758.05&#10;  Q 735.98 784.69 732.40 805.19&#10;  Q 726.02 841.68 729.29 880.49&#10;  Q 730.00 888.98 731.22 897.98&#10;  Q 733.16 912.24 737.05 927.25&#10;  Q 750.28 978.28 778.23 1022.36&#10;  C 778.60 1022.94 779.22 1023.40 779.50 1024.00&#10;  L 694.73 1024.00&#10;  Q 694.69 933.50 694.83 843.00&#10;  Q 694.84 835.26 695.21 828.32&#10;  Q 696.80 799.01 705.10 769.27&#10;  Q 720.63 713.67 751.73 666.70&#10;  Q 756.59 659.36 762.41 651.34&#10;  Q 767.97 643.68 773.51 636.88&#10;  Q 800.66 603.53 833.55 576.03&#10;  C 860.32 553.65 891.01 535.13 923.55 519.80&#10;  Q 972.20 496.90 1024.00 482.50&#10;  Z"/><path fill="#fafae0" d="&#10;  M 1024.00 608.25&#10;  L 1024.00 608.91&#10;  C 1018.04 606.68 1012.23 604.36 1006.07 602.69&#10;  Q 977.66 595.00 946.24 595.79&#10;  Q 927.95 596.26 910.69 600.48&#10;  Q 860.94 612.65 822.89 645.85&#10;  Q 796.74 668.67 777.20 697.39&#10;  Q 763.30 717.82 754.43 737.39&#10;  Q 743.54 761.43 736.11 793.61&#10;  Q 733.98 802.80 732.60 812.60&#10;  Q 725.74 861.17 734.34 909.21&#10;  Q 737.81 928.62 744.52 948.49&#10;  C 753.39 974.76 764.63 999.38 779.70 1022.51&#10;  Q 780.12 1023.16 779.93 1024.00&#10;  L 779.50 1024.00&#10;  C 779.22 1023.40 778.60 1022.94 778.23 1022.36&#10;  Q 750.28 978.28 737.05 927.25&#10;  Q 733.16 912.24 731.22 897.98&#10;  Q 730.00 888.98 729.29 880.49&#10;  Q 726.02 841.68 732.40 805.19&#10;  Q 735.98 784.69 744.92 758.05&#10;  Q 748.14 748.47 752.26 739.29&#10;  C 764.16 712.77 780.25 688.49 799.66 666.82&#10;  C 818.40 645.89 842.01 626.66 867.73 614.46&#10;  Q 890.39 603.70 911.19 599.05&#10;  Q 933.07 594.15 955.03 594.40&#10;  Q 969.46 594.57 985.58 596.96&#10;  Q 998.36 598.85 1009.99 602.47&#10;  Q 1016.84 604.60 1024.00 608.25&#10;  Z"/><path fill="#275344" d="&#10;  M 1024.00 608.91&#10;  L 1024.00 765.76&#10;  Q 965.25 765.76 906.50 765.74&#10;  Q 888.96 765.73 882.76 766.28&#10;  Q 840.10 770.08 811.65 800.72&#10;  C 807.81 804.87 804.26 809.64 800.97 814.33&#10;  C 797.04 819.94 793.22 827.09 791.17 833.76&#10;  Q 787.06 847.21 786.24 856.52&#10;  Q 785.23 867.88 785.24 875.00&#10;  Q 785.28 911.28 785.29 944.50&#10;  Q 785.31 984.25 785.04 1024.00&#10;  L 779.93 1024.00&#10;  Q 780.12 1023.16 779.70 1022.51&#10;  C 764.63 999.38 753.39 974.76 744.52 948.49&#10;  Q 737.81 928.62 734.34 909.21&#10;  Q 725.74 861.17 732.60 812.60&#10;  Q 733.98 802.80 736.11 793.61&#10;  Q 743.54 761.43 754.43 737.39&#10;  Q 763.30 717.82 777.20 697.39&#10;  Q 796.74 668.67 822.89 645.85&#10;  Q 860.94 612.65 910.69 600.48&#10;  Q 927.95 596.26 946.24 595.79&#10;  Q 977.66 595.00 1006.07 602.69&#10;  C 1012.23 604.36 1018.04 606.68 1024.00 608.91&#10;  Z"/><path fill="#fafae0" d="&#10;  M 1024.00 765.76&#10;  L 1024.00 770.00&#10;  Q 964.63 769.77 905.25 770.01&#10;  Q 893.59 770.06 885.23 770.73&#10;  C 858.99 772.84 836.39 783.16 817.11 801.94&#10;  C 813.43 805.52 810.40 810.29 807.28 814.51&#10;  Q 804.82 817.82 799.30 828.26&#10;  Q 791.31 843.37 790.16 861.50&#10;  Q 789.61 870.28 789.59 875.63&#10;  Q 789.45 933.21 789.32 979.76&#10;  C 789.28 994.51 789.62 1009.25 789.50 1024.00&#10;  L 785.04 1024.00&#10;  Q 785.31 984.25 785.29 944.50&#10;  Q 785.28 911.28 785.24 875.00&#10;  Q 785.23 867.88 786.24 856.52&#10;  Q 787.06 847.21 791.17 833.76&#10;  C 793.22 827.09 797.04 819.94 800.97 814.33&#10;  C 804.26 809.64 807.81 804.87 811.65 800.72&#10;  Q 840.10 770.08 882.76 766.28&#10;  Q 888.96 765.73 906.50 765.74&#10;  Q 965.25 765.76 1024.00 765.76&#10;  Z"/><path fill="#fafae0" d="&#10;  M 133.31 1024.00&#10;  L 130.95 1024.00&#10;  Q 130.95 928.88 130.98 833.75&#10;  Q 130.99 816.73 131.37 813.77&#10;  Q 132.78 803.06 138.95 793.62&#10;  Q 156.73 766.40 188.73 768.87&#10;  Q 199.38 769.69 208.02 774.47&#10;  C 224.43 783.55 236.16 800.24 236.67 818.94&#10;  Q 237.18 837.66 236.84 859.96&#10;  Q 236.77 864.74 237.04 870.19&#10;  C 238.05 890.42 253.59 910.01 273.18 916.13&#10;  C 288.96 921.06 306.72 919.26 320.32 909.80&#10;  C 332.25 901.50 340.86 890.13 343.45 875.79&#10;  C 344.41 870.49 344.73 864.71 344.78 859.25&#10;  Q 344.96 839.38 344.72 820.00&#10;  Q 344.71 819.44 345.27 819.47&#10;  L 347.28 819.56&#10;  Q 347.87 819.59 347.88 820.19&#10;  Q 348.25 844.02 347.69 866.81&#10;  Q 347.23 885.62 335.57 899.96&#10;  C 320.95 917.95 297.95 926.18 275.64 920.10&#10;  C 251.74 913.59 234.19 892.26 234.05 867.29&#10;  Q 233.93 846.09 233.90 822.24&#10;  Q 233.88 799.93 217.35 784.71&#10;  Q 202.57 771.10 181.83 771.76&#10;  Q 169.98 772.13 161.11 776.89&#10;  C 148.68 783.55 138.97 795.48 135.28 809.37&#10;  Q 133.96 814.34 133.77 824.72&#10;  Q 133.61 833.26 133.60 840.69&#10;  Q 133.49 930.71 133.76 1012.75&#10;  Q 133.78 1018.44 133.31 1024.00&#10;  Z"/><path fill="#275344" d="&#10;  M 1024.00 770.00&#10;  L 1024.00 1024.00&#10;  L 789.50 1024.00&#10;  C 789.62 1009.25 789.28 994.51 789.32 979.76&#10;  Q 789.45 933.21 789.59 875.63&#10;  Q 789.61 870.28 790.16 861.50&#10;  Q 791.31 843.37 799.30 828.26&#10;  Q 804.82 817.82 807.28 814.51&#10;  C 810.40 810.29 813.43 805.52 817.11 801.94&#10;  C 836.39 783.16 858.99 772.84 885.23 770.73&#10;  Q 893.59 770.06 905.25 770.01&#10;  Q 964.63 769.77 1024.00 770.00&#10;  Z"/><path style="fill: rgb(39, 83, 68); fill-opacity: 1; stroke: rgb(0, 0, 0); stroke-opacity: 1; stroke-width: 0; paint-order: fill;" d="M 537.8804931640625 692.8116455078125 L 550.5098266601562 704.75830078125"/><path style="fill: rgb(77, 120, 90); fill-opacity: 1; stroke: rgb(0, 0, 0); stroke-opacity: 1; stroke-width: 0; paint-order: fill;" d="M 559.0431518554688 690.763671875 L 559.0431518554688 690.763671875"/><path style="fill: rgb(9, 28, 26); fill-opacity: 1; stroke: rgb(0, 0, 0); stroke-opacity: 1; stroke-width: 0; paint-order: fill;" d="M 508.52581787109375 714.656982421875"/><path fill="#091c1a" d="M 0 0 L 47.37 0 L 47.8 0.19 C 48.06126117099545 0.2991544189500343 48.17589868203756 0.6063829490995328 48.05 0.8600000000000046 C 40.04 16.58 35.7 33.01 32.91 50.38 C 23.17 110.99 42.41 172.47 86.53 215.01 C 103.88333333333334 231.74333333333334 123.25333333333333 244.60333333333335 144.64 253.59 C 185.33333333333334 270.7033333333333 227.28 272.6666666666667 270.48 259.48 C 291.8333333333333 252.96666666666667 312.00333333333333 242.46333333333334 330.99 227.97 C 336.31666666666666 223.90333333333334 341.3466666666667 219.46 346.08 214.64 C 355.08666666666664 205.46 362.56666666666666 196.53 368.52 187.85 C 385.09999999999997 163.65666666666667 395.25 136.86333333333334 398.97 107.47 C 400.31 96.81 400.25 85.02 400.02 74.36 C 399.62666666666667 56.53333333333333 396.13666666666666 38.42333333333333 389.55 20.03 C 387.17 13.370000000000001 384.7366666666667 6.6933333333333325 382.25 0 L 748.28 0 C 744.0066666666667 11.746666666666668 738.5033333333333 22.906666666666666 731.77 33.48 C 727.66 39.95 722.77 46.04 718.19 52.28 C 700.35 76.57 677.38 94.09 653.61 112.86 C 635.9 126.84 619.59 142.3 606.85 160.59 C 605.2966666666666 162.81 603.8933333333333 165.14333333333332 602.64 167.59 C 598.62 175.38 594.55 184.73 592.28 193.1 C 588.21 208.09 587.03 223.68 588.91 239.27 C 589.6766666666666 245.61666666666667 590.6233333333333 251.40666666666667 591.75 256.64 C 593.1233333333333 263 595.6466666666666 271 599.32 280.64 C 602.55 289.13 606.97 297.5 611.33 305.53 C 625.66 331.96 645.59 355.38 669.06 375.21 C 706.55 406.9 752.86 427.16 801.82 430.75 C 825.74 432.51 850.71 431.17 874 425.08 C 884.56 422.32 894.56 419.35 904.37 415.17 C 922.6700000000001 408.21000000000004 940.0600000000001 399.34333333333336 956.54 388.57 C 960.9533333333333 385.6766666666667 965.6666666666666 382.32 970.68 378.5 C 977.7066666666667 373.1333333333333 982.27 369.57666666666665 984.37 367.83 C 993.83 359.93 1003.86 350.57 1012.47 340.78 C 1015.6833333333333 337.12666666666667 1018.8833333333333 333.49333333333334 1022.07 329.88 C 1022.4366666666667 329.46666666666664 1022.79 329.03 1023.13 328.57 C 1023.3766666666667 328.24333333333334 1023.5966666666667 328.26 1023.79 328.62 L 1024 329 L 1024 425.05 C 1021.6666666666666 425.21000000000004 1019.3366666666667 425.47 1017.01 425.83 C 973.9499999999999 432.53666666666663 932.0466666666666 443.43 891.3 458.51 C 860.0533333333333 470.07666666666665 831.1933333333333 483.28000000000003 804.72 498.12 C 791.38 505.59999999999997 776.99 514.5066666666667 761.55 524.84 C 755.6899999999999 528.76 750.1766666666666 532.72 745.01 536.72 C 732.0500000000001 546.76 720.6133333333333 556.1 710.7 564.74 C 691.3933333333333 581.5600000000001 673.2166666666667 600.1700000000001 656.17 620.57 C 640.8166666666666 638.9366666666667 627.3766666666667 657.86 615.85 677.34 C 610.6566666666666 686.12 590.4933333333333 722.1433333333333 587.36 728.77 C 576.12 752.5233333333333 566.6933333333334 778.0233333333333 559.08 805.27 C 554.0133333333333 823.4166666666666 550.13 839.85 547.43 854.57 C 543.89 873.9166666666667 541.46 890.2266666666667 540.14 903.5 C 536.56 939.66 536.25 976.87 540.19 1013.32 C 540.5766666666667 1016.88 540.8666666666667 1020.4399999999999 541.06 1024 L 133.31 1024 C 133.62333333333333 1020.2933333333334 133.77333333333334 1016.5433333333334 133.76 1012.75 C 133.58 958.0566666666667 133.52666666666667 900.7033333333334 133.6 840.69 C 133.60666666666668 835.7366666666667 133.66333333333336 830.4133333333333 133.77 824.72 C 133.89666666666668 817.8000000000001 134.4 812.6833333333334 135.28 809.37 C 138.97 795.48 148.68 783.55 161.11 776.89 C 167.02333333333334 773.7166666666667 173.93 772.0066666666667 181.83 771.76 C 195.65666666666667 771.32 207.49666666666667 775.6366666666667 217.35 784.71 C 228.37 794.8566666666667 233.88666666666666 807.3666666666667 233.9 822.24 C 233.92000000000002 838.14 233.97 853.1566666666666 234.05 867.29 C 234.19 892.26 251.74 913.59 275.64 920.1 C 297.95 926.18 320.95 917.95 335.57 899.96 C 343.34333333333336 890.4 347.3833333333333 879.35 347.69 866.81 C 348.06333333333333 851.6166666666667 348.12666666666667 836.0766666666667 347.88 820.19 C 347.87333333333333 819.7900000000001 347.67333333333335 819.58 347.28 819.56 L 345.27 819.47 C 344.89666666666665 819.45 344.7133333333333 819.6266666666667 344.72 820 C 344.88 832.92 344.9 846.0033333333333 344.78 859.25 C 344.73 864.71 344.41 870.49 343.45 875.79 C 340.86 890.13 332.25 901.5 320.32 909.8 C 306.72 919.26 288.96 921.06 273.18 916.13 C 253.59 910.01 238.05 890.42 237.04 870.19 C 236.86 866.5566666666667 236.79333333333335 863.1466666666666 236.84 859.96 C 237.06666666666666 845.0933333333334 237.01 831.42 236.67 818.94 C 236.16 800.24 224.43 783.55 208.02 774.47 C 202.26 771.2833333333334 195.82999999999998 769.4166666666667 188.73 768.87 C 167.39666666666665 767.2233333333334 150.8033333333333 775.4733333333334 138.95 793.62 C 134.83666666666667 799.9133333333333 132.31 806.63 131.37 813.77 C 131.11666666666667 815.7433333333333 130.98666666666668 822.4033333333333 130.98 833.75 C 130.95999999999998 897.17 130.95 960.5866666666667 130.95 1024 L 0 1024 L 0 777.31 C 43.13999999999999 748.79 90.49666666666667 731.1866666666666 142.07 724.5 C 182.56 719.24 224.57 723.12 264.03 734.23 C 270.89666666666665 736.1633333333333 277.34999999999997 738.2566666666667 283.39 740.51 C 326.3566666666666 756.5500000000001 364.8 780.7033333333334 398.72 812.97 C 403.0266666666667 817.07 407.66 821.8166666666667 412.62 827.21 C 436.94666666666666 853.6766666666666 457.41 882.7666666666667 474.01 914.48 C 483.00333333333333 931.66 490.33 948.57 495.99 965.21 C 497.25 968.94 498.08 972.65 499.32 976.41 C 499.40597604320374 976.6789192813663 499.7326596186044 976.784463206032 499.97000000000014 976.6200000000001 C 500.24333333333334 976.4266666666667 500.46 976.1766666666667 500.62 975.87 C 502.08666666666664 973.05 503.41333333333336 970.1766666666666 504.6 967.25 C 507.46666666666664 960.1766666666666 510.25 952.48 512.95 944.16 C 514.4633333333334 939.4933333333333 516.6800000000001 931.43 519.6 919.97 C 521.4866666666667 912.5633333333334 522.93 906.02 523.93 900.34 C 530.3966666666666 863.48 530.9933333333333 826.4733333333334 525.72 789.32 C 524.86 783.32 523.47 777.23 522.42 771.17 C 519.18 752.59 506.00333333333333 714.7833333333333 505.57 714.33 C 505.31 714.0566666666666 502.97 706.12 501.64 703.07 C 494.1666666666667 685.8766666666667 485.49333333333334 669.1466666666666 475.62 652.88 C 471.36 645.86 466.62 639.04 462.05 632.1 C 458.53 626.7733333333333 454.9533333333333 621.8066666666667 451.32 617.2 C 443.43333333333334 607.2066666666667 435.13 597.36 426.41 587.66 C 394.39 552.0533333333333 356.86333333333334 522.2333333333333 313.83 498.2 C 285.25666666666666 482.24 255.06333333333336 469.99333333333334 223.25 461.46 C 222.33 461.2133333333333 220.81333333333333 461.25333333333333 218.7 461.58 C 205.9 452.9666666666667 191.91 451.31 176.73 456.61 C 175.98333333333335 455.89 174.65666666666667 455.4633333333333 172.75 455.33 C 147.53 453.65 123.94666666666666 453.9066666666667 102 456.1 C 84.62 457.8333333333333 67.45333333333333 460.77666666666664 50.5 464.93 C 33.49333333333333 469.10333333333335 16.66 474.24666666666667 0 480.36 L 0 0 Z M 536.93 375.56 C 536.4033333333333 364.94666666666666 534.4633333333334 355.24333333333334 531.11 346.45 C 528.5233333333333 339.6633333333333 524.74 332.61 519.76 325.29 C 509.51 310.23 495.26 299.74 478.2 292.85 C 470.7733333333333 289.85 462.6433333333333 288.00666666666666 453.81 287.32 C 432.4 285.66 408.22 291.36 390.68 304.86 C 365.61333333333334 324.15333333333336 353.51666666666665 349.49333333333334 354.39 380.88 C 355.2 409.97 368.66 435.94 391.8 453.37 C 407.82666666666665 465.43666666666667 426.41999999999996 471.3666666666667 447.58 471.16 C 479.74 470.84 511.14 452.06 526.08 423.88 C 534.1666666666667 408.6333333333333 537.7833333333333 392.52666666666664 536.93 375.56 Z" transform="matrix(1, 0, 0, 1, 0, -1.0240001250001)"/></g></svg>