<?xml version="1.0" encoding="utf-8"?>
<svg id="master-artboard" xmlns="http://www.w3.org/2000/svg" viewBox="0 0 500 500" width="500px" height="500px"><g transform="matrix(0.34530384632763944, 0, 0, 0.34530384632763944, 0.000004458737265622403, 0.00001525878903407829)"><g stroke-width="2.00" fill="none" stroke-linecap="butt">
<path stroke="#4e755b" vector-effect="non-scaling-stroke" d="&#10;  M 68.35 0.00&#10;  Q 56.63 24.19 50.28 52.26&#10;  Q 44.14 79.36 43.30 105.92&#10;  C 41.22 171.96 62.74 236.43 105.74 286.36&#10;  C 150.30 338.11 213.05 371.64 281.05 378.08&#10;  Q 301.76 380.05 321.72 378.50&#10;  Q 402.00 372.29 466.14 323.96&#10;  C 480.37 313.25 492.67 301.13 504.39 287.43&#10;  Q 551.43 232.44 563.05 160.47&#10;  C 565.09 147.84 565.88 134.82 565.88 122.20&#10;  Q 565.89 106.20 565.45 98.45&#10;  Q 563.51 64.40 552.14 31.91&#10;  Q 546.54 15.90 540.55 0.00"/>
<path stroke="#28452e" vector-effect="non-scaling-stroke" d="&#10;  M 805.78 0.00&#10;  Q 807.28 1.19 808.14 3.13&#10;  Q 808.23 3.34 808.39 3.39&#10;  Q 808.67 3.47 808.58 3.19&#10;  Q 807.87 1.11 808.43 0.00"/>
<path stroke="#28452e" vector-effect="non-scaling-stroke" d="&#10;  M 835.85 0.00&#10;  Q 838.39 0.57 840.87 0.00"/>
<path stroke="#28452e" vector-effect="non-scaling-stroke" d="&#10;  M 984.07 0.00&#10;  Q 984.49 3.70 984.31 7.42&#10;  Q 984.30 7.56 984.44 7.57&#10;  L 984.44 7.57&#10;  Q 984.58 7.58 984.59 7.45&#10;  Q 985.00 3.73 985.37 0.00"/>
<path stroke="#7e8e87" vector-effect="non-scaling-stroke" d="&#10;  M 1058.00 0.00&#10;  C 1049.58 22.91 1037.88 44.39 1023.03 63.75&#10;  Q 1018.02 70.27 1013.10 76.86&#10;  C 988.53 109.72 954.70 135.42 921.73 161.41&#10;  C 900.21 178.38 881.35 196.58 864.28 218.34&#10;  Q 853.48 232.09 845.48 250.52&#10;  Q 834.96 274.71 832.39 298.41&#10;  C 829.07 329.02 834.10 361.05 844.85 390.46&#10;  C 852.61 411.71 863.26 431.89 875.82 451.78&#10;  C 888.15 471.30 902.89 489.25 919.16 505.90&#10;  Q 959.40 547.10 1008.16 572.78&#10;  Q 1084.13 612.81 1170.87 610.10&#10;  Q 1226.04 608.37 1274.85 588.64"/>
<path stroke="#28452e" vector-effect="non-scaling-stroke" d="&#10;  M 1274.85 588.64&#10;  Q 1317.33 572.83 1354.93 547.84&#10;  C 1366.59 540.08 1378.82 530.59 1389.25 522.23&#10;  C 1404.26 510.23 1418.34 496.65 1431.46 482.10&#10;  Q 1439.24 473.47 1446.99 464.72&#10;  Q 1447.45 464.20 1448.00 465.11"/>
<path stroke="#4e755b" vector-effect="non-scaling-stroke" d="&#10;  M 1448.00 600.99&#10;  Q 1436.87 602.15 1422.25 604.73&#10;  Q 1302.08 625.89 1192.80 676.32&#10;  Q 1129.41 705.57 1068.62 747.84&#10;  Q 1060.45 753.52 1052.41 759.72&#10;  Q 1022.00 783.16 998.29 804.43&#10;  Q 940.20 856.51 895.87 919.05&#10;  C 878.54 943.50 863.60 969.56 848.97 995.23&#10;  C 848.35 996.33 847.20 996.68 846.01 996.54&#10;  Q 842.85 996.18 840.05 996.49&#10;  Q 838.47 996.66 840.05 996.90&#10;  L 846.43 997.89&#10;  A 0.70 0.70 0.0 0 1 846.94 998.92&#10;  C 824.93 1038.19 808.13 1079.95 795.29 1122.33&#10;  Q 775.58 1187.36 766.54 1254.79&#10;  Q 755.93 1333.98 762.06 1414.01&#10;  Q 762.23 1416.14 763.69 1430.98&#10;  Q 764.53 1439.48 765.00 1448.00"/>
<path stroke="#7e8e87" vector-effect="non-scaling-stroke" d="&#10;  M 188.52 1448.00&#10;  Q 189.35 1441.18 189.33 1434.25&#10;  Q 189.06 1320.27 189.08 1189.25&#10;  Q 189.09 1175.40 189.58 1160.68&#10;  Q 189.90 1151.15 191.33 1145.52&#10;  Q 197.76 1120.16 220.52 1103.37&#10;  C 234.05 1093.39 250.44 1090.16 267.03 1091.66&#10;  C 297.91 1094.46 323.99 1118.83 329.54 1149.32&#10;  Q 330.88 1156.68 330.82 1167.41&#10;  Q 330.65 1200.26 330.89 1225.56&#10;  Q 331.15 1253.60 348.50 1274.54&#10;  C 366.49 1296.25 395.10 1307.64 423.16 1302.95&#10;  C 460.47 1296.70 490.27 1265.83 491.66 1227.47&#10;  Q 492.62 1200.86 492.12 1159.51&#10;  A 0.75 0.74 -89.2 0 0 491.41 1158.77&#10;  L 488.08 1158.59&#10;  Q 487.40 1158.56 487.40 1159.24&#10;  Q 487.61 1187.78 487.49 1215.53&#10;  Q 487.45 1223.74 486.49 1232.42&#10;  C 483.74 1257.35 468.50 1277.52 447.12 1289.81&#10;  C 431.43 1298.83 411.65 1301.00 393.93 1297.20&#10;  C 370.30 1292.12 351.47 1276.07 341.43 1254.38&#10;  Q 336.17 1242.99 335.55 1232.10&#10;  Q 334.87 1220.06 335.15 1203.73&#10;  Q 335.41 1187.92 335.04 1165.10&#10;  Q 334.84 1152.75 333.53 1146.41&#10;  C 328.98 1124.43 314.30 1106.18 294.81 1095.21&#10;  C 284.80 1089.58 273.97 1087.15 262.37 1086.81&#10;  Q 235.42 1086.02 215.85 1100.67&#10;  C 201.35 1111.52 189.65 1129.02 186.29 1146.88&#10;  C 185.14 1152.97 185.24 1159.48 185.24 1165.75&#10;  Q 185.15 1306.88 185.16 1448.00"/>
<path stroke="#28452e" vector-effect="non-scaling-stroke" d="&#10;  M 0.00 1099.19&#10;  Q 90.74 1039.05 199.26 1024.68&#10;  Q 249.62 1018.01 300.51 1023.86&#10;  C 344.76 1028.95 387.92 1040.05 428.68 1058.45&#10;  Q 515.63 1097.72 579.76 1165.75&#10;  Q 648.64 1238.82 689.21 1332.88&#10;  C 695.29 1346.98 701.39 1362.75 705.05 1377.83&#10;  Q 705.35 1379.06 705.91 1380.17&#10;  A 1.05 1.05 0.0 0 0 707.65 1380.37&#10;  Q 708.75 1379.05 709.44 1377.46&#10;  Q 719.01 1355.38 725.88 1332.99&#10;  Q 731.41 1314.97 736.97 1291.63&#10;  Q 739.27 1281.96 741.00 1271.98&#10;  Q 753.76 1198.46 744.37 1123.63&#10;  Q 743.20 1114.32 741.38 1104.41&#10;  Q 737.95 1085.72 734.95 1072.50&#10;  Q 727.82 1041.10 715.29 1009.66&#10;  Q 715.10 1009.18 715.34 1008.73&#10;  Q 715.47 1008.49 715.49 1008.22&#10;  Q 715.51 1007.78 715.26 1007.33&#10;  Q 713.73 1004.46 710.81 997.51&#10;  Q 694.35 958.42 670.44 920.02&#10;  Q 653.84 893.35 643.64 879.97&#10;  Q 608.30 833.63 570.89 797.93&#10;  Q 505.94 735.96 424.71 694.36&#10;  Q 373.32 668.04 315.80 652.44&#10;  Q 313.29 651.76 309.94 652.96"/>
<path stroke="#7e8e87" vector-effect="non-scaling-stroke" d="&#10;  M 309.94 652.96&#10;  Q 282.29 634.16 249.94 645.60"/>
<path stroke="#28452e" vector-effect="non-scaling-stroke" d="&#10;  M 249.94 645.60&#10;  Q 246.38 643.53 240.99 643.35&#10;  Q 208.57 642.31 188.25 642.60&#10;  Q 135.64 643.34 84.25 654.53&#10;  Q 44.73 663.13 0.00 679.14"/>
<path stroke="#28452e" vector-effect="non-scaling-stroke" d="&#10;  M 537.34 444.63&#10;  C 510.06 472.16 498.60 507.32 501.76 546.20&#10;  C 504.74 582.89 522.57 616.08 551.54 638.96&#10;  Q 583.43 664.14 624.33 665.89&#10;  Q 673.70 667.99 712.88 636.58&#10;  C 743.35 612.17 760.26 573.56 759.22 534.33&#10;  Q 758.82 518.94 755.36 504.41&#10;  Q 751.58 488.55 742.63 472.63&#10;  Q 737.63 463.74 731.58 455.59&#10;  C 717.62 436.77 698.06 423.15 676.13 414.28&#10;  C 644.88 401.64 606.91 404.26 576.31 417.40&#10;  C 561.65 423.69 548.61 433.25 537.34 444.63"/>
<path stroke="#28452e" vector-effect="non-scaling-stroke" d="&#10;  M 724.00 1006.15&#10;  L 720.05 1006.78&#10;  A 0.11 0.10 82.5 0 0 719.96 1006.91&#10;  L 720.02 1007.19&#10;  Q 720.08 1007.49 720.37 1007.42&#10;  Q 722.26 1006.99 724.06 1006.60&#10;  Q 724.24 1006.56 724.21 1006.38&#10;  L 724.16 1006.13&#10;  Q 724.16 1006.12 724.00 1006.15"/>
<path stroke="#88b59d" vector-effect="non-scaling-stroke" d="&#10;  M 1061.64 0.00&#10;  Q 1059.66 7.73 1056.26 15.00&#10;  Q 1047.84 33.02 1037.72 49.96&#10;  C 1022.90 74.77 1003.56 97.39 982.21 116.70&#10;  Q 961.89 135.07 950.34 143.96&#10;  Q 929.49 160.00 911.08 175.68&#10;  C 893.56 190.60 879.18 205.47 865.78 224.44&#10;  Q 859.01 234.03 854.45 241.88&#10;  Q 841.39 264.34 837.40 290.99&#10;  C 835.18 305.83 834.48 322.15 836.10 337.05&#10;  Q 840.97 381.79 863.47 423.75&#10;  Q 880.48 455.49 900.05 479.30&#10;  Q 920.62 504.35 942.00 523.25&#10;  Q 992.04 567.49 1056.01 589.99&#10;  Q 1071.82 595.55 1092.84 599.45"/>
<path stroke="#7e8e87" vector-effect="non-scaling-stroke" d="&#10;  M 1092.84 599.45&#10;  C 1115.25 604.96 1138.25 606.72 1161.25 606.68&#10;  Q 1164.14 606.68 1166.92 606.54"/>
<path stroke="#88b59d" vector-effect="non-scaling-stroke" d="&#10;  M 1166.92 606.54&#10;  Q 1184.16 606.15 1201.25 604.76&#10;  Q 1211.09 603.96 1220.75 601.95&#10;  Q 1236.34 598.71 1251.71 594.55&#10;  Q 1263.21 591.44 1274.85 588.64"/>
<path stroke="#28452e" vector-effect="non-scaling-stroke" d="&#10;  M 1166.92 606.54&#10;  Q 1168.20 605.85 1169.96 606.13&#10;  Q 1170.21 606.17 1170.14 605.93&#10;  Q 1170.12 605.88 1170.09 605.83&#10;  Q 1169.89 605.54 1169.55 605.53&#10;  C 1163.59 605.38 1157.71 605.14 1151.70 605.28&#10;  Q 1146.47 605.41 1141.60 605.01&#10;  C 1139.94 604.88 1138.49 605.12 1136.78 604.74&#10;  Q 1135.18 604.39 1133.34 604.31&#10;  Q 1127.07 604.05 1118.60 603.09&#10;  Q 1106.39 601.70 1097.88 599.35&#10;  Q 1095.72 598.75 1092.84 599.45"/>
<path stroke="#88b59d" vector-effect="non-scaling-stroke" d="&#10;  M 1088.86 310.78&#10;  Q 1106.97 333.74 1133.34 346.36&#10;  C 1184.69 370.94 1244.75 354.96 1282.53 314.53&#10;  C 1287.05 309.70 1292.32 304.07 1295.37 298.63&#10;  Q 1305.25 281.03 1310.96 260.26&#10;  Q 1316.17 241.29 1313.55 218.00&#10;  Q 1310.52 190.99 1298.30 170.09"/>
<path stroke="#28452e" vector-effect="non-scaling-stroke" d="&#10;  M 1298.30 170.09&#10;  Q 1297.24 168.60 1296.42 166.80&#10;  Q 1295.54 164.89 1294.53 163.15&#10;  Q 1277.63 134.25 1248.14 116.76&#10;  C 1206.25 91.92 1153.16 93.03 1113.12 120.81&#10;  Q 1079.16 144.37 1064.93 183.21&#10;  Q 1051.43 220.05 1062.22 259.99&#10;  Q 1070.08 289.12 1088.86 310.78"/>
<path stroke="#7e8e87" vector-effect="non-scaling-stroke" d="&#10;  M 1298.30 170.09&#10;  Q 1308.43 194.08 1310.01 217.74&#10;  Q 1311.86 245.32 1301.20 273.07&#10;  C 1297.48 282.74 1290.95 291.07 1284.72 299.26&#10;  Q 1276.92 309.52 1273.05 313.93&#10;  C 1248.17 342.27 1205.64 355.36 1168.56 350.57&#10;  Q 1135.72 346.33 1108.14 327.62&#10;  Q 1100.51 322.44 1088.86 310.78"/>
<path stroke="#afe4c9" vector-effect="non-scaling-stroke" d="&#10;  M 1448.00 680.05&#10;  Q 1435.74 682.44 1428.99 684.46&#10;  Q 1389.56 696.27 1350.32 711.54&#10;  Q 1341.15 715.11 1331.86 719.21&#10;  Q 1321.91 723.59 1312.52 728.07&#10;  Q 1264.10 751.14 1226.57 775.14&#10;  Q 1205.80 788.43 1177.88 811.08&#10;  C 1168.64 818.58 1159.35 826.21 1150.90 834.42&#10;  C 1139.88 845.13 1129.38 855.38 1118.99 866.46&#10;  C 1101.64 884.98 1085.72 905.11 1070.79 925.72&#10;  Q 1054.96 947.57 1042.77 969.31&#10;  Q 1006.18 1034.49 989.34 1106.22&#10;  C 984.55 1126.61 981.66 1147.71 980.11 1168.56&#10;  Q 979.80 1172.87 979.79 1177.25&#10;  Q 979.77 1312.62 979.76 1448.00"/>
<path stroke="#88b59d" vector-effect="non-scaling-stroke" d="&#10;  M 309.94 652.96&#10;  Q 312.07 655.21 314.33 657.31&#10;  C 336.65 678.06 338.29 714.81 318.35 737.92&#10;  C 286.96 774.29 227.77 761.95 216.21 714.24&#10;  C 213.34 702.40 213.40 685.99 219.27 674.31&#10;  C 226.02 660.88 236.49 652.11 249.94 645.60"/>
<path stroke="#88b59d" vector-effect="non-scaling-stroke" d="&#10;  M 713.24 1008.83&#10;  L 713.18 1008.54&#10;  Q 713.15 1008.35 712.96 1008.39&#10;  Q 687.20 1013.42 666.04 1015.08&#10;  Q 655.57 1015.90 641.86 1015.26&#10;  Q 605.94 1013.58 577.82 992.79&#10;  C 562.56 981.52 549.05 967.74 536.63 953.00&#10;  C 525.49 939.78 513.87 926.70 502.58 914.13&#10;  Q 456.86 863.25 400.22 824.26&#10;  Q 400.10 824.17 400.01 824.29&#10;  L 399.78 824.61&#10;  Q 399.70 824.72 399.81 824.81&#10;  Q 413.04 834.71 425.58 844.25&#10;  Q 432.99 849.89 440.96 856.65&#10;  Q 448.70 863.22 455.90 869.45&#10;  C 469.47 881.20 483.14 894.61 495.58 908.34&#10;  Q 503.37 916.94 511.80 925.99&#10;  Q 518.53 933.20 524.91 940.98&#10;  C 536.25 954.79 548.07 968.12 561.25 980.49&#10;  C 572.43 990.99 585.45 1000.72 599.31 1006.84&#10;  Q 617.70 1014.96 638.21 1016.34&#10;  C 662.72 1017.99 688.20 1014.37 712.86 1009.40&#10;  Q 713.33 1009.30 713.24 1008.83"/>
<path stroke="#88b59d" vector-effect="non-scaling-stroke" d="&#10;  M 1448.00 682.16&#10;  Q 1393.88 697.14 1336.27 721.35&#10;  Q 1294.55 738.88 1256.25 760.77&#10;  Q 1201.21 792.23 1155.07 835.11&#10;  Q 1124.29 863.72 1097.99 895.36&#10;  Q 1031.89 974.89 1001.27 1072.94&#10;  Q 985.24 1124.26 982.88 1173.35&#10;  Q 982.48 1181.74 982.46 1193.51&#10;  Q 982.26 1320.75 982.34 1448.00"/>
<path stroke="#88b59d" vector-effect="non-scaling-stroke" d="&#10;  M 1448.00 1082.80&#10;  Q 1356.50 1082.69 1265.00 1082.82&#10;  C 1227.76 1082.87 1193.41 1093.13 1164.59 1116.30&#10;  Q 1139.95 1136.10 1124.81 1164.20&#10;  Q 1121.15 1171.01 1118.44 1179.68&#10;  Q 1112.51 1198.63 1111.33 1215.19&#10;  C 1110.78 1223.08 1110.19 1231.21 1110.22 1239.25&#10;  Q 1110.55 1343.63 1110.03 1448.00"/>
<path stroke="#88b59d" vector-effect="non-scaling-stroke" d="&#10;  M 1102.74 1448.00&#10;  Q 1103.28 1447.17 1102.71 1446.26&#10;  Q 1083.91 1416.76 1072.12 1390.54&#10;  Q 1060.28 1364.20 1051.66 1338.10&#10;  Q 1032.78 1280.99 1031.68 1217.10&#10;  C 1031.17 1187.35 1033.57 1157.75 1039.45 1128.99&#10;  C 1046.87 1092.69 1058.70 1056.19 1076.19 1023.59&#10;  Q 1109.31 961.90 1159.96 916.39&#10;  Q 1215.06 866.88 1288.29 848.81&#10;  Q 1312.25 842.90 1339.29 842.28&#10;  Q 1382.37 841.31 1422.03 852.01&#10;  Q 1433.27 855.05 1447.39 860.76&#10;  Q 1447.55 860.83 1447.63 860.67&#10;  L 1447.74 860.40&#10;  A 0.43 0.43 0.0 0 0 1447.54 859.84&#10;  Q 1431.65 851.99 1413.56 847.91&#10;  Q 1383.15 841.05 1350.82 840.59&#10;  Q 1303.95 839.93 1258.42 855.71&#10;  Q 1212.85 871.50 1175.18 901.21&#10;  Q 1161.15 912.28 1154.64 918.38&#10;  Q 1095.41 973.85 1062.55 1047.68&#10;  Q 1058.47 1056.84 1055.14 1066.32&#10;  Q 1046.54 1090.77 1040.40 1115.57&#10;  Q 1033.54 1143.24 1031.11 1172.54&#10;  Q 1025.98 1234.32 1038.09 1293.79&#10;  Q 1039.99 1303.12 1042.73 1313.45&#10;  Q 1061.85 1385.51 1101.88 1448.00"/>
<path stroke="#88b59d" vector-effect="non-scaling-stroke" d="&#10;  M 1448.00 1088.67&#10;  Q 1362.66 1088.31 1277.33 1088.75&#10;  C 1268.23 1088.80 1259.01 1089.11 1249.84 1089.92&#10;  Q 1197.85 1094.52 1158.91 1130.53&#10;  Q 1151.80 1137.11 1145.98 1145.21&#10;  Q 1132.91 1163.44 1125.75 1180.51&#10;  C 1117.32 1200.58 1116.38 1222.44 1116.37 1244.25&#10;  Q 1116.35 1295.75 1116.11 1347.25&#10;  Q 1115.89 1393.51 1116.23 1440.00&#10;  Q 1116.26 1444.00 1116.16 1448.00"/>
</g><path fill="#7fcb9d" d="&#10;  M 68.35 0.00&#10;  L 540.55 0.00&#10;  Q 546.54 15.90 552.14 31.91&#10;  Q 563.51 64.40 565.45 98.45&#10;  Q 565.89 106.20 565.88 122.20&#10;  C 565.88 134.82 565.09 147.84 563.05 160.47&#10;  Q 551.43 232.44 504.39 287.43&#10;  C 492.67 301.13 480.37 313.25 466.14 323.96&#10;  Q 402.00 372.29 321.72 378.50&#10;  Q 301.76 380.05 281.05 378.08&#10;  C 213.05 371.64 150.30 338.11 105.74 286.36&#10;  C 62.74 236.43 41.22 171.96 43.30 105.92&#10;  Q 44.14 79.36 50.28 52.26&#10;  Q 56.63 24.19 68.35 0.00&#10;  Z"/><path fill="#326c44" d="&#10;  M 805.78 0.00&#10;  L 808.43 0.00&#10;  Q 807.87 1.11 808.58 3.19&#10;  Q 808.67 3.47 808.39 3.39&#10;  Q 808.23 3.34 808.14 3.13&#10;  Q 807.28 1.19 805.78 0.00&#10;  Z"/><path fill="#326c44" d="&#10;  M 835.85 0.00&#10;  L 840.87 0.00&#10;  Q 838.39 0.57 835.85 0.00&#10;  Z"/><path fill="#326c44" d="&#10;  M 984.07 0.00&#10;  L 985.37 0.00&#10;  Q 985.00 3.73 984.59 7.45&#10;  Q 984.58 7.58 984.44 7.57&#10;  L 984.44 7.57&#10;  Q 984.30 7.56 984.31 7.42&#10;  Q 984.49 3.70 984.07 0.00&#10;  Z"/><path fill="#defdf5" d="&#10;  M 1058.00 0.00&#10;  L 1061.64 0.00&#10;  Q 1059.66 7.73 1056.26 15.00&#10;  Q 1047.84 33.02 1037.72 49.96&#10;  C 1022.90 74.77 1003.56 97.39 982.21 116.70&#10;  Q 961.89 135.07 950.34 143.96&#10;  Q 929.49 160.00 911.08 175.68&#10;  C 893.56 190.60 879.18 205.47 865.78 224.44&#10;  Q 859.01 234.03 854.45 241.88&#10;  Q 841.39 264.34 837.40 290.99&#10;  C 835.18 305.83 834.48 322.15 836.10 337.05&#10;  Q 840.97 381.79 863.47 423.75&#10;  Q 880.48 455.49 900.05 479.30&#10;  Q 920.62 504.35 942.00 523.25&#10;  Q 992.04 567.49 1056.01 589.99&#10;  Q 1071.82 595.55 1092.84 599.45&#10;  C 1115.25 604.96 1138.25 606.72 1161.25 606.68&#10;  Q 1164.14 606.68 1166.92 606.54&#10;  Q 1184.16 606.15 1201.25 604.76&#10;  Q 1211.09 603.96 1220.75 601.95&#10;  Q 1236.34 598.71 1251.71 594.55&#10;  Q 1263.21 591.44 1274.85 588.64&#10;  Q 1226.04 608.37 1170.87 610.10&#10;  Q 1084.13 612.81 1008.16 572.78&#10;  Q 959.40 547.10 919.16 505.90&#10;  C 902.89 489.25 888.15 471.30 875.82 451.78&#10;  C 863.26 431.89 852.61 411.71 844.85 390.46&#10;  C 834.10 361.05 829.07 329.02 832.39 298.41&#10;  Q 834.96 274.71 845.48 250.52&#10;  Q 853.48 232.09 864.28 218.34&#10;  C 881.35 196.58 900.21 178.38 921.73 161.41&#10;  C 954.70 135.42 988.53 109.72 1013.10 76.86&#10;  Q 1018.02 70.27 1023.03 63.75&#10;  C 1037.88 44.39 1049.58 22.91 1058.00 0.00&#10;  Z"/><path fill="#326c44" d="&#10;  M 1061.64 0.00&#10;  L 1448.00 0.00&#10;  L 1448.00 465.11&#10;  Q 1447.45 464.20 1446.99 464.72&#10;  Q 1439.24 473.47 1431.46 482.10&#10;  C 1418.34 496.65 1404.26 510.23 1389.25 522.23&#10;  C 1378.82 530.59 1366.59 540.08 1354.93 547.84&#10;  Q 1317.33 572.83 1274.85 588.64&#10;  Q 1263.21 591.44 1251.71 594.55&#10;  Q 1236.34 598.71 1220.75 601.95&#10;  Q 1211.09 603.96 1201.25 604.76&#10;  Q 1184.16 606.15 1166.92 606.54&#10;  Q 1168.20 605.85 1169.96 606.13&#10;  Q 1170.21 606.17 1170.14 605.93&#10;  Q 1170.12 605.88 1170.09 605.83&#10;  Q 1169.89 605.54 1169.55 605.53&#10;  C 1163.59 605.38 1157.71 605.14 1151.70 605.28&#10;  Q 1146.47 605.41 1141.60 605.01&#10;  C 1139.94 604.88 1138.49 605.12 1136.78 604.74&#10;  Q 1135.18 604.39 1133.34 604.31&#10;  Q 1127.07 604.05 1118.60 603.09&#10;  Q 1106.39 601.70 1097.88 599.35&#10;  Q 1095.72 598.75 1092.84 599.45&#10;  Q 1071.82 595.55 1056.01 589.99&#10;  Q 992.04 567.49 942.00 523.25&#10;  Q 920.62 504.35 900.05 479.30&#10;  Q 880.48 455.49 863.47 423.75&#10;  Q 840.97 381.79 836.10 337.05&#10;  C 834.48 322.15 835.18 305.83 837.40 290.99&#10;  Q 841.39 264.34 854.45 241.88&#10;  Q 859.01 234.03 865.78 224.44&#10;  C 879.18 205.47 893.56 190.60 911.08 175.68&#10;  Q 929.49 160.00 950.34 143.96&#10;  Q 961.89 135.07 982.21 116.70&#10;  C 1003.56 97.39 1022.90 74.77 1037.72 49.96&#10;  Q 1047.84 33.02 1056.26 15.00&#10;  Q 1059.66 7.73 1061.64 0.00&#10;  Z&#10;  M 1088.86 310.78&#10;  Q 1106.97 333.74 1133.34 346.36&#10;  C 1184.69 370.94 1244.75 354.96 1282.53 314.53&#10;  C 1287.05 309.70 1292.32 304.07 1295.37 298.63&#10;  Q 1305.25 281.03 1310.96 260.26&#10;  Q 1316.17 241.29 1313.55 218.00&#10;  Q 1310.52 190.99 1298.30 170.09&#10;  Q 1297.24 168.60 1296.42 166.80&#10;  Q 1295.54 164.89 1294.53 163.15&#10;  Q 1277.63 134.25 1248.14 116.76&#10;  C 1206.25 91.92 1153.16 93.03 1113.12 120.81&#10;  Q 1079.16 144.37 1064.93 183.21&#10;  Q 1051.43 220.05 1062.22 259.99&#10;  Q 1070.08 289.12 1088.86 310.78&#10;  Z"/><path fill="#1d1e18" d="&#10;  M 1298.30 170.09&#10;  Q 1308.43 194.08 1310.01 217.74&#10;  Q 1311.86 245.32 1301.20 273.07&#10;  C 1297.48 282.74 1290.95 291.07 1284.72 299.26&#10;  Q 1276.92 309.52 1273.05 313.93&#10;  C 1248.17 342.27 1205.64 355.36 1168.56 350.57&#10;  Q 1135.72 346.33 1108.14 327.62&#10;  Q 1100.51 322.44 1088.86 310.78&#10;  Q 1070.08 289.12 1062.22 259.99&#10;  Q 1051.43 220.05 1064.93 183.21&#10;  Q 1079.16 144.37 1113.12 120.81&#10;  C 1153.16 93.03 1206.25 91.92 1248.14 116.76&#10;  Q 1277.63 134.25 1294.53 163.15&#10;  Q 1295.54 164.89 1296.42 166.80&#10;  Q 1297.24 168.60 1298.30 170.09&#10;  Z"/><path fill="#defdf5" d="&#10;  M 1298.30 170.09&#10;  Q 1310.52 190.99 1313.55 218.00&#10;  Q 1316.17 241.29 1310.96 260.26&#10;  Q 1305.25 281.03 1295.37 298.63&#10;  C 1292.32 304.07 1287.05 309.70 1282.53 314.53&#10;  C 1244.75 354.96 1184.69 370.94 1133.34 346.36&#10;  Q 1106.97 333.74 1088.86 310.78&#10;  Q 1100.51 322.44 1108.14 327.62&#10;  Q 1135.72 346.33 1168.56 350.57&#10;  C 1205.64 355.36 1248.17 342.27 1273.05 313.93&#10;  Q 1276.92 309.52 1284.72 299.26&#10;  C 1290.95 291.07 1297.48 282.74 1301.20 273.07&#10;  Q 1311.86 245.32 1310.01 217.74&#10;  Q 1308.43 194.08 1298.30 170.09&#10;  Z"/><path fill="#326c44" d="&#10;  M 501.76 546.20&#10;  C 498.60 507.32 510.06 472.16 537.34 444.63&#10;  C 548.61 433.25 561.65 423.69 576.31 417.40&#10;  C 606.91 404.26 644.88 401.64 676.13 414.28&#10;  C 698.06 423.15 717.62 436.77 731.58 455.59&#10;  Q 737.63 463.74 742.63 472.63&#10;  Q 751.58 488.55 755.36 504.41&#10;  Q 758.82 518.94 759.22 534.33&#10;  C 760.26 573.56 743.35 612.17 712.88 636.58&#10;  Q 673.70 667.99 624.33 665.89&#10;  Q 583.43 664.14 551.54 638.96&#10;  C 522.57 616.08 504.74 582.89 501.76 546.20&#10;  Z"/><path fill="#1d1e18" d="&#10;  M 1166.92 606.54&#10;  Q 1164.14 606.68 1161.25 606.68&#10;  C 1138.25 606.72 1115.25 604.96 1092.84 599.45&#10;  Q 1095.72 598.75 1097.88 599.35&#10;  Q 1106.39 601.70 1118.60 603.09&#10;  Q 1127.07 604.05 1133.34 604.31&#10;  Q 1135.18 604.39 1136.78 604.74&#10;  C 1138.49 605.12 1139.94 604.88 1141.60 605.01&#10;  Q 1146.47 605.41 1151.70 605.28&#10;  C 1157.71 605.14 1163.59 605.38 1169.55 605.53&#10;  Q 1169.89 605.54 1170.09 605.83&#10;  Q 1170.12 605.88 1170.14 605.93&#10;  Q 1170.21 606.17 1169.96 606.13&#10;  Q 1168.20 605.85 1166.92 606.54&#10;  Z"/><path fill="#defdf5" d="&#10;  M 309.94 652.96&#10;  Q 312.07 655.21 314.33 657.31&#10;  C 336.65 678.06 338.29 714.81 318.35 737.92&#10;  C 286.96 774.29 227.77 761.95 216.21 714.24&#10;  C 213.34 702.40 213.40 685.99 219.27 674.31&#10;  C 226.02 660.88 236.49 652.11 249.94 645.60&#10;  Q 282.29 634.16 309.94 652.96&#10;  Z"/><path fill="#326c44" d="M 249.94 645.6 C 236.49 652.11 226.02 660.88 219.27 674.31 C 213.4 685.99 213.34 702.4 216.21 714.24 C 227.77 761.95 286.96 774.29 318.35 737.92 C 338.29 714.81 336.65 678.06 314.33 657.31 C 312.8233333333333 655.91 311.36 654.46 309.94 652.96 C 312.17333333333335 652.16 314.12666666666667 651.9866666666667 315.8 652.44 C 354.14666666666665 662.84 390.45 676.8133333333333 424.71 694.36 C 478.86333333333334 722.0933333333334 527.59 756.6166666666667 570.89 797.93 C 595.8299999999999 821.73 620.0799999999999 849.0766666666667 643.64 879.97 C 650.44 888.89 659.3733333333333 902.24 670.44 920.02 C 686.38 945.62 699.8366666666667 971.4499999999999 710.81 997.51 C 712.7566666666667 1002.1433333333333 730.1966666666667 1051.5666666666666 734.95 1072.5 C 736.95 1081.3133333333333 739.0933333333334 1091.95 741.38 1104.41 C 742.5933333333334 1111.0166666666667 743.59 1117.4233333333334 744.37 1123.63 C 750.63 1173.5166666666667 749.5066666666667 1222.9666666666667 741 1271.98 C 739.8466666666667 1278.6333333333334 738.5033333333333 1285.1833333333334 736.97 1291.63 C 733.2633333333333 1307.19 729.5666666666666 1320.9766666666667 725.88 1332.99 C 721.3 1347.9166666666667 715.82 1362.74 709.44 1377.46 C 708.98 1378.52 708.3833333333333 1379.49 707.65 1380.37 C 707.1658911904827 1380.9460742309875 706.250779702637 1380.8408890022433 705.91 1380.17 C 705.5366666666666 1379.43 705.25 1378.6499999999999 705.05 1377.83 C 701.39 1362.75 695.29 1346.98 689.21 1332.88 C 662.1633333333333 1270.1733333333334 625.68 1214.4633333333334 579.76 1165.75 C 537.0066666666667 1120.3966666666668 486.64666666666665 1084.63 428.68 1058.45 C 387.92 1040.05 344.76 1028.95 300.51 1023.86 C 266.5833333333333 1019.96 232.83333333333334 1020.2333333333333 199.26 1024.68 C 126.91333333333333 1034.26 60.49333333333333 1059.0966666666666 0 1099.19 L 0 679.14 C 29.819999999999997 668.4666666666667 57.903333333333336 660.2633333333333 84.25 654.53 C 118.50999999999999 647.07 153.17666666666665 643.0933333333334 188.25 642.6 C 201.79666666666665 642.4066666666666 219.37666666666667 642.6566666666666 240.99 643.35 C 244.58333333333334 643.47 247.56666666666666 644.22 249.94 645.6 Z"/><path fill="#defdf5" d="&#10;  M 1448.00 680.05&#10;  L 1448.00 682.16&#10;  Q 1393.88 697.14 1336.27 721.35&#10;  Q 1294.55 738.88 1256.25 760.77&#10;  Q 1201.21 792.23 1155.07 835.11&#10;  Q 1124.29 863.72 1097.99 895.36&#10;  Q 1031.89 974.89 1001.27 1072.94&#10;  Q 985.24 1124.26 982.88 1173.35&#10;  Q 982.48 1181.74 982.46 1193.51&#10;  Q 982.26 1320.75 982.34 1448.00&#10;  L 979.76 1448.00&#10;  Q 979.77 1312.62 979.79 1177.25&#10;  Q 979.80 1172.87 980.11 1168.56&#10;  C 981.66 1147.71 984.55 1126.61 989.34 1106.22&#10;  Q 1006.18 1034.49 1042.77 969.31&#10;  Q 1054.96 947.57 1070.79 925.72&#10;  C 1085.72 905.11 1101.64 884.98 1118.99 866.46&#10;  C 1129.38 855.38 1139.88 845.13 1150.90 834.42&#10;  C 1159.35 826.21 1168.64 818.58 1177.88 811.08&#10;  Q 1205.80 788.43 1226.57 775.14&#10;  Q 1264.10 751.14 1312.52 728.07&#10;  Q 1321.91 723.59 1331.86 719.21&#10;  Q 1341.15 715.11 1350.32 711.54&#10;  Q 1389.56 696.27 1428.99 684.46&#10;  Q 1435.74 682.44 1448.00 680.05&#10;  Z"/><path fill="#326c44" d="&#10;  M 1448.00 682.16&#10;  L 1448.00 1082.80&#10;  Q 1356.50 1082.69 1265.00 1082.82&#10;  C 1227.76 1082.87 1193.41 1093.13 1164.59 1116.30&#10;  Q 1139.95 1136.10 1124.81 1164.20&#10;  Q 1121.15 1171.01 1118.44 1179.68&#10;  Q 1112.51 1198.63 1111.33 1215.19&#10;  C 1110.78 1223.08 1110.19 1231.21 1110.22 1239.25&#10;  Q 1110.55 1343.63 1110.03 1448.00&#10;  L 1102.74 1448.00&#10;  Q 1103.28 1447.17 1102.71 1446.26&#10;  Q 1083.91 1416.76 1072.12 1390.54&#10;  Q 1060.28 1364.20 1051.66 1338.10&#10;  Q 1032.78 1280.99 1031.68 1217.10&#10;  C 1031.17 1187.35 1033.57 1157.75 1039.45 1128.99&#10;  C 1046.87 1092.69 1058.70 1056.19 1076.19 1023.59&#10;  Q 1109.31 961.90 1159.96 916.39&#10;  Q 1215.06 866.88 1288.29 848.81&#10;  Q 1312.25 842.90 1339.29 842.28&#10;  Q 1382.37 841.31 1422.03 852.01&#10;  Q 1433.27 855.05 1447.39 860.76&#10;  Q 1447.55 860.83 1447.63 860.67&#10;  L 1447.74 860.40&#10;  A 0.43 0.43 0.0 0 0 1447.54 859.84&#10;  Q 1431.65 851.99 1413.56 847.91&#10;  Q 1383.15 841.05 1350.82 840.59&#10;  Q 1303.95 839.93 1258.42 855.71&#10;  Q 1212.85 871.50 1175.18 901.21&#10;  Q 1161.15 912.28 1154.64 918.38&#10;  Q 1095.41 973.85 1062.55 1047.68&#10;  Q 1058.47 1056.84 1055.14 1066.32&#10;  Q 1046.54 1090.77 1040.40 1115.57&#10;  Q 1033.54 1143.24 1031.11 1172.54&#10;  Q 1025.98 1234.32 1038.09 1293.79&#10;  Q 1039.99 1303.12 1042.73 1313.45&#10;  Q 1061.85 1385.51 1101.88 1448.00&#10;  L 982.34 1448.00&#10;  Q 982.26 1320.75 982.46 1193.51&#10;  Q 982.48 1181.74 982.88 1173.35&#10;  Q 985.24 1124.26 1001.27 1072.94&#10;  Q 1031.89 974.89 1097.99 895.36&#10;  Q 1124.29 863.72 1155.07 835.11&#10;  Q 1201.21 792.23 1256.25 760.77&#10;  Q 1294.55 738.88 1336.27 721.35&#10;  Q 1393.88 697.14 1448.00 682.16&#10;  Z"/><path fill="#defdf5" d="&#10;  M 1102.74 1448.00&#10;  Q 1102.31 1448.00 1101.88 1448.00&#10;  Q 1061.85 1385.51 1042.73 1313.45&#10;  Q 1039.99 1303.12 1038.09 1293.79&#10;  Q 1025.98 1234.32 1031.11 1172.54&#10;  Q 1033.54 1143.24 1040.40 1115.57&#10;  Q 1046.54 1090.77 1055.14 1066.32&#10;  Q 1058.47 1056.84 1062.55 1047.68&#10;  Q 1095.41 973.85 1154.64 918.38&#10;  Q 1161.15 912.28 1175.18 901.21&#10;  Q 1212.85 871.50 1258.42 855.71&#10;  Q 1303.95 839.93 1350.82 840.59&#10;  Q 1383.15 841.05 1413.56 847.91&#10;  Q 1431.65 851.99 1447.54 859.84&#10;  A 0.43 0.43 0.0 0 1 1447.74 860.40&#10;  L 1447.63 860.67&#10;  Q 1447.55 860.83 1447.39 860.76&#10;  Q 1433.27 855.05 1422.03 852.01&#10;  Q 1382.37 841.31 1339.29 842.28&#10;  Q 1312.25 842.90 1288.29 848.81&#10;  Q 1215.06 866.88 1159.96 916.39&#10;  Q 1109.31 961.90 1076.19 1023.59&#10;  C 1058.70 1056.19 1046.87 1092.69 1039.45 1128.99&#10;  C 1033.57 1157.75 1031.17 1187.35 1031.68 1217.10&#10;  Q 1032.78 1280.99 1051.66 1338.10&#10;  Q 1060.28 1364.20 1072.12 1390.54&#10;  Q 1083.91 1416.76 1102.71 1446.26&#10;  Q 1103.28 1447.17 1102.74 1448.00&#10;  Z"/><path fill="#326c44" d="&#10;  M 724.00 1006.15&#10;  Q 724.16 1006.12 724.16 1006.13&#10;  L 724.21 1006.38&#10;  Q 724.24 1006.56 724.06 1006.60&#10;  Q 722.26 1006.99 720.37 1007.42&#10;  Q 720.08 1007.49 720.02 1007.19&#10;  L 719.96 1006.91&#10;  A 0.11 0.10 82.5 0 1 720.05 1006.78&#10;  L 724.00 1006.15&#10;  Z"/><path fill="#defdf5" d="&#10;  M 1448.00 1082.80&#10;  L 1448.00 1088.67&#10;  Q 1362.66 1088.31 1277.33 1088.75&#10;  C 1268.23 1088.80 1259.01 1089.11 1249.84 1089.92&#10;  Q 1197.85 1094.52 1158.91 1130.53&#10;  Q 1151.80 1137.11 1145.98 1145.21&#10;  Q 1132.91 1163.44 1125.75 1180.51&#10;  C 1117.32 1200.58 1116.38 1222.44 1116.37 1244.25&#10;  Q 1116.35 1295.75 1116.11 1347.25&#10;  Q 1115.89 1393.51 1116.23 1440.00&#10;  Q 1116.26 1444.00 1116.16 1448.00&#10;  L 1110.03 1448.00&#10;  Q 1110.55 1343.63 1110.22 1239.25&#10;  C 1110.19 1231.21 1110.78 1223.08 1111.33 1215.19&#10;  Q 1112.51 1198.63 1118.44 1179.68&#10;  Q 1121.15 1171.01 1124.81 1164.20&#10;  Q 1139.95 1136.10 1164.59 1116.30&#10;  C 1193.41 1093.13 1227.76 1082.87 1265.00 1082.82&#10;  Q 1356.50 1082.69 1448.00 1082.80&#10;  Z"/><path fill="#defdf5" d="&#10;  M 188.52 1448.00&#10;  L 185.16 1448.00&#10;  Q 185.15 1306.88 185.24 1165.75&#10;  C 185.24 1159.48 185.14 1152.97 186.29 1146.88&#10;  C 189.65 1129.02 201.35 1111.52 215.85 1100.67&#10;  Q 235.42 1086.02 262.37 1086.81&#10;  C 273.97 1087.15 284.80 1089.58 294.81 1095.21&#10;  C 314.30 1106.18 328.98 1124.43 333.53 1146.41&#10;  Q 334.84 1152.75 335.04 1165.10&#10;  Q 335.41 1187.92 335.15 1203.73&#10;  Q 334.87 1220.06 335.55 1232.10&#10;  Q 336.17 1242.99 341.43 1254.38&#10;  C 351.47 1276.07 370.30 1292.12 393.93 1297.20&#10;  C 411.65 1301.00 431.43 1298.83 447.12 1289.81&#10;  C 468.50 1277.52 483.74 1257.35 486.49 1232.42&#10;  Q 487.45 1223.74 487.49 1215.53&#10;  Q 487.61 1187.78 487.40 1159.24&#10;  Q 487.40 1158.56 488.08 1158.59&#10;  L 491.41 1158.77&#10;  A 0.75 0.74 -89.2 0 1 492.12 1159.51&#10;  Q 492.62 1200.86 491.66 1227.47&#10;  C 490.27 1265.83 460.47 1296.70 423.16 1302.95&#10;  C 395.10 1307.64 366.49 1296.25 348.50 1274.54&#10;  Q 331.15 1253.60 330.89 1225.56&#10;  Q 330.65 1200.26 330.82 1167.41&#10;  Q 330.88 1156.68 329.54 1149.32&#10;  C 323.99 1118.83 297.91 1094.46 267.03 1091.66&#10;  C 250.44 1090.16 234.05 1093.39 220.52 1103.37&#10;  Q 197.76 1120.16 191.33 1145.52&#10;  Q 189.90 1151.15 189.58 1160.68&#10;  Q 189.09 1175.40 189.08 1189.25&#10;  Q 189.06 1320.27 189.33 1434.25&#10;  Q 189.35 1441.18 188.52 1448.00&#10;  Z"/><path fill="#326c44" d="&#10;  M 1448.00 1088.67&#10;  L 1448.00 1448.00&#10;  L 1116.16 1448.00&#10;  Q 1116.26 1444.00 1116.23 1440.00&#10;  Q 1115.89 1393.51 1116.11 1347.25&#10;  Q 1116.35 1295.75 1116.37 1244.25&#10;  C 1116.38 1222.44 1117.32 1200.58 1125.75 1180.51&#10;  Q 1132.91 1163.44 1145.98 1145.21&#10;  Q 1151.80 1137.11 1158.91 1130.53&#10;  Q 1197.85 1094.52 1249.84 1089.92&#10;  C 1259.01 1089.11 1268.23 1088.80 1277.33 1088.75&#10;  Q 1362.66 1088.31 1448.00 1088.67&#10;  Z"/><path style="fill: rgb(29, 30, 24); fill-opacity: 1; stroke: rgb(0, 0, 0); stroke-opacity: 1; stroke-width: 0; paint-order: fill;" d="M 723.16552734375 1006.3385620117188 L 723.16552734375 1006.3385620117188"/><path fill="#7fcb9d" d="M 1448 600.99 L 1448 680.05 C 1439.8266666666666 681.6433333333333 1433.49 683.1133333333333 1428.99 684.46 C 1402.7033333333334 692.3333333333334 1376.48 701.36 1350.32 711.54 C 1344.2066666666667 713.92 1338.0533333333333 716.4766666666667 1331.86 719.21 C 1325.2266666666667 722.13 1318.78 725.0833333333334 1312.52 728.07 C 1280.24 743.45 1251.59 759.14 1226.57 775.14 C 1212.7233333333334 784 1196.4933333333333 795.98 1177.88 811.08 C 1168.64 818.58 1159.35 826.21 1150.9 834.42 C 1139.88 845.13 1129.38 855.38 1118.99 866.46 C 1101.64 884.98 1085.72 905.11 1070.79 925.72 C 1060.2366666666667 940.2866666666667 1050.8966666666668 954.8166666666667 1042.77 969.31 C 1018.3766666666667 1012.7633333333333 1000.5666666666666 1058.4 989.34 1106.22 C 984.55 1126.61 981.66 1147.71 980.11 1168.56 C 979.9033333333333 1171.4333333333332 979.7966666666666 1174.33 979.79 1177.25 C 979.7766666666666 1267.4966666666667 979.7666666666667 1357.7466666666667 979.76 1448 L 765 1448 C 764.6866666666666 1442.32 764.25 1436.6466666666668 763.69 1430.98 C 762.7166666666667 1421.0866666666668 762.1733333333333 1415.43 762.06 1414.01 C 757.9733333333332 1360.6566666666668 759.4666666666666 1307.5833333333333 766.54 1254.79 C 772.5666666666667 1209.8366666666666 782.15 1165.6833333333332 795.29 1122.33 C 808.13 1079.95 848.35 996.33 848.97 995.23 C 863.6 969.56 878.54 943.5 895.87 919.05 C 925.4233333333334 877.3566666666667 959.5633333333334 839.15 998.29 804.43 C 1014.0966666666667 790.25 1032.1366666666668 775.3466666666667 1052.41 759.72 C 1057.77 755.5866666666667 1063.1733333333334 751.6266666666667 1068.62 747.84 C 1109.1466666666668 719.6600000000001 1150.54 695.82 1192.8 676.32 C 1265.6533333333332 642.7 1342.1366666666665 618.8366666666667 1422.25 604.73 C 1431.9966666666667 603.01 1440.58 601.7633333333333 1448 600.99 Z"/><path fill="#1d1e18" d="M 0 0 L 68.35 0 C 60.53666666666667 16.12666666666667 54.513333333333335 33.54666666666667 50.28 52.26 C 46.18666666666667 70.32666666666667 43.86 88.21333333333334 43.3 105.92 C 41.22 171.96 62.74 236.43 105.74 286.36 C 150.3 338.11 213.05 371.64 281.05 378.08 C 294.8566666666667 379.3933333333333 308.41333333333336 379.53333333333336 321.72 378.5 C 375.24 374.36 423.38 356.18 466.14 323.96 C 480.37 313.25 492.67 301.13 504.39 287.43 C 535.75 250.77 555.3033333333333 208.45 563.05 160.47 C 565.09 147.84 565.88 134.82 565.88 122.2 C 565.8866666666667 111.53333333333333 565.7433333333333 103.61666666666667 565.45 98.45 C 564.1566666666666 75.75 559.72 53.57000000000001 552.14 31.91 C 548.4066666666666 21.236666666666668 544.5433333333333 10.6 540.55 0 L 1058 0 C 1049.58 22.91 1037.88 44.39 1023.03 63.75 C 1019.6899999999999 68.09666666666666 1016.38 72.46666666666667 1013.1 76.86 C 988.53 109.72 954.7 135.42 921.73 161.41 C 900.21 178.38 881.35 196.58 864.28 218.34 C 857.08 227.50666666666666 850.8133333333334 238.23333333333335 845.48 250.52 C 838.4666666666667 266.64666666666665 834.1033333333334 282.61 832.39 298.41 C 829.07 329.02 834.1 361.05 844.85 390.46 C 852.61 411.71 863.26 431.89 875.82 451.78 C 888.15 471.3 902.89 489.25 919.16 505.9 C 945.9866666666667 533.3666666666667 975.6533333333333 555.66 1008.16 572.78 C 1058.8066666666668 599.4666666666666 1113.0433333333333 611.9066666666666 1170.87 610.1 C 1207.6499999999999 608.9466666666667 1242.31 601.7933333333333 1274.85 588.64 C 1303.1699999999998 578.1 1329.8633333333332 564.5 1354.93 547.84 C 1366.59 540.08 1378.82 530.59 1389.25 522.23 C 1404.26 510.23 1418.34 496.65 1431.46 482.1 C 1436.6466666666668 476.3466666666667 1441.8233333333333 470.55333333333334 1446.99 464.72 C 1447.2966666666666 464.37333333333333 1447.6333333333334 464.50333333333333 1448 465.11 L 1448 600.99 C 1440.58 601.7633333333333 1431.9966666666667 603.01 1422.25 604.73 C 1342.1366666666665 618.8366666666667 1265.6533333333332 642.7 1192.8 676.32 C 1150.54 695.82 1109.1466666666668 719.6600000000001 1068.62 747.84 C 1063.1733333333334 751.6266666666667 1057.77 755.5866666666667 1052.41 759.72 C 1032.1366666666668 775.3466666666667 1014.0966666666667 790.25 998.29 804.43 C 959.5633333333334 839.15 925.4233333333334 877.3566666666667 895.87 919.05 C 878.54 943.5 808.13 1079.95 795.29 1122.33 C 782.15 1165.6833333333332 772.5666666666667 1209.8366666666666 766.54 1254.79 C 759.4666666666666 1307.5833333333333 757.9733333333332 1360.6566666666668 762.06 1414.01 C 762.1733333333333 1415.43 762.7166666666667 1421.0866666666668 763.69 1430.98 C 764.25 1436.6466666666668 764.6866666666666 1442.32 765 1448 L 188.52 1448 C 189.07333333333332 1443.4533333333334 189.34333333333333 1438.8700000000001 189.33 1434.25 C 189.15 1358.2633333333333 189.06666666666666 1276.5966666666666 189.08 1189.25 C 189.08666666666667 1180.0166666666667 189.25333333333333 1170.4933333333333 189.58 1160.68 C 189.79333333333335 1154.3266666666668 190.37666666666667 1149.2733333333333 191.33 1145.52 C 195.61666666666667 1128.6133333333335 205.34666666666666 1114.5633333333333 220.52 1103.37 C 234.05 1093.39 250.44 1090.16 267.03 1091.66 C 297.91 1094.46 323.99 1118.83 329.54 1149.32 C 330.43333333333334 1154.2266666666667 330.86 1160.2566666666667 330.82 1167.41 C 330.70666666666665 1189.31 330.72999999999996 1208.6933333333334 330.89 1225.56 C 331.06333333333333 1244.2533333333333 336.93333333333334 1260.58 348.5 1274.54 C 366.49 1296.25 395.1 1307.64 423.16 1302.95 C 460.47 1296.7 490.27 1265.83 491.66 1227.47 C 492.3 1209.73 492.4533333333333 1187.0766666666666 492.12 1159.51 C 492.1152174582493 1159.111151784083 491.80324076610157 1158.7859929738256 491.4100000000001 1158.77 L 488.08 1158.59 C 487.62666666666667 1158.57 487.4 1158.7866666666666 487.4 1159.24 C 487.54 1178.2666666666667 487.57 1197.03 487.49 1215.53 C 487.4633333333333 1221.0033333333333 487.13 1226.6333333333334 486.49 1232.42 C 483.74 1257.35 468.5 1277.52 447.12 1289.81 C 431.43 1298.83 411.65 1301 393.93 1297.2 C 370.3 1292.12 351.47 1276.07 341.43 1254.38 C 337.92333333333335 1246.7866666666666 335.96333333333337 1239.36 335.55 1232.1 C 335.0966666666667 1224.0733333333333 334.9633333333333 1214.6166666666666 335.15 1203.73 C 335.3233333333333 1193.19 335.2866666666667 1180.3133333333333 335.04 1165.1 C 334.90666666666664 1156.8666666666666 334.4033333333333 1150.6366666666668 333.53 1146.41 C 328.98 1124.43 314.3 1106.18 294.81 1095.21 C 284.8 1089.58 273.97 1087.15 262.37 1086.81 C 244.40333333333334 1086.2833333333333 228.89666666666665 1090.9033333333334 215.85 1100.67 C 201.35 1111.52 189.65 1129.02 186.29 1146.88 C 185.14 1152.97 185.24 1159.48 185.24 1165.75 C 185.18 1259.8366666666668 185.15333333333334 1353.92 185.16 1448 L 0 1448 L 0 1099.19 C 60.49333333333333 1059.0966666666666 126.91333333333333 1034.26 199.26 1024.68 C 232.83333333333334 1020.2333333333333 266.5833333333333 1019.96 300.51 1023.86 C 344.76 1028.95 387.92 1040.05 428.68 1058.45 C 486.64666666666665 1084.63 537.0066666666667 1120.3966666666668 579.76 1165.75 C 625.68 1214.4633333333334 662.1633333333333 1270.1733333333334 689.21 1332.88 C 695.29 1346.98 701.39 1362.75 705.05 1377.83 C 705.25 1378.6499999999999 705.5366666666666 1379.43 705.91 1380.17 C 706.250779702637 1380.8408890022433 707.1658911904827 1380.9460742309875 707.65 1380.37 C 708.3833333333333 1379.49 708.98 1378.52 709.44 1377.46 C 715.82 1362.74 721.3 1347.9166666666667 725.88 1332.99 C 729.5666666666666 1320.9766666666667 733.2633333333333 1307.19 736.97 1291.63 C 738.5033333333333 1285.1833333333334 739.8466666666667 1278.6333333333334 741 1271.98 C 749.5066666666667 1222.9666666666667 750.63 1173.5166666666667 744.37 1123.63 C 743.59 1117.4233333333334 742.5933333333334 1111.0166666666667 741.38 1104.41 C 739.0933333333334 1091.95 736.95 1081.3133333333333 734.95 1072.5 C 730.1966666666667 1051.5666666666666 712.7566666666667 1002.1433333333333 710.81 997.51 C 699.8366666666667 971.4499999999999 686.38 945.62 670.44 920.02 C 659.3733333333333 902.24 650.44 888.89 643.64 879.97 C 620.0799999999999 849.0766666666667 595.8299999999999 821.73 570.89 797.93 C 527.59 756.6166666666667 478.86333333333334 722.0933333333334 424.71 694.36 C 390.45 676.8133333333333 354.14666666666665 662.84 315.8 652.44 C 314.12666666666667 651.9866666666667 312.17333333333335 652.16 309.94 652.96 C 291.50666666666666 640.4266666666666 271.50666666666666 637.9733333333334 249.94 645.6 C 247.56666666666666 644.22 244.58333333333334 643.47 240.99 643.35 C 219.37666666666667 642.6566666666666 201.79666666666665 642.4066666666666 188.25 642.6 C 153.17666666666665 643.0933333333334 118.50999999999999 647.07 84.25 654.53 C 57.903333333333336 660.2633333333333 29.819999999999997 668.4666666666667 0 679.14 L 0 0 Z M 537.34 444.63 C 510.06 472.16 498.6 507.32 501.76 546.2 C 504.74 582.89 522.57 616.08 551.54 638.96 C 572.8 655.7466666666667 597.0633333333333 664.7233333333334 624.33 665.89 C 657.2433333333333 667.29 686.76 657.52 712.88 636.58 C 743.35 612.17 760.26 573.56 759.22 534.33 C 758.9533333333334 524.07 757.6666666666667 514.0966666666667 755.36 504.41 C 752.84 493.8366666666667 748.5966666666667 483.24333333333334 742.63 472.63 C 739.2966666666666 466.7033333333333 735.6133333333333 461.0233333333333 731.58 455.59 C 717.62 436.77 698.06 423.15 676.13 414.28 C 644.88 401.64 606.91 404.26 576.31 417.4 C 561.65 423.69 548.61 433.25 537.34 444.63 Z"/></g></svg>