<?xml version="1.0" encoding="UTF-8" standalone="no"?>
<!DOCTYPE svg PUBLIC "-//W3C//DTD SVG 1.1//EN" "http://www.w3.org/Graphics/SVG/1.1/DTD/svg11.dtd">
<svg xmlns="http://www.w3.org/2000/svg" version="1.1" viewBox="0.00 0.00 1024.00 1024.00">
<g stroke-width="2.00" fill="none" stroke-linecap="butt">
<path stroke="#2b4a3a" vector-effect="non-scaling-stroke" d="
  M 47.37 0.00
  L 47.80 0.19
  A 0.49 0.49 0.0 0 1 48.05 0.86
  C 40.04 16.58 35.70 33.01 32.91 50.38
  C 23.17 110.99 42.41 172.47 86.53 215.01
  Q 112.56 240.11 144.64 253.59
  Q 205.68 279.26 270.48 259.48
  Q 302.51 249.71 330.99 227.97
  Q 338.98 221.87 346.08 214.64
  Q 359.59 200.87 368.52 187.85
  Q 393.39 151.56 398.97 107.47
  C 400.31 96.81 400.25 85.02 400.02 74.36
  Q 399.43 47.62 389.55 20.03
  Q 385.98 10.04 382.25 0.00"
/>
<path stroke="#18382f" vector-effect="non-scaling-stroke" d="
  M 569.52 0.00
  Q 572.03 2.97 573.86 6.39
  Q 573.95 6.56 574.13 6.49
  L 574.13 6.48
  Q 574.31 6.40 574.23 6.23
  C 573.28 4.00 571.90 2.55 571.78 0.00"
/>
<path stroke="#18382f" vector-effect="non-scaling-stroke" d="
  M 592.32 0.00
  Q 585.74 5.94 577.96 9.50
  Q 577.44 9.74 576.87 9.63
  Q 576.32 9.52 576.24 10.11
  Q 576.17 10.66 575.71 10.98
  L 561.48 20.52"
/>
<path stroke="#2b4a3a" vector-effect="non-scaling-stroke" d="
  M 561.48 20.52
  L 543.84 31.87"
/>
<path stroke="#18382f" vector-effect="non-scaling-stroke" d="
  M 543.84 31.87
  Q 534.94 37.65 530.76 40.77
  Q 523.95 45.87 517.03 50.81
  Q 514.48 52.63 504.85 60.67
  Q 504.61 60.86 504.88 61.02
  L 505.14 61.18
  Q 505.16 61.19 505.18 61.17
  C 509.05 58.09 512.74 54.84 516.74 51.89
  Q 530.25 41.93 544.07 32.34"
/>
<path stroke="#2b4a3a" vector-effect="non-scaling-stroke" d="
  M 544.07 32.34
  L 561.95 20.75"
/>
<path stroke="#18382f" vector-effect="non-scaling-stroke" d="
  M 561.95 20.75
  L 576.59 11.05
  A 0.43 0.42 63.7 0 1 577.23 11.27
  Q 577.30 11.48 577.52 11.57
  Q 578.08 11.77 577.74 11.29
  Q 577.41 10.82 577.90 10.56
  Q 585.21 6.77 592.36 1.27
  C 593.44 0.44 594.61 0.31 595.88 0.00"
/>
<path stroke="#18382f" vector-effect="non-scaling-stroke" d="
  M 695.80 0.00
  Q 695.85 8.01 694.93 12.24
  Q 693.77 17.57 689.95 27.24
  Q 689.94 27.29 689.98 27.30
  L 690.22 27.40
  A 0.31 0.30 -68.7 0 0 690.62 27.22
  Q 691.09 25.96 691.76 24.71
  Q 692.41 23.51 692.87 22.10
  Q 696.40 11.32 697.10 0.00"
/>
<path stroke="#828b7d" vector-effect="non-scaling-stroke" d="
  M 748.28 0.00
  Q 741.87 17.62 731.77 33.48
  C 727.66 39.95 722.77 46.04 718.19 52.28
  C 700.35 76.57 677.38 94.09 653.61 112.86
  C 635.90 126.84 619.59 142.30 606.85 160.59
  Q 604.52 163.92 602.64 167.59
  C 598.62 175.38 594.55 184.73 592.28 193.10
  C 588.21 208.09 587.03 223.68 588.91 239.27
  Q 590.06 248.79 591.75 256.64
  Q 593.81 266.18 599.32 280.64
  C 602.55 289.13 606.97 297.50 611.33 305.53
  C 625.66 331.96 645.59 355.38 669.06 375.21
  C 706.55 406.90 752.86 427.16 801.82 430.75
  C 825.74 432.51 850.71 431.17 874.00 425.08
  C 884.56 422.32 894.56 419.35 904.37 415.17"
/>
<path stroke="#18382f" vector-effect="non-scaling-stroke" d="
  M 904.37 415.17
  Q 931.82 404.73 956.54 388.57
  Q 963.16 384.23 970.68 378.50
  Q 981.22 370.45 984.37 367.83
  C 993.83 359.93 1003.86 350.57 1012.47 340.78
  Q 1017.29 335.30 1022.07 329.88
  Q 1022.62 329.26 1023.13 328.57
  Q 1023.50 328.08 1023.79 328.62
  L 1024.00 329.00"
/>
<path stroke="#2b4a3a" vector-effect="non-scaling-stroke" d="
  M 1024.00 425.05
  Q 1020.50 425.29 1017.01 425.83
  Q 952.42 435.89 891.30 458.51
  Q 844.43 475.86 804.72 498.12
  Q 784.71 509.34 761.55 524.84
  Q 752.76 530.72 745.01 536.72
  Q 725.57 551.78 710.70 564.74
  Q 681.74 589.97 656.17 620.57
  Q 633.14 648.12 615.85 677.34
  Q 608.06 690.51 600.11 704.26
  Q 599.86 704.69 599.37 704.72
  Q 598.34 704.78 597.32 704.73
  Q 580.10 703.84 563.10 705.25
  C 561.39 705.39 559.69 705.15 558.08 705.35
  Q 551.24 706.18 544.27 706.71
  Q 537.17 707.26 530.31 708.48
  Q 522.45 709.89 513.75 711.14
  Q 513.16 711.22 513.26 711.52"
/>
<path stroke="#828b7d" vector-effect="non-scaling-stroke" d="
  M 513.26 711.52
  Q 511.06 711.85 508.86 712.13
  Q 508.78 712.14 508.86 712.18
  Q 508.90 712.20 508.94 712.23
  Q 509.02 712.29 509.12 712.28
  Q 511.26 712.21 513.26 711.52"
/>
<path stroke="#2b4a3a" vector-effect="non-scaling-stroke" d="
  M 513.26 711.52
  Q 515.69 711.52 518.04 711.05
  Q 520.66 710.52 522.51 710.39
  Q 524.75 710.24 526.99 709.79
  Q 535.10 708.13 543.74 707.43
  Q 549.76 706.94 555.44 706.29
  Q 560.39 705.71 566.06 705.34
  Q 571.44 704.98 576.70 704.72
  Q 586.90 704.22 598.66 705.67
  Q 599.36 705.75 599.01 706.37
  Q 592.06 718.83 587.36 728.77
  Q 570.50 764.40 559.08 805.27
  Q 551.48 832.49 547.43 854.57
  Q 542.12 883.59 540.14 903.50
  C 536.56 939.66 536.25 976.87 540.19 1013.32
  Q 540.77 1018.66 541.06 1024.00"
/>
<path stroke="#828b7d" vector-effect="non-scaling-stroke" d="
  M 133.31 1024.00
  Q 133.78 1018.44 133.76 1012.75
  Q 133.49 930.71 133.60 840.69
  Q 133.61 833.26 133.77 824.72
  Q 133.96 814.34 135.28 809.37
  C 138.97 795.48 148.68 783.55 161.11 776.89
  Q 169.98 772.13 181.83 771.76
  Q 202.57 771.10 217.35 784.71
  Q 233.88 799.93 233.90 822.24
  Q 233.93 846.09 234.05 867.29
  C 234.19 892.26 251.74 913.59 275.64 920.10
  C 297.95 926.18 320.95 917.95 335.57 899.96
  Q 347.23 885.62 347.69 866.81
  Q 348.25 844.02 347.88 820.19
  Q 347.87 819.59 347.28 819.56
  L 345.27 819.47
  Q 344.71 819.44 344.72 820.00
  Q 344.96 839.38 344.78 859.25
  C 344.73 864.71 344.41 870.49 343.45 875.79
  C 340.86 890.13 332.25 901.50 320.32 909.80
  C 306.72 919.26 288.96 921.06 273.18 916.13
  C 253.59 910.01 238.05 890.42 237.04 870.19
  Q 236.77 864.74 236.84 859.96
  Q 237.18 837.66 236.67 818.94
  C 236.16 800.24 224.43 783.55 208.02 774.47
  Q 199.38 769.69 188.73 768.87
  Q 156.73 766.40 138.95 793.62
  Q 132.78 803.06 131.37 813.77
  Q 130.99 816.73 130.98 833.75
  Q 130.95 928.88 130.95 1024.00"
/>
<path stroke="#18382f" vector-effect="non-scaling-stroke" d="
  M 0.00 777.31
  Q 64.71 734.53 142.07 724.50
  C 182.56 719.24 224.57 723.12 264.03 734.23
  Q 274.33 737.13 283.39 740.51
  Q 347.84 764.57 398.72 812.97
  Q 405.18 819.12 412.62 827.21
  Q 449.11 866.91 474.01 914.48
  Q 487.50 940.25 495.99 965.21
  C 497.25 968.94 498.08 972.65 499.32 976.41
  A 0.43 0.42 -26.8 0 0 499.97 976.62
  Q 500.38 976.33 500.62 975.87
  Q 502.82 971.64 504.60 967.25
  Q 508.90 956.64 512.95 944.16
  Q 515.22 937.16 519.60 919.97
  Q 522.43 908.86 523.93 900.34
  Q 533.63 845.05 525.72 789.32
  C 524.86 783.32 523.47 777.23 522.42 771.17
  C 519.18 752.59 513.51 734.16 506.56 715.89
  Q 506.22 715.01 505.57 714.33
  Q 505.18 713.92 505.61 713.54
  Q 505.95 713.25 506.38 713.16
  Q 506.81 713.07 507.19 712.81
  Q 507.94 712.30 507.05 712.48
  Q 506.63 712.57 506.21 712.58
  Q 505.71 712.60 505.49 712.15
  C 504.01 709.15 502.97 706.12 501.64 703.07
  Q 490.43 677.28 475.62 652.88
  C 471.36 645.86 466.62 639.04 462.05 632.10
  Q 456.77 624.11 451.32 617.20
  Q 439.49 602.21 426.41 587.66
  Q 378.38 534.25 313.83 498.20
  Q 270.97 474.26 223.25 461.46
  Q 221.87 461.09 218.70 461.58"
/>
<path stroke="#828b7d" vector-effect="non-scaling-stroke" d="
  M 218.70 461.58
  Q 199.50 448.66 176.73 456.61"
/>
<path stroke="#18382f" vector-effect="non-scaling-stroke" d="
  M 176.73 456.61
  Q 175.61 455.53 172.75 455.33
  Q 134.92 452.81 102.00 456.10
  Q 75.93 458.70 50.50 464.93
  Q 24.99 471.19 0.00 480.36"
/>
<path stroke="#18382f" vector-effect="non-scaling-stroke" d="
  M 672.94 48.24
  Q 674.64 47.69 675.11 46.65
  Q 675.36 46.08 674.83 46.41
  Q 673.68 47.11 672.94 48.24"
/>
<path stroke="#18382f" vector-effect="non-scaling-stroke" d="
  M 672.94 48.24
  C 665.60 52.33 658.48 56.61 650.01 57.31
  C 646.26 57.62 642.62 58.37 638.90 58.00
  Q 615.16 55.67 599.76 39.23
  Q 589.32 28.08 578.83 12.07
  A 0.07 0.07 0.0 0 0 578.73 12.05
  L 578.50 12.20
  Q 578.21 12.39 578.41 12.68
  Q 588.93 28.43 599.60 39.81
  Q 607.15 47.88 617.30 53.06
  Q 622.84 55.89 630.40 57.57
  C 644.81 60.78 660.47 57.33 672.53 48.99
  Q 673.09 48.60 672.94 48.24"
/>
<path stroke="#18382f" vector-effect="non-scaling-stroke" d="
  M 687.2598 32.7764
  A 2.57 0.34 118.6 0 0 688.7885 30.6828
  A 2.57 0.34 118.6 0 0 689.7202 28.2636
  A 2.57 0.34 118.6 0 0 688.1915 30.3572
  A 2.57 0.34 118.6 0 0 687.2598 32.7764"
/>
<path stroke="#18382f" vector-effect="non-scaling-stroke" d="
  M 494.9562 71.1622
  A 2.00 0.26 132.6 0 0 496.5014 69.8660
  A 2.00 0.26 132.6 0 0 497.6638 68.2178
  A 2.00 0.26 132.6 0 0 496.1186 69.5140
  A 2.00 0.26 132.6 0 0 494.9562 71.1622"
/>
<path stroke="#18382f" vector-effect="non-scaling-stroke" d="
  M 487.3799 79.7328
  A 4.39 0.31 129.8 0 0 490.4282 76.5584
  A 4.39 0.31 129.8 0 0 493.0001 72.9872
  A 4.39 0.31 129.8 0 0 489.9518 76.1616
  A 4.39 0.31 129.8 0 0 487.3799 79.7328"
/>
<path stroke="#2b4a3a" vector-effect="non-scaling-stroke" d="
  M 462.17 134.18
  Q 461.39 139.08 461.53 143.25
  Q 462.05 158.83 467.74 173.79"
/>
<path stroke="#18382f" vector-effect="non-scaling-stroke" d="
  M 467.74 173.79
  Q 472.06 184.86 479.10 194.44
  C 486.59 204.63 495.66 214.18 505.99 221.51
  C 510.82 224.93 515.44 228.25 520.62 231.17
  Q 534.17 238.78 546.80 246.39
  C 552.23 249.66 557.42 253.62 562.99 256.99
  Q 563.34 257.20 563.48 256.89"
/>
<path stroke="#2b4a3a" vector-effect="non-scaling-stroke" d="
  M 563.48 256.89
  L 570.49 262.01"
/>
<path stroke="#2b4a3a" vector-effect="non-scaling-stroke" d="
  M 570.49 262.01
  Q 574.00 264.99 576.47 266.69
  Q 577.76 267.58 576.66 266.46
  Q 574.36 264.11 570.49 262.01"
/>
<path stroke="#2b4a3a" vector-effect="non-scaling-stroke" d="
  M 570.49 262.01
  Q 567.60 258.80 563.48 256.89"
/>
<path stroke="#18382f" vector-effect="non-scaling-stroke" d="
  M 563.48 256.89
  Q 559.38 253.98 555.23 251.06
  Q 551.12 248.16 546.74 245.59
  Q 534.34 238.30 522.93 231.62
  Q 521.54 230.81 520.18 230.01
  Q 509.01 223.48 498.05 214.48
  Q 489.02 207.07 479.00 193.26
  Q 472.32 184.06 468.15 173.50"
/>
<path stroke="#2b4a3a" vector-effect="non-scaling-stroke" d="
  M 468.15 173.50
  Q 461.12 155.07 462.53 135.46"
/>
<path stroke="#18382f" vector-effect="non-scaling-stroke" d="
  M 462.53 135.46
  Q 465.35 109.80 480.41 88.97
  Q 480.52 88.81 480.36 88.69
  L 480.12 88.52
  Q 480.11 88.51 480.11 88.52
  Q 469.74 102.94 464.84 120.04
  Q 462.84 127.02 462.17 134.18"
/>
<path stroke="#3a664f" vector-effect="non-scaling-stroke" d="
  M 462.53 135.46
  Q 462.85 134.14 462.17 134.18"
/>
<path stroke="#3a664f" vector-effect="non-scaling-stroke" d="
  M 468.15 173.50
  Q 468.09 173.75 467.74 173.79"
/>
<path stroke="#2b4a3a" vector-effect="non-scaling-stroke" d="
  M 584.48 273.04
  L 587.12 275.44
  Q 587.86 276.12 587.36 275.25
  Q 586.48 273.69 584.48 273.04"
/>
<path stroke="#2b4a3a" vector-effect="non-scaling-stroke" d="
  M 584.48 273.04
  Q 582.20 270.67 579.67 268.93
  Q 578.00 267.78 579.41 269.24
  Q 581.34 271.21 584.48 273.04"
/>
<path stroke="#18382f" vector-effect="non-scaling-stroke" d="
  M 592.75 280.50
  Q 595.35 283.62 596.68 284.50
  Q 600.96 287.33 597.54 283.50
  Q 596.14 281.92 592.75 280.50"
/>
<path stroke="#2b4a3a" vector-effect="non-scaling-stroke" d="
  M 592.75 280.50
  Q 590.77 277.95 588.51 276.27
  Q 587.73 275.69 588.37 276.42
  Q 590.63 278.98 592.75 280.50"
/>
<path stroke="#18382f" vector-effect="non-scaling-stroke" d="
  M 536.93 375.56
  Q 536.14 359.64 531.11 346.45
  Q 527.23 336.27 519.76 325.29
  C 509.51 310.23 495.26 299.74 478.20 292.85
  Q 467.06 288.35 453.81 287.32
  C 432.40 285.66 408.22 291.36 390.68 304.86
  Q 353.08 333.80 354.39 380.88
  C 355.20 409.97 368.66 435.94 391.80 453.37
  Q 415.84 471.47 447.58 471.16
  C 479.74 470.84 511.14 452.06 526.08 423.88
  Q 538.21 401.01 536.93 375.56"
/>
<path stroke="#3a664f" vector-effect="non-scaling-stroke" d="
  M 561.95 20.75
  Q 561.75 20.76 561.48 20.52"
/>
<path stroke="#91a792" vector-effect="non-scaling-stroke" d="
  M 750.93 0.00
  Q 748.97 6.73 745.84 13.07
  C 739.59 25.75 732.62 38.56 724.11 49.89
  Q 710.41 68.15 696.27 81.02
  Q 681.58 94.40 668.76 104.28
  Q 653.12 116.34 639.14 128.64
  Q 624.30 141.70 614.09 156.21
  C 610.69 161.06 607.16 165.88 604.32 170.86
  Q 593.14 190.40 591.29 212.64
  Q 590.04 227.61 591.24 238.28
  Q 594.13 264.17 605.17 288.61
  Q 613.70 307.50 628.14 328.15
  Q 633.68 336.07 640.65 344.02
  Q 649.99 354.68 658.11 362.60
  C 678.22 382.24 702.30 398.50 728.57 409.95
  Q 737.71 413.94 744.74 416.48
  Q 755.03 420.19 769.45 423.18"
/>
<path stroke="#828b7d" vector-effect="non-scaling-stroke" d="
  M 769.45 423.18
  Q 783.00 426.51 795.01 427.74
  Q 817.18 430.02 840.59 428.25"
/>
<path stroke="#91a792" vector-effect="non-scaling-stroke" d="
  M 840.59 428.25
  Q 853.39 427.65 861.50 426.08
  Q 879.58 422.59 904.37 415.17"
/>
<path stroke="#18382f" vector-effect="non-scaling-stroke" d="
  M 840.59 428.25
  Q 826.52 427.93 812.75 427.83
  Q 799.92 427.74 784.43 425.39
  Q 784.34 425.38 777.42 423.94
  Q 773.43 423.11 769.45 423.18"
/>
<path stroke="#91a792" vector-effect="non-scaling-stroke" d="
  M 769.08 218.49
  Q 774.17 225.17 781.07 231.20
  Q 805.51 252.55 837.00 253.06
  C 863.06 253.49 887.68 242.23 905.86 223.58
  Q 908.87 220.49 912.36 216.30
  Q 915.73 212.25 917.71 208.12
  Q 921.31 200.64 923.57 194.89
  Q 931.71 174.23 928.55 151.50
  Q 925.90 132.40 916.99 117.95"
/>
<path stroke="#18382f" vector-effect="non-scaling-stroke" d="
  M 916.99 117.95
  Q 902.26 91.44 874.81 78.38
  C 848.46 65.84 815.80 67.50 791.43 82.73
  Q 770.20 96.00 759.11 116.51
  Q 740.35 151.21 752.95 189.49
  Q 758.17 205.32 769.08 218.49"
/>
<path stroke="#828b7d" vector-effect="non-scaling-stroke" d="
  M 916.99 117.95
  Q 931.54 147.98 924.44 180.00
  Q 922.97 186.62 919.65 194.76
  C 917.97 198.88 915.08 203.04 912.41 206.67
  Q 907.57 213.23 901.93 220.20
  Q 894.45 229.45 883.95 235.71
  C 853.35 253.96 816.56 252.44 786.50 233.73
  Q 778.36 228.66 769.08 218.49"
/>
<path stroke="#3a664f" vector-effect="non-scaling-stroke" d="
  M 544.07 32.34
  Q 543.95 32.11 543.84 31.87"
/>
<path stroke="#a4b99d" vector-effect="non-scaling-stroke" d="
  M 1024.00 481.00
  Q 1013.23 483.29 1002.78 486.55
  Q 982.08 493.01 963.29 500.25
  Q 922.47 515.99 884.35 538.11
  C 874.64 543.74 864.78 550.20 855.67 556.63
  Q 824.13 578.89 797.33 606.92
  Q 782.03 622.91 770.64 637.41
  C 758.92 652.31 747.54 668.28 738.39 684.36
  Q 722.66 712.04 711.65 742.59
  C 702.85 767.01 696.89 791.18 694.25 815.90
  Q 693.01 827.42 693.01 831.75
  Q 692.87 927.88 692.94 1024.00"
/>
<path stroke="#91a792" vector-effect="non-scaling-stroke" d="
  M 218.70 461.58
  Q 224.80 467.02 226.72 469.79
  Q 236.65 484.07 234.58 500.55
  C 232.07 520.52 214.49 536.31 194.40 536.76
  C 169.88 537.31 151.69 518.75 151.62 494.43
  Q 151.58 484.96 153.84 479.56
  Q 160.31 464.06 176.73 456.61"
/>
<path stroke="#91a792" vector-effect="non-scaling-stroke" d="
  M 377.37 672.58
  Q 385.83 682.62 395.15 691.64
  Q 399.45 695.80 404.24 699.59
  Q 408.92 703.30 413.56 706.33
  Q 431.61 718.07 455.06 718.90
  Q 468.20 719.36 480.78 717.68
  Q 492.36 716.13 504.37 713.72
  Q 504.59 713.68 504.54 713.46
  L 504.54 713.45
  Q 504.50 713.21 504.26 713.26
  Q 489.37 716.09 474.32 717.71
  C 468.22 718.37 462.30 718.19 456.02 718.16
  Q 448.32 718.13 438.61 716.03
  Q 424.71 713.02 412.88 705.20
  Q 404.82 699.88 399.09 694.56
  Q 394.53 690.32 390.02 685.78
  Q 384.81 680.53 380.35 675.26
  Q 363.42 655.28 349.37 640.11
  Q 333.60 623.09 313.29 606.12
  Q 298.83 594.05 282.81 582.84
  Q 282.63 582.72 282.51 582.89
  L 282.50 582.90
  Q 282.44 582.99 282.53 583.05
  Q 293.63 591.40 304.67 599.69
  C 306.99 601.43 309.04 603.49 311.33 605.34
  Q 329.83 620.27 347.81 639.28
  C 350.87 642.52 353.62 645.92 356.72 649.09
  C 363.99 656.53 370.79 664.78 377.37 672.58"
/>
<path stroke="#91a792" vector-effect="non-scaling-stroke" d="
  M 1024.00 482.50
  Q 972.20 496.90 923.55 519.80
  C 891.01 535.13 860.32 553.65 833.55 576.03
  Q 800.66 603.53 773.51 636.88
  Q 767.97 643.68 762.41 651.34
  Q 756.59 659.36 751.73 666.70
  Q 720.63 713.67 705.10 769.27
  Q 696.80 799.01 695.21 828.32
  Q 694.84 835.26 694.83 843.00
  Q 694.69 933.50 694.73 1024.00"
/>
<path stroke="#91a792" vector-effect="non-scaling-stroke" d="
  M 1024.00 608.25
  Q 1016.84 604.60 1009.99 602.47
  Q 998.36 598.85 985.58 596.96
  Q 969.46 594.57 955.03 594.40
  Q 933.07 594.15 911.19 599.05
  Q 890.39 603.70 867.73 614.46
  C 842.01 626.66 818.40 645.89 799.66 666.82
  C 780.25 688.49 764.16 712.77 752.26 739.29
  Q 748.14 748.47 744.92 758.05
  Q 735.98 784.69 732.40 805.19
  Q 726.02 841.68 729.29 880.49
  Q 730.00 888.98 731.22 897.98
  Q 733.16 912.24 737.05 927.25
  Q 750.28 978.28 778.23 1022.36
  C 778.60 1022.94 779.22 1023.40 779.50 1024.00"
/>
<path stroke="#91a792" vector-effect="non-scaling-stroke" d="
  M 1024.00 608.91
  C 1018.04 606.68 1012.23 604.36 1006.07 602.69
  Q 977.66 595.00 946.24 595.79
  Q 927.95 596.26 910.69 600.48
  Q 860.94 612.65 822.89 645.85
  Q 796.74 668.67 777.20 697.39
  Q 763.30 717.82 754.43 737.39
  Q 743.54 761.43 736.11 793.61
  Q 733.98 802.80 732.60 812.60
  Q 725.74 861.17 734.34 909.21
  Q 737.81 928.62 744.52 948.49
  C 753.39 974.76 764.63 999.38 779.70 1022.51
  Q 780.12 1023.16 779.93 1024.00"
/>
<path stroke="#91a792" vector-effect="non-scaling-stroke" d="
  M 1024.00 765.76
  Q 965.25 765.76 906.50 765.74
  Q 888.96 765.73 882.76 766.28
  Q 840.10 770.08 811.65 800.72
  C 807.81 804.87 804.26 809.64 800.97 814.33
  C 797.04 819.94 793.22 827.09 791.17 833.76
  Q 787.06 847.21 786.24 856.52
  Q 785.23 867.88 785.24 875.00
  Q 785.28 911.28 785.29 944.50
  Q 785.31 984.25 785.04 1024.00"
/>
<path stroke="#91a792" vector-effect="non-scaling-stroke" d="
  M 1024.00 770.00
  Q 964.63 769.77 905.25 770.01
  Q 893.59 770.06 885.23 770.73
  C 858.99 772.84 836.39 783.16 817.11 801.94
  C 813.43 805.52 810.40 810.29 807.28 814.51
  Q 804.82 817.82 799.30 828.26
  Q 791.31 843.37 790.16 861.50
  Q 789.61 870.28 789.59 875.63
  Q 789.45 933.21 789.32 979.76
  C 789.28 994.51 789.62 1009.25 789.50 1024.00"
/>
</g>
<path fill="#091c1a" d="
  M 0.00 0.00
  L 47.37 0.00
  L 47.80 0.19
  A 0.49 0.49 0.0 0 1 48.05 0.86
  C 40.04 16.58 35.70 33.01 32.91 50.38
  C 23.17 110.99 42.41 172.47 86.53 215.01
  Q 112.56 240.11 144.64 253.59
  Q 205.68 279.26 270.48 259.48
  Q 302.51 249.71 330.99 227.97
  Q 338.98 221.87 346.08 214.64
  Q 359.59 200.87 368.52 187.85
  Q 393.39 151.56 398.97 107.47
  C 400.31 96.81 400.25 85.02 400.02 74.36
  Q 399.43 47.62 389.55 20.03
  Q 385.98 10.04 382.25 0.00
  L 569.52 0.00
  Q 572.03 2.97 573.86 6.39
  Q 573.95 6.56 574.13 6.49
  L 574.13 6.48
  Q 574.31 6.40 574.23 6.23
  C 573.28 4.00 571.90 2.55 571.78 0.00
  L 592.32 0.00
  Q 585.74 5.94 577.96 9.50
  Q 577.44 9.74 576.87 9.63
  Q 576.32 9.52 576.24 10.11
  Q 576.17 10.66 575.71 10.98
  L 561.48 20.52
  L 543.84 31.87
  Q 534.94 37.65 530.76 40.77
  Q 523.95 45.87 517.03 50.81
  Q 514.48 52.63 504.85 60.67
  Q 504.61 60.86 504.88 61.02
  L 505.14 61.18
  Q 505.16 61.19 505.18 61.17
  C 509.05 58.09 512.74 54.84 516.74 51.89
  Q 530.25 41.93 544.07 32.34
  L 561.95 20.75
  L 576.59 11.05
  A 0.43 0.42 63.7 0 1 577.23 11.27
  Q 577.30 11.48 577.52 11.57
  Q 578.08 11.77 577.74 11.29
  Q 577.41 10.82 577.90 10.56
  Q 585.21 6.77 592.36 1.27
  C 593.44 0.44 594.61 0.31 595.88 0.00
  L 695.80 0.00
  Q 695.85 8.01 694.93 12.24
  Q 693.77 17.57 689.95 27.24
  Q 689.94 27.29 689.98 27.30
  L 690.22 27.40
  A 0.31 0.30 -68.7 0 0 690.62 27.22
  Q 691.09 25.96 691.76 24.71
  Q 692.41 23.51 692.87 22.10
  Q 696.40 11.32 697.10 0.00
  L 748.28 0.00
  Q 741.87 17.62 731.77 33.48
  C 727.66 39.95 722.77 46.04 718.19 52.28
  C 700.35 76.57 677.38 94.09 653.61 112.86
  C 635.90 126.84 619.59 142.30 606.85 160.59
  Q 604.52 163.92 602.64 167.59
  C 598.62 175.38 594.55 184.73 592.28 193.10
  C 588.21 208.09 587.03 223.68 588.91 239.27
  Q 590.06 248.79 591.75 256.64
  Q 593.81 266.18 599.32 280.64
  C 602.55 289.13 606.97 297.50 611.33 305.53
  C 625.66 331.96 645.59 355.38 669.06 375.21
  C 706.55 406.90 752.86 427.16 801.82 430.75
  C 825.74 432.51 850.71 431.17 874.00 425.08
  C 884.56 422.32 894.56 419.35 904.37 415.17
  Q 931.82 404.73 956.54 388.57
  Q 963.16 384.23 970.68 378.50
  Q 981.22 370.45 984.37 367.83
  C 993.83 359.93 1003.86 350.57 1012.47 340.78
  Q 1017.29 335.30 1022.07 329.88
  Q 1022.62 329.26 1023.13 328.57
  Q 1023.50 328.08 1023.79 328.62
  L 1024.00 329.00
  L 1024.00 425.05
  Q 1020.50 425.29 1017.01 425.83
  Q 952.42 435.89 891.30 458.51
  Q 844.43 475.86 804.72 498.12
  Q 784.71 509.34 761.55 524.84
  Q 752.76 530.72 745.01 536.72
  Q 725.57 551.78 710.70 564.74
  Q 681.74 589.97 656.17 620.57
  Q 633.14 648.12 615.85 677.34
  Q 608.06 690.51 600.11 704.26
  Q 599.86 704.69 599.37 704.72
  Q 598.34 704.78 597.32 704.73
  Q 580.10 703.84 563.10 705.25
  C 561.39 705.39 559.69 705.15 558.08 705.35
  Q 551.24 706.18 544.27 706.71
  Q 537.17 707.26 530.31 708.48
  Q 522.45 709.89 513.75 711.14
  Q 513.16 711.22 513.26 711.52
  Q 511.06 711.85 508.86 712.13
  Q 508.78 712.14 508.86 712.18
  Q 508.90 712.20 508.94 712.23
  Q 509.02 712.29 509.12 712.28
  Q 511.26 712.21 513.26 711.52
  Q 515.69 711.52 518.04 711.05
  Q 520.66 710.52 522.51 710.39
  Q 524.75 710.24 526.99 709.79
  Q 535.10 708.13 543.74 707.43
  Q 549.76 706.94 555.44 706.29
  Q 560.39 705.71 566.06 705.34
  Q 571.44 704.98 576.70 704.72
  Q 586.90 704.22 598.66 705.67
  Q 599.36 705.75 599.01 706.37
  Q 592.06 718.83 587.36 728.77
  Q 570.50 764.40 559.08 805.27
  Q 551.48 832.49 547.43 854.57
  Q 542.12 883.59 540.14 903.50
  C 536.56 939.66 536.25 976.87 540.19 1013.32
  Q 540.77 1018.66 541.06 1024.00
  L 133.31 1024.00
  Q 133.78 1018.44 133.76 1012.75
  Q 133.49 930.71 133.60 840.69
  Q 133.61 833.26 133.77 824.72
  Q 133.96 814.34 135.28 809.37
  C 138.97 795.48 148.68 783.55 161.11 776.89
  Q 169.98 772.13 181.83 771.76
  Q 202.57 771.10 217.35 784.71
  Q 233.88 799.93 233.90 822.24
  Q 233.93 846.09 234.05 867.29
  C 234.19 892.26 251.74 913.59 275.64 920.10
  C 297.95 926.18 320.95 917.95 335.57 899.96
  Q 347.23 885.62 347.69 866.81
  Q 348.25 844.02 347.88 820.19
  Q 347.87 819.59 347.28 819.56
  L 345.27 819.47
  Q 344.71 819.44 344.72 820.00
  Q 344.96 839.38 344.78 859.25
  C 344.73 864.71 344.41 870.49 343.45 875.79
  C 340.86 890.13 332.25 901.50 320.32 909.80
  C 306.72 919.26 288.96 921.06 273.18 916.13
  C 253.59 910.01 238.05 890.42 237.04 870.19
  Q 236.77 864.74 236.84 859.96
  Q 237.18 837.66 236.67 818.94
  C 236.16 800.24 224.43 783.55 208.02 774.47
  Q 199.38 769.69 188.73 768.87
  Q 156.73 766.40 138.95 793.62
  Q 132.78 803.06 131.37 813.77
  Q 130.99 816.73 130.98 833.75
  Q 130.95 928.88 130.95 1024.00
  L 0.00 1024.00
  L 0.00 777.31
  Q 64.71 734.53 142.07 724.50
  C 182.56 719.24 224.57 723.12 264.03 734.23
  Q 274.33 737.13 283.39 740.51
  Q 347.84 764.57 398.72 812.97
  Q 405.18 819.12 412.62 827.21
  Q 449.11 866.91 474.01 914.48
  Q 487.50 940.25 495.99 965.21
  C 497.25 968.94 498.08 972.65 499.32 976.41
  A 0.43 0.42 -26.8 0 0 499.97 976.62
  Q 500.38 976.33 500.62 975.87
  Q 502.82 971.64 504.60 967.25
  Q 508.90 956.64 512.95 944.16
  Q 515.22 937.16 519.60 919.97
  Q 522.43 908.86 523.93 900.34
  Q 533.63 845.05 525.72 789.32
  C 524.86 783.32 523.47 777.23 522.42 771.17
  C 519.18 752.59 513.51 734.16 506.56 715.89
  Q 506.22 715.01 505.57 714.33
  Q 505.18 713.92 505.61 713.54
  Q 505.95 713.25 506.38 713.16
  Q 506.81 713.07 507.19 712.81
  Q 507.94 712.30 507.05 712.48
  Q 506.63 712.57 506.21 712.58
  Q 505.71 712.60 505.49 712.15
  C 504.01 709.15 502.97 706.12 501.64 703.07
  Q 490.43 677.28 475.62 652.88
  C 471.36 645.86 466.62 639.04 462.05 632.10
  Q 456.77 624.11 451.32 617.20
  Q 439.49 602.21 426.41 587.66
  Q 378.38 534.25 313.83 498.20
  Q 270.97 474.26 223.25 461.46
  Q 221.87 461.09 218.70 461.58
  Q 199.50 448.66 176.73 456.61
  Q 175.61 455.53 172.75 455.33
  Q 134.92 452.81 102.00 456.10
  Q 75.93 458.70 50.50 464.93
  Q 24.99 471.19 0.00 480.36
  L 0.00 0.00
  Z
  M 672.94 48.24
  Q 674.64 47.69 675.11 46.65
  Q 675.36 46.08 674.83 46.41
  Q 673.68 47.11 672.94 48.24
  C 665.60 52.33 658.48 56.61 650.01 57.31
  C 646.26 57.62 642.62 58.37 638.90 58.00
  Q 615.16 55.67 599.76 39.23
  Q 589.32 28.08 578.83 12.07
  A 0.07 0.07 0.0 0 0 578.73 12.05
  L 578.50 12.20
  Q 578.21 12.39 578.41 12.68
  Q 588.93 28.43 599.60 39.81
  Q 607.15 47.88 617.30 53.06
  Q 622.84 55.89 630.40 57.57
  C 644.81 60.78 660.47 57.33 672.53 48.99
  Q 673.09 48.60 672.94 48.24
  Z
  M 687.2598 32.7764
  A 2.57 0.34 118.6 0 0 688.7885 30.6828
  A 2.57 0.34 118.6 0 0 689.7202 28.2636
  A 2.57 0.34 118.6 0 0 688.1915 30.3572
  A 2.57 0.34 118.6 0 0 687.2598 32.7764
  Z
  M 494.9562 71.1622
  A 2.00 0.26 132.6 0 0 496.5014 69.8660
  A 2.00 0.26 132.6 0 0 497.6638 68.2178
  A 2.00 0.26 132.6 0 0 496.1186 69.5140
  A 2.00 0.26 132.6 0 0 494.9562 71.1622
  Z
  M 487.3799 79.7328
  A 4.39 0.31 129.8 0 0 490.4282 76.5584
  A 4.39 0.31 129.8 0 0 493.0001 72.9872
  A 4.39 0.31 129.8 0 0 489.9518 76.1616
  A 4.39 0.31 129.8 0 0 487.3799 79.7328
  Z
  M 462.17 134.18
  Q 461.39 139.08 461.53 143.25
  Q 462.05 158.83 467.74 173.79
  Q 472.06 184.86 479.10 194.44
  C 486.59 204.63 495.66 214.18 505.99 221.51
  C 510.82 224.93 515.44 228.25 520.62 231.17
  Q 534.17 238.78 546.80 246.39
  C 552.23 249.66 557.42 253.62 562.99 256.99
  Q 563.34 257.20 563.48 256.89
  L 570.49 262.01
  Q 574.00 264.99 576.47 266.69
  Q 577.76 267.58 576.66 266.46
  Q 574.36 264.11 570.49 262.01
  Q 567.60 258.80 563.48 256.89
  Q 559.38 253.98 555.23 251.06
  Q 551.12 248.16 546.74 245.59
  Q 534.34 238.30 522.93 231.62
  Q 521.54 230.81 520.18 230.01
  Q 509.01 223.48 498.05 214.48
  Q 489.02 207.07 479.00 193.26
  Q 472.32 184.06 468.15 173.50
  Q 461.12 155.07 462.53 135.46
  Q 465.35 109.80 480.41 88.97
  Q 480.52 88.81 480.36 88.69
  L 480.12 88.52
  Q 480.11 88.51 480.11 88.52
  Q 469.74 102.94 464.84 120.04
  Q 462.84 127.02 462.17 134.18
  Z
  M 584.48 273.04
  L 587.12 275.44
  Q 587.86 276.12 587.36 275.25
  Q 586.48 273.69 584.48 273.04
  Q 582.20 270.67 579.67 268.93
  Q 578.00 267.78 579.41 269.24
  Q 581.34 271.21 584.48 273.04
  Z
  M 592.75 280.50
  Q 595.35 283.62 596.68 284.50
  Q 600.96 287.33 597.54 283.50
  Q 596.14 281.92 592.75 280.50
  Q 590.77 277.95 588.51 276.27
  Q 587.73 275.69 588.37 276.42
  Q 590.63 278.98 592.75 280.50
  Z
  M 536.93 375.56
  Q 536.14 359.64 531.11 346.45
  Q 527.23 336.27 519.76 325.29
  C 509.51 310.23 495.26 299.74 478.20 292.85
  Q 467.06 288.35 453.81 287.32
  C 432.40 285.66 408.22 291.36 390.68 304.86
  Q 353.08 333.80 354.39 380.88
  C 355.20 409.97 368.66 435.94 391.80 453.37
  Q 415.84 471.47 447.58 471.16
  C 479.74 470.84 511.14 452.06 526.08 423.88
  Q 538.21 401.01 536.93 375.56
  Z"
/>
<path fill="#4d785a" d="
  M 47.37 0.00
  L 382.25 0.00
  Q 385.98 10.04 389.55 20.03
  Q 399.43 47.62 400.02 74.36
  C 400.25 85.02 400.31 96.81 398.97 107.47
  Q 393.39 151.56 368.52 187.85
  Q 359.59 200.87 346.08 214.64
  Q 338.98 221.87 330.99 227.97
  Q 302.51 249.71 270.48 259.48
  Q 205.68 279.26 144.64 253.59
  Q 112.56 240.11 86.53 215.01
  C 42.41 172.47 23.17 110.99 32.91 50.38
  C 35.70 33.01 40.04 16.58 48.05 0.86
  A 0.49 0.49 0.0 0 0 47.80 0.19
  L 47.37 0.00
  Z"
/>
<path fill="#275344" d="
  M 569.52 0.00
  L 571.78 0.00
  C 571.90 2.55 573.28 4.00 574.23 6.23
  Q 574.31 6.40 574.13 6.48
  L 574.13 6.49
  Q 573.95 6.56 573.86 6.39
  Q 572.03 2.97 569.52 0.00
  Z"
/>
<path fill="#275344" d="
  M 592.32 0.00
  L 595.88 0.00
  C 594.61 0.31 593.44 0.44 592.36 1.27
  Q 585.21 6.77 577.90 10.56
  Q 577.41 10.82 577.74 11.29
  Q 578.08 11.77 577.52 11.57
  Q 577.30 11.48 577.23 11.27
  A 0.43 0.42 63.7 0 0 576.59 11.05
  L 561.95 20.75
  Q 561.75 20.76 561.48 20.52
  L 575.71 10.98
  Q 576.17 10.66 576.24 10.11
  Q 576.32 9.52 576.87 9.63
  Q 577.44 9.74 577.96 9.50
  Q 585.74 5.94 592.32 0.00
  Z"
/>
<path fill="#275344" d="
  M 695.80 0.00
  L 697.10 0.00
  Q 696.40 11.32 692.87 22.10
  Q 692.41 23.51 691.76 24.71
  Q 691.09 25.96 690.62 27.22
  A 0.31 0.30 -68.7 0 1 690.22 27.40
  L 689.98 27.30
  Q 689.94 27.29 689.95 27.24
  Q 693.77 17.57 694.93 12.24
  Q 695.85 8.01 695.80 0.00
  Z"
/>
<path fill="#fafae0" d="
  M 748.28 0.00
  L 750.93 0.00
  Q 748.97 6.73 745.84 13.07
  C 739.59 25.75 732.62 38.56 724.11 49.89
  Q 710.41 68.15 696.27 81.02
  Q 681.58 94.40 668.76 104.28
  Q 653.12 116.34 639.14 128.64
  Q 624.30 141.70 614.09 156.21
  C 610.69 161.06 607.16 165.88 604.32 170.86
  Q 593.14 190.40 591.29 212.64
  Q 590.04 227.61 591.24 238.28
  Q 594.13 264.17 605.17 288.61
  Q 613.70 307.50 628.14 328.15
  Q 633.68 336.07 640.65 344.02
  Q 649.99 354.68 658.11 362.60
  C 678.22 382.24 702.30 398.50 728.57 409.95
  Q 737.71 413.94 744.74 416.48
  Q 755.03 420.19 769.45 423.18
  Q 783.00 426.51 795.01 427.74
  Q 817.18 430.02 840.59 428.25
  Q 853.39 427.65 861.50 426.08
  Q 879.58 422.59 904.37 415.17
  C 894.56 419.35 884.56 422.32 874.00 425.08
  C 850.71 431.17 825.74 432.51 801.82 430.75
  C 752.86 427.16 706.55 406.90 669.06 375.21
  C 645.59 355.38 625.66 331.96 611.33 305.53
  C 606.97 297.50 602.55 289.13 599.32 280.64
  Q 593.81 266.18 591.75 256.64
  Q 590.06 248.79 588.91 239.27
  C 587.03 223.68 588.21 208.09 592.28 193.10
  C 594.55 184.73 598.62 175.38 602.64 167.59
  Q 604.52 163.92 606.85 160.59
  C 619.59 142.30 635.90 126.84 653.61 112.86
  C 677.38 94.09 700.35 76.57 718.19 52.28
  C 722.77 46.04 727.66 39.95 731.77 33.48
  Q 741.87 17.62 748.28 0.00
  Z"
/>
<path fill="#275344" d="
  M 750.93 0.00
  L 1024.00 0.00
  L 1024.00 329.00
  L 1023.79 328.62
  Q 1023.50 328.08 1023.13 328.57
  Q 1022.62 329.26 1022.07 329.88
  Q 1017.29 335.30 1012.47 340.78
  C 1003.86 350.57 993.83 359.93 984.37 367.83
  Q 981.22 370.45 970.68 378.50
  Q 963.16 384.23 956.54 388.57
  Q 931.82 404.73 904.37 415.17
  Q 879.58 422.59 861.50 426.08
  Q 853.39 427.65 840.59 428.25
  Q 826.52 427.93 812.75 427.83
  Q 799.92 427.74 784.43 425.39
  Q 784.34 425.38 777.42 423.94
  Q 773.43 423.11 769.45 423.18
  Q 755.03 420.19 744.74 416.48
  Q 737.71 413.94 728.57 409.95
  C 702.30 398.50 678.22 382.24 658.11 362.60
  Q 649.99 354.68 640.65 344.02
  Q 633.68 336.07 628.14 328.15
  Q 613.70 307.50 605.17 288.61
  Q 594.13 264.17 591.24 238.28
  Q 590.04 227.61 591.29 212.64
  Q 593.14 190.40 604.32 170.86
  C 607.16 165.88 610.69 161.06 614.09 156.21
  Q 624.30 141.70 639.14 128.64
  Q 653.12 116.34 668.76 104.28
  Q 681.58 94.40 696.27 81.02
  Q 710.41 68.15 724.11 49.89
  C 732.62 38.56 739.59 25.75 745.84 13.07
  Q 748.97 6.73 750.93 0.00
  Z
  M 769.08 218.49
  Q 774.17 225.17 781.07 231.20
  Q 805.51 252.55 837.00 253.06
  C 863.06 253.49 887.68 242.23 905.86 223.58
  Q 908.87 220.49 912.36 216.30
  Q 915.73 212.25 917.71 208.12
  Q 921.31 200.64 923.57 194.89
  Q 931.71 174.23 928.55 151.50
  Q 925.90 132.40 916.99 117.95
  Q 902.26 91.44 874.81 78.38
  C 848.46 65.84 815.80 67.50 791.43 82.73
  Q 770.20 96.00 759.11 116.51
  Q 740.35 151.21 752.95 189.49
  Q 758.17 205.32 769.08 218.49
  Z"
/>
<path fill="#275344" d="
  M 672.94 48.24
  Q 673.09 48.60 672.53 48.99
  C 660.47 57.33 644.81 60.78 630.40 57.57
  Q 622.84 55.89 617.30 53.06
  Q 607.15 47.88 599.60 39.81
  Q 588.93 28.43 578.41 12.68
  Q 578.21 12.39 578.50 12.20
  L 578.73 12.05
  A 0.07 0.07 0.0 0 1 578.83 12.07
  Q 589.32 28.08 599.76 39.23
  Q 615.16 55.67 638.90 58.00
  C 642.62 58.37 646.26 57.62 650.01 57.31
  C 658.48 56.61 665.60 52.33 672.94 48.24
  Z"
/>
<path fill="#4d785a" d="
  M 561.48 20.52
  Q 561.75 20.76 561.95 20.75
  L 544.07 32.34
  Q 543.95 32.11 543.84 31.87
  L 561.48 20.52
  Z"
/>
<ellipse fill="#275344" cx="0.00" cy="0.00" transform="translate(688.49,30.52) rotate(118.6)" rx="2.57" ry="0.34"/>
<path fill="#275344" d="
  M 543.84 31.87
  Q 543.95 32.11 544.07 32.34
  Q 530.25 41.93 516.74 51.89
  C 512.74 54.84 509.05 58.09 505.18 61.17
  Q 505.16 61.19 505.14 61.18
  L 504.88 61.02
  Q 504.61 60.86 504.85 60.67
  Q 514.48 52.63 517.03 50.81
  Q 523.95 45.87 530.76 40.77
  Q 534.94 37.65 543.84 31.87
  Z"
/>
<path fill="#275344" d="
  M 672.94 48.24
  Q 673.68 47.11 674.83 46.41
  Q 675.36 46.08 675.11 46.65
  Q 674.64 47.69 672.94 48.24
  Z"
/>
<ellipse fill="#275344" cx="0.00" cy="0.00" transform="translate(496.31,69.69) rotate(132.6)" rx="2.00" ry="0.26"/>
<path fill="#091c1a" d="
  M 916.99 117.95
  Q 931.54 147.98 924.44 180.00
  Q 922.97 186.62 919.65 194.76
  C 917.97 198.88 915.08 203.04 912.41 206.67
  Q 907.57 213.23 901.93 220.20
  Q 894.45 229.45 883.95 235.71
  C 853.35 253.96 816.56 252.44 786.50 233.73
  Q 778.36 228.66 769.08 218.49
  Q 758.17 205.32 752.95 189.49
  Q 740.35 151.21 759.11 116.51
  Q 770.20 96.00 791.43 82.73
  C 815.80 67.50 848.46 65.84 874.81 78.38
  Q 902.26 91.44 916.99 117.95
  Z"
/>
<ellipse fill="#275344" cx="0.00" cy="0.00" transform="translate(490.19,76.36) rotate(129.8)" rx="4.39" ry="0.31"/>
<path fill="#275344" d="
  M 462.53 135.46
  Q 462.85 134.14 462.17 134.18
  Q 462.84 127.02 464.84 120.04
  Q 469.74 102.94 480.11 88.52
  Q 480.11 88.51 480.12 88.52
  L 480.36 88.69
  Q 480.52 88.81 480.41 88.97
  Q 465.35 109.80 462.53 135.46
  Z"
/>
<path fill="#fafae0" d="
  M 916.99 117.95
  Q 925.90 132.40 928.55 151.50
  Q 931.71 174.23 923.57 194.89
  Q 921.31 200.64 917.71 208.12
  Q 915.73 212.25 912.36 216.30
  Q 908.87 220.49 905.86 223.58
  C 887.68 242.23 863.06 253.49 837.00 253.06
  Q 805.51 252.55 781.07 231.20
  Q 774.17 225.17 769.08 218.49
  Q 778.36 228.66 786.50 233.73
  C 816.56 252.44 853.35 253.96 883.95 235.71
  Q 894.45 229.45 901.93 220.20
  Q 907.57 213.23 912.41 206.67
  C 915.08 203.04 917.97 198.88 919.65 194.76
  Q 922.97 186.62 924.44 180.00
  Q 931.54 147.98 916.99 117.95
  Z"
/>
<path fill="#4d785a" d="
  M 462.17 134.18
  Q 462.85 134.14 462.53 135.46
  Q 461.12 155.07 468.15 173.50
  Q 468.09 173.75 467.74 173.79
  Q 462.05 158.83 461.53 143.25
  Q 461.39 139.08 462.17 134.18
  Z"
/>
<path fill="#275344" d="
  M 468.15 173.50
  Q 472.32 184.06 479.00 193.26
  Q 489.02 207.07 498.05 214.48
  Q 509.01 223.48 520.18 230.01
  Q 521.54 230.81 522.93 231.62
  Q 534.34 238.30 546.74 245.59
  Q 551.12 248.16 555.23 251.06
  Q 559.38 253.98 563.48 256.89
  Q 563.34 257.20 562.99 256.99
  C 557.42 253.62 552.23 249.66 546.80 246.39
  Q 534.17 238.78 520.62 231.17
  C 515.44 228.25 510.82 224.93 505.99 221.51
  C 495.66 214.18 486.59 204.63 479.10 194.44
  Q 472.06 184.86 467.74 173.79
  Q 468.09 173.75 468.15 173.50
  Z"
/>
<path fill="#4d785a" d="
  M 563.48 256.89
  Q 567.60 258.80 570.49 262.01
  L 563.48 256.89
  Z"
/>
<path fill="#4d785a" d="
  M 570.49 262.01
  Q 574.36 264.11 576.66 266.46
  Q 577.76 267.58 576.47 266.69
  Q 574.00 264.99 570.49 262.01
  Z"
/>
<path fill="#4d785a" d="
  M 584.48 273.04
  Q 581.34 271.21 579.41 269.24
  Q 578.00 267.78 579.67 268.93
  Q 582.20 270.67 584.48 273.04
  Z"
/>
<path fill="#4d785a" d="
  M 584.48 273.04
  Q 586.48 273.69 587.36 275.25
  Q 587.86 276.12 587.12 275.44
  L 584.48 273.04
  Z"
/>
<path fill="#4d785a" d="
  M 592.75 280.50
  Q 590.63 278.98 588.37 276.42
  Q 587.73 275.69 588.51 276.27
  Q 590.77 277.95 592.75 280.50
  Z"
/>
<path fill="#275344" d="
  M 592.75 280.50
  Q 596.14 281.92 597.54 283.50
  Q 600.96 287.33 596.68 284.50
  Q 595.35 283.62 592.75 280.50
  Z"
/>
<path fill="#275344" d="
  M 536.93 375.56
  Q 538.21 401.01 526.08 423.88
  C 511.14 452.06 479.74 470.84 447.58 471.16
  Q 415.84 471.47 391.80 453.37
  C 368.66 435.94 355.20 409.97 354.39 380.88
  Q 353.08 333.80 390.68 304.86
  C 408.22 291.36 432.40 285.66 453.81 287.32
  Q 467.06 288.35 478.20 292.85
  C 495.26 299.74 509.51 310.23 519.76 325.29
  Q 527.23 336.27 531.11 346.45
  Q 536.14 359.64 536.93 375.56
  Z"
/>
<path fill="#091c1a" d="
  M 840.59 428.25
  Q 817.18 430.02 795.01 427.74
  Q 783.00 426.51 769.45 423.18
  Q 773.43 423.11 777.42 423.94
  Q 784.34 425.38 784.43 425.39
  Q 799.92 427.74 812.75 427.83
  Q 826.52 427.93 840.59 428.25
  Z"
/>
<path fill="#4d785a" d="
  M 1024.00 425.05
  L 1024.00 481.00
  Q 1013.23 483.29 1002.78 486.55
  Q 982.08 493.01 963.29 500.25
  Q 922.47 515.99 884.35 538.11
  C 874.64 543.74 864.78 550.20 855.67 556.63
  Q 824.13 578.89 797.33 606.92
  Q 782.03 622.91 770.64 637.41
  C 758.92 652.31 747.54 668.28 738.39 684.36
  Q 722.66 712.04 711.65 742.59
  C 702.85 767.01 696.89 791.18 694.25 815.90
  Q 693.01 827.42 693.01 831.75
  Q 692.87 927.88 692.94 1024.00
  L 541.06 1024.00
  Q 540.77 1018.66 540.19 1013.32
  C 536.25 976.87 536.56 939.66 540.14 903.50
  Q 542.12 883.59 547.43 854.57
  Q 551.48 832.49 559.08 805.27
  Q 570.50 764.40 587.36 728.77
  Q 592.06 718.83 599.01 706.37
  Q 599.36 705.75 598.66 705.67
  Q 586.90 704.22 576.70 704.72
  Q 571.44 704.98 566.06 705.34
  Q 560.39 705.71 555.44 706.29
  Q 549.76 706.94 543.74 707.43
  Q 535.10 708.13 526.99 709.79
  Q 524.75 710.24 522.51 710.39
  Q 520.66 710.52 518.04 711.05
  Q 515.69 711.52 513.26 711.52
  Q 513.16 711.22 513.75 711.14
  Q 522.45 709.89 530.31 708.48
  Q 537.17 707.26 544.27 706.71
  Q 551.24 706.18 558.08 705.35
  C 559.69 705.15 561.39 705.39 563.10 705.25
  Q 580.10 703.84 597.32 704.73
  Q 598.34 704.78 599.37 704.72
  Q 599.86 704.69 600.11 704.26
  Q 608.06 690.51 615.85 677.34
  Q 633.14 648.12 656.17 620.57
  Q 681.74 589.97 710.70 564.74
  Q 725.57 551.78 745.01 536.72
  Q 752.76 530.72 761.55 524.84
  Q 784.71 509.34 804.72 498.12
  Q 844.43 475.86 891.30 458.51
  Q 952.42 435.89 1017.01 425.83
  Q 1020.50 425.29 1024.00 425.05
  Z"
/>
<path fill="#fafae0" d="
  M 218.70 461.58
  Q 224.80 467.02 226.72 469.79
  Q 236.65 484.07 234.58 500.55
  C 232.07 520.52 214.49 536.31 194.40 536.76
  C 169.88 537.31 151.69 518.75 151.62 494.43
  Q 151.58 484.96 153.84 479.56
  Q 160.31 464.06 176.73 456.61
  Q 199.50 448.66 218.70 461.58
  Z"
/>
<path fill="#275344" d="
  M 176.73 456.61
  Q 160.31 464.06 153.84 479.56
  Q 151.58 484.96 151.62 494.43
  C 151.69 518.75 169.88 537.31 194.40 536.76
  C 214.49 536.31 232.07 520.52 234.58 500.55
  Q 236.65 484.07 226.72 469.79
  Q 224.80 467.02 218.70 461.58
  Q 221.87 461.09 223.25 461.46
  Q 270.97 474.26 313.83 498.20
  Q 378.38 534.25 426.41 587.66
  Q 439.49 602.21 451.32 617.20
  Q 456.77 624.11 462.05 632.10
  C 466.62 639.04 471.36 645.86 475.62 652.88
  Q 490.43 677.28 501.64 703.07
  C 502.97 706.12 504.01 709.15 505.49 712.15
  Q 505.71 712.60 506.21 712.58
  Q 506.63 712.57 507.05 712.48
  Q 507.94 712.30 507.19 712.81
  Q 506.81 713.07 506.38 713.16
  Q 505.95 713.25 505.61 713.54
  Q 505.18 713.92 505.57 714.33
  Q 506.22 715.01 506.56 715.89
  C 513.51 734.16 519.18 752.59 522.42 771.17
  C 523.47 777.23 524.86 783.32 525.72 789.32
  Q 533.63 845.05 523.93 900.34
  Q 522.43 908.86 519.60 919.97
  Q 515.22 937.16 512.95 944.16
  Q 508.90 956.64 504.60 967.25
  Q 502.82 971.64 500.62 975.87
  Q 500.38 976.33 499.97 976.62
  A 0.43 0.42 -26.8 0 1 499.32 976.41
  C 498.08 972.65 497.25 968.94 495.99 965.21
  Q 487.50 940.25 474.01 914.48
  Q 449.11 866.91 412.62 827.21
  Q 405.18 819.12 398.72 812.97
  Q 347.84 764.57 283.39 740.51
  Q 274.33 737.13 264.03 734.23
  C 224.57 723.12 182.56 719.24 142.07 724.50
  Q 64.71 734.53 0.00 777.31
  L 0.00 480.36
  Q 24.99 471.19 50.50 464.93
  Q 75.93 458.70 102.00 456.10
  Q 134.92 452.81 172.75 455.33
  Q 175.61 455.53 176.73 456.61
  Z
  M 377.37 672.58
  Q 385.83 682.62 395.15 691.64
  Q 399.45 695.80 404.24 699.59
  Q 408.92 703.30 413.56 706.33
  Q 431.61 718.07 455.06 718.90
  Q 468.20 719.36 480.78 717.68
  Q 492.36 716.13 504.37 713.72
  Q 504.59 713.68 504.54 713.46
  L 504.54 713.45
  Q 504.50 713.21 504.26 713.26
  Q 489.37 716.09 474.32 717.71
  C 468.22 718.37 462.30 718.19 456.02 718.16
  Q 448.32 718.13 438.61 716.03
  Q 424.71 713.02 412.88 705.20
  Q 404.82 699.88 399.09 694.56
  Q 394.53 690.32 390.02 685.78
  Q 384.81 680.53 380.35 675.26
  Q 363.42 655.28 349.37 640.11
  Q 333.60 623.09 313.29 606.12
  Q 298.83 594.05 282.81 582.84
  Q 282.63 582.72 282.51 582.89
  L 282.50 582.90
  Q 282.44 582.99 282.53 583.05
  Q 293.63 591.40 304.67 599.69
  C 306.99 601.43 309.04 603.49 311.33 605.34
  Q 329.83 620.27 347.81 639.28
  C 350.87 642.52 353.62 645.92 356.72 649.09
  C 363.99 656.53 370.79 664.78 377.37 672.58
  Z"
/>
<path fill="#fafae0" d="
  M 1024.00 481.00
  L 1024.00 482.50
  Q 972.20 496.90 923.55 519.80
  C 891.01 535.13 860.32 553.65 833.55 576.03
  Q 800.66 603.53 773.51 636.88
  Q 767.97 643.68 762.41 651.34
  Q 756.59 659.36 751.73 666.70
  Q 720.63 713.67 705.10 769.27
  Q 696.80 799.01 695.21 828.32
  Q 694.84 835.26 694.83 843.00
  Q 694.69 933.50 694.73 1024.00
  L 692.94 1024.00
  Q 692.87 927.88 693.01 831.75
  Q 693.01 827.42 694.25 815.90
  C 696.89 791.18 702.85 767.01 711.65 742.59
  Q 722.66 712.04 738.39 684.36
  C 747.54 668.28 758.92 652.31 770.64 637.41
  Q 782.03 622.91 797.33 606.92
  Q 824.13 578.89 855.67 556.63
  C 864.78 550.20 874.64 543.74 884.35 538.11
  Q 922.47 515.99 963.29 500.25
  Q 982.08 493.01 1002.78 486.55
  Q 1013.23 483.29 1024.00 481.00
  Z"
/>
<path fill="#275344" d="
  M 1024.00 482.50
  L 1024.00 608.25
  Q 1016.84 604.60 1009.99 602.47
  Q 998.36 598.85 985.58 596.96
  Q 969.46 594.57 955.03 594.40
  Q 933.07 594.15 911.19 599.05
  Q 890.39 603.70 867.73 614.46
  C 842.01 626.66 818.40 645.89 799.66 666.82
  C 780.25 688.49 764.16 712.77 752.26 739.29
  Q 748.14 748.47 744.92 758.05
  Q 735.98 784.69 732.40 805.19
  Q 726.02 841.68 729.29 880.49
  Q 730.00 888.98 731.22 897.98
  Q 733.16 912.24 737.05 927.25
  Q 750.28 978.28 778.23 1022.36
  C 778.60 1022.94 779.22 1023.40 779.50 1024.00
  L 694.73 1024.00
  Q 694.69 933.50 694.83 843.00
  Q 694.84 835.26 695.21 828.32
  Q 696.80 799.01 705.10 769.27
  Q 720.63 713.67 751.73 666.70
  Q 756.59 659.36 762.41 651.34
  Q 767.97 643.68 773.51 636.88
  Q 800.66 603.53 833.55 576.03
  C 860.32 553.65 891.01 535.13 923.55 519.80
  Q 972.20 496.90 1024.00 482.50
  Z"
/>
<path fill="#fafae0" d="
  M 377.37 672.58
  C 370.79 664.78 363.99 656.53 356.72 649.09
  C 353.62 645.92 350.87 642.52 347.81 639.28
  Q 329.83 620.27 311.33 605.34
  C 309.04 603.49 306.99 601.43 304.67 599.69
  Q 293.63 591.40 282.53 583.05
  Q 282.44 582.99 282.50 582.90
  L 282.51 582.89
  Q 282.63 582.72 282.81 582.84
  Q 298.83 594.05 313.29 606.12
  Q 333.60 623.09 349.37 640.11
  Q 363.42 655.28 380.35 675.26
  Q 384.81 680.53 390.02 685.78
  Q 394.53 690.32 399.09 694.56
  Q 404.82 699.88 412.88 705.20
  Q 424.71 713.02 438.61 716.03
  Q 448.32 718.13 456.02 718.16
  C 462.30 718.19 468.22 718.37 474.32 717.71
  Q 489.37 716.09 504.26 713.26
  Q 504.50 713.21 504.54 713.45
  L 504.54 713.46
  Q 504.59 713.68 504.37 713.72
  Q 492.36 716.13 480.78 717.68
  Q 468.20 719.36 455.06 718.90
  Q 431.61 718.07 413.56 706.33
  Q 408.92 703.30 404.24 699.59
  Q 399.45 695.80 395.15 691.64
  Q 385.83 682.62 377.37 672.58
  Z"
/>
<path fill="#fafae0" d="
  M 1024.00 608.25
  L 1024.00 608.91
  C 1018.04 606.68 1012.23 604.36 1006.07 602.69
  Q 977.66 595.00 946.24 595.79
  Q 927.95 596.26 910.69 600.48
  Q 860.94 612.65 822.89 645.85
  Q 796.74 668.67 777.20 697.39
  Q 763.30 717.82 754.43 737.39
  Q 743.54 761.43 736.11 793.61
  Q 733.98 802.80 732.60 812.60
  Q 725.74 861.17 734.34 909.21
  Q 737.81 928.62 744.52 948.49
  C 753.39 974.76 764.63 999.38 779.70 1022.51
  Q 780.12 1023.16 779.93 1024.00
  L 779.50 1024.00
  C 779.22 1023.40 778.60 1022.94 778.23 1022.36
  Q 750.28 978.28 737.05 927.25
  Q 733.16 912.24 731.22 897.98
  Q 730.00 888.98 729.29 880.49
  Q 726.02 841.68 732.40 805.19
  Q 735.98 784.69 744.92 758.05
  Q 748.14 748.47 752.26 739.29
  C 764.16 712.77 780.25 688.49 799.66 666.82
  C 818.40 645.89 842.01 626.66 867.73 614.46
  Q 890.39 603.70 911.19 599.05
  Q 933.07 594.15 955.03 594.40
  Q 969.46 594.57 985.58 596.96
  Q 998.36 598.85 1009.99 602.47
  Q 1016.84 604.60 1024.00 608.25
  Z"
/>
<path fill="#275344" d="
  M 1024.00 608.91
  L 1024.00 765.76
  Q 965.25 765.76 906.50 765.74
  Q 888.96 765.73 882.76 766.28
  Q 840.10 770.08 811.65 800.72
  C 807.81 804.87 804.26 809.64 800.97 814.33
  C 797.04 819.94 793.22 827.09 791.17 833.76
  Q 787.06 847.21 786.24 856.52
  Q 785.23 867.88 785.24 875.00
  Q 785.28 911.28 785.29 944.50
  Q 785.31 984.25 785.04 1024.00
  L 779.93 1024.00
  Q 780.12 1023.16 779.70 1022.51
  C 764.63 999.38 753.39 974.76 744.52 948.49
  Q 737.81 928.62 734.34 909.21
  Q 725.74 861.17 732.60 812.60
  Q 733.98 802.80 736.11 793.61
  Q 743.54 761.43 754.43 737.39
  Q 763.30 717.82 777.20 697.39
  Q 796.74 668.67 822.89 645.85
  Q 860.94 612.65 910.69 600.48
  Q 927.95 596.26 946.24 595.79
  Q 977.66 595.00 1006.07 602.69
  C 1012.23 604.36 1018.04 606.68 1024.00 608.91
  Z"
/>
<path fill="#fafae0" d="
  M 513.26 711.52
  Q 511.26 712.21 509.12 712.28
  Q 509.02 712.29 508.94 712.23
  Q 508.90 712.20 508.86 712.18
  Q 508.78 712.14 508.86 712.13
  Q 511.06 711.85 513.26 711.52
  Z"
/>
<path fill="#fafae0" d="
  M 1024.00 765.76
  L 1024.00 770.00
  Q 964.63 769.77 905.25 770.01
  Q 893.59 770.06 885.23 770.73
  C 858.99 772.84 836.39 783.16 817.11 801.94
  C 813.43 805.52 810.40 810.29 807.28 814.51
  Q 804.82 817.82 799.30 828.26
  Q 791.31 843.37 790.16 861.50
  Q 789.61 870.28 789.59 875.63
  Q 789.45 933.21 789.32 979.76
  C 789.28 994.51 789.62 1009.25 789.50 1024.00
  L 785.04 1024.00
  Q 785.31 984.25 785.29 944.50
  Q 785.28 911.28 785.24 875.00
  Q 785.23 867.88 786.24 856.52
  Q 787.06 847.21 791.17 833.76
  C 793.22 827.09 797.04 819.94 800.97 814.33
  C 804.26 809.64 807.81 804.87 811.65 800.72
  Q 840.10 770.08 882.76 766.28
  Q 888.96 765.73 906.50 765.74
  Q 965.25 765.76 1024.00 765.76
  Z"
/>
<path fill="#fafae0" d="
  M 133.31 1024.00
  L 130.95 1024.00
  Q 130.95 928.88 130.98 833.75
  Q 130.99 816.73 131.37 813.77
  Q 132.78 803.06 138.95 793.62
  Q 156.73 766.40 188.73 768.87
  Q 199.38 769.69 208.02 774.47
  C 224.43 783.55 236.16 800.24 236.67 818.94
  Q 237.18 837.66 236.84 859.96
  Q 236.77 864.74 237.04 870.19
  C 238.05 890.42 253.59 910.01 273.18 916.13
  C 288.96 921.06 306.72 919.26 320.32 909.80
  C 332.25 901.50 340.86 890.13 343.45 875.79
  C 344.41 870.49 344.73 864.71 344.78 859.25
  Q 344.96 839.38 344.72 820.00
  Q 344.71 819.44 345.27 819.47
  L 347.28 819.56
  Q 347.87 819.59 347.88 820.19
  Q 348.25 844.02 347.69 866.81
  Q 347.23 885.62 335.57 899.96
  C 320.95 917.95 297.95 926.18 275.64 920.10
  C 251.74 913.59 234.19 892.26 234.05 867.29
  Q 233.93 846.09 233.90 822.24
  Q 233.88 799.93 217.35 784.71
  Q 202.57 771.10 181.83 771.76
  Q 169.98 772.13 161.11 776.89
  C 148.68 783.55 138.97 795.48 135.28 809.37
  Q 133.96 814.34 133.77 824.72
  Q 133.61 833.26 133.60 840.69
  Q 133.49 930.71 133.76 1012.75
  Q 133.78 1018.44 133.31 1024.00
  Z"
/>
<path fill="#275344" d="
  M 1024.00 770.00
  L 1024.00 1024.00
  L 789.50 1024.00
  C 789.62 1009.25 789.28 994.51 789.32 979.76
  Q 789.45 933.21 789.59 875.63
  Q 789.61 870.28 790.16 861.50
  Q 791.31 843.37 799.30 828.26
  Q 804.82 817.82 807.28 814.51
  C 810.40 810.29 813.43 805.52 817.11 801.94
  C 836.39 783.16 858.99 772.84 885.23 770.73
  Q 893.59 770.06 905.25 770.01
  Q 964.63 769.77 1024.00 770.00
  Z"
/>
</svg>
